{"glyphs":{"0":{"ha":488,"x_min":24,"x_max":448,"o":"m 26 163 q 36 263 24 207 q 72 371 49 318 q 126 470 95 425 q 195 540 158 516 q 252 588 222 570 q 312 614 282 607 q 368 613 343 620 q 409 589 392 606 q 435 546 426 571 q 446 490 444 520 q 436 381 448 441 q 399 263 423 322 q 343 151 375 204 q 275 62 311 99 q 190 6 233 20 q 112 6 148 -7 q 53 59 77 19 q 26 163 29 99 m 131 233 q 130 226 132 229 q 125 223 128 223 q 118 224 122 222 q 114 231 115 226 q 107 307 107 271 q 114 376 107 343 q 90 319 101 348 q 73 263 80 290 q 62 208 65 235 q 58 160 58 182 q 79 72 59 103 q 128 33 98 41 q 192 39 157 25 q 258 85 227 52 q 300 138 280 107 q 337 203 320 168 q 369 275 354 237 q 393 350 383 313 q 410 422 404 387 q 416 487 416 457 q 413 528 417 507 q 399 566 409 550 q 371 590 388 582 q 326 594 353 599 q 229 541 278 587 q 223 529 231 535 q 214 522 218 526 q 205 515 210 519 q 167 457 184 489 q 140 390 150 426 q 127 314 129 354 q 131 233 124 275 z "},"1":{"ha":259,"x_min":0,"x_max":248,"o":"m 99 575 q 123 585 107 579 q 156 596 139 590 q 190 606 173 601 q 216 614 206 611 q 230 619 222 622 q 243 607 238 616 q 244 584 248 600 q 233 549 241 569 q 215 506 226 528 q 195 463 205 484 q 177 426 185 443 q 166 403 169 410 q 133 314 151 363 q 96 212 115 265 q 57 106 76 159 q 20 3 37 52 q 14 -6 18 -2 q 6 -10 10 -10 q 1 -6 3 -10 q 3 7 0 -3 q 95 296 44 150 q 205 587 145 441 q 177 573 192 580 q 148 558 162 565 q 122 546 133 551 q 105 539 110 541 q 91 542 95 538 q 88 552 88 546 q 91 565 88 558 q 99 575 94 572 z "},"2":{"ha":324,"x_min":-41,"x_max":322,"o":"m 174 37 q 186 27 184 36 q 178 15 188 18 q 159 13 173 14 q 124 11 144 12 q 82 7 105 9 q 39 5 60 6 q 0 3 18 4 q -27 2 -17 2 q -39 5 -36 -1 q -37 18 -41 11 q -1 94 -27 54 q 58 176 24 134 q 128 261 91 218 q 198 347 165 304 q 253 431 230 390 q 284 511 277 473 q 281 565 290 543 q 256 595 273 586 q 217 601 239 605 q 172 577 194 597 q 130 522 150 558 q 101 434 111 487 q 93 421 99 424 q 80 420 86 418 q 70 431 74 422 q 69 451 67 439 q 104 544 80 507 q 157 601 128 582 q 218 622 187 620 q 272 611 249 624 q 309 570 296 598 q 315 503 322 543 q 285 422 308 464 q 230 338 262 380 q 161 254 198 296 q 90 171 124 212 q 28 92 56 131 q -15 19 -1 54 q 32 24 3 21 q 89 30 61 27 q 141 35 118 33 q 174 37 165 37 z "},"3":{"ha":415,"x_min":-28,"x_max":388,"o":"m 125 487 q 151 533 135 510 q 188 574 167 556 q 234 606 209 593 q 286 624 259 620 q 335 622 312 628 q 371 602 358 616 q 387 562 385 587 q 373 504 388 538 q 336 447 360 476 q 285 392 312 418 q 232 348 258 367 q 187 322 205 329 q 280 291 245 318 q 332 231 316 265 q 346 160 348 195 q 328 94 344 124 q 285 38 312 63 q 225 1 258 14 q 155 -13 192 -12 q 84 3 119 -13 q 42 30 61 14 q 9 65 23 46 q -15 104 -5 84 q -27 144 -24 124 q -25 153 -28 150 q -18 157 -22 156 q -11 156 -14 158 q -7 150 -7 154 q 9 111 -2 130 q 33 75 19 91 q 66 46 48 58 q 105 27 84 33 q 161 22 132 19 q 215 37 189 25 q 262 67 241 48 q 296 109 284 86 q 310 159 308 133 q 298 214 312 186 q 247 270 282 248 q 161 295 212 292 q 133 300 141 296 q 128 311 126 305 q 140 324 130 317 q 167 340 151 332 q 187 353 173 343 q 219 377 201 363 q 257 409 237 391 q 296 446 277 426 q 331 484 315 465 q 356 520 346 503 q 366 561 368 543 q 354 590 365 579 q 324 605 343 601 q 284 603 305 609 q 241 582 262 597 q 202 549 220 567 q 171 511 184 531 q 150 476 157 491 q 142 469 147 471 q 132 470 137 468 q 125 476 128 472 q 125 487 123 481 z "},"4":{"ha":318,"x_min":0,"x_max":306,"o":"m 65 196 q 54 188 59 192 q 42 181 48 184 q 29 177 36 178 q 16 182 22 177 q 2 220 0 191 q 16 289 3 250 q 47 376 28 329 q 83 468 65 423 q 113 551 101 512 q 125 613 125 589 q 139 619 131 622 q 153 607 148 616 q 156 569 160 595 q 140 507 152 542 q 114 433 129 473 q 83 355 98 393 q 55 284 67 317 q 36 231 42 252 q 34 205 31 210 q 56 217 38 200 q 114 252 81 241 q 172 266 146 263 q 217 396 193 330 q 274 539 241 462 q 288 546 280 549 q 302 533 297 543 q 303 512 306 527 q 292 477 299 497 q 276 435 286 457 q 257 391 267 412 q 240 354 248 371 q 230 330 233 338 l 205 265 q 207 264 207 265 q 208 264 207 264 q 210 257 210 263 q 208 247 209 252 q 204 236 206 241 q 199 230 201 231 q 195 237 199 233 q 152 118 174 178 q 111 3 131 58 q 105 -6 109 -2 q 97 -10 101 -10 q 93 -6 94 -10 q 95 7 91 -3 q 130 130 114 73 q 164 241 146 186 q 117 229 144 239 q 65 196 90 218 z "},"5":{"ha":439,"x_min":11,"x_max":362,"o":"m 234 616 q 262 617 244 616 q 299 617 280 617 q 333 616 317 616 q 354 615 348 616 q 361 608 360 614 q 358 601 362 602 q 347 599 356 599 q 324 597 338 598 q 291 595 309 597 q 253 592 273 594 q 213 533 234 566 q 174 467 192 499 q 142 409 156 435 q 122 371 128 383 q 120 367 121 367 q 121 367 119 366 q 128 370 122 368 q 144 375 133 373 q 231 377 194 385 q 294 348 269 369 q 333 296 319 327 q 348 230 346 265 q 340 158 350 195 q 309 89 330 122 q 257 32 288 57 q 183 -5 225 7 q 106 -5 144 -17 q 44 36 68 6 q 15 111 19 65 q 41 212 11 156 q 46 216 43 215 q 53 217 50 218 q 59 214 56 216 q 61 206 61 211 q 39 113 37 151 q 61 53 41 74 q 112 26 80 31 q 180 33 144 21 q 256 79 224 47 q 304 149 288 110 q 320 226 320 187 q 301 295 320 265 q 241 337 282 324 q 138 337 201 350 q 107 331 116 333 q 94 340 97 330 q 99 390 88 359 q 132 457 111 422 q 178 530 152 493 q 226 596 203 566 q 224 607 221 600 q 234 616 226 614 z "},"6":{"ha":418,"x_min":22,"x_max":341,"o":"m 297 618 q 309 626 302 624 q 320 628 316 629 q 325 623 324 627 q 320 611 326 619 q 273 549 299 584 q 226 478 248 513 q 186 416 203 444 q 163 377 169 388 q 159 373 161 373 q 160 373 158 372 q 167 376 162 374 q 184 381 173 379 q 262 381 231 390 q 311 349 293 371 q 335 294 329 326 q 336 225 341 261 q 319 152 332 189 q 285 84 305 115 q 237 29 264 52 q 179 -3 210 6 q 109 -3 144 -12 q 50 45 74 7 q 26 118 29 79 q 31 199 22 158 q 59 284 39 241 q 103 368 78 326 q 157 447 129 409 q 212 518 185 485 q 261 576 238 550 q 297 618 283 602 m 135 339 q 102 279 118 315 q 76 205 86 243 q 63 128 65 166 q 71 63 61 90 q 88 34 78 45 q 113 18 99 23 q 142 13 127 13 q 173 19 157 14 q 224 51 201 28 q 266 106 248 75 q 295 173 284 137 q 308 241 306 208 q 302 302 310 275 q 273 345 293 330 q 218 360 252 360 q 135 339 184 360 z "},"7":{"ha":266,"x_min":5,"x_max":238,"o":"m 67 326 q 83 327 73 327 q 105 329 93 328 q 148 444 125 387 q 197 557 171 501 q 201 569 200 563 q 201 579 203 575 q 196 585 200 583 q 182 584 191 586 q 135 572 161 577 q 85 566 109 568 q 44 561 62 563 q 21 558 27 560 q 8 560 12 557 q 5 568 5 563 q 9 577 5 572 q 18 586 12 583 q 44 591 24 589 q 89 596 64 594 q 140 601 114 599 q 188 608 167 604 q 208 609 199 610 q 225 602 218 607 q 235 586 233 596 q 233 560 238 575 q 191 441 214 497 q 147 330 169 385 l 199 330 q 204 325 204 329 q 201 320 204 322 q 180 315 199 319 q 137 307 161 311 q 79 164 107 237 q 24 3 50 90 q 18 -6 22 -2 q 11 -10 14 -10 q 6 -6 7 -10 q 8 7 5 -3 q 49 153 27 80 q 95 299 70 226 q 75 297 84 298 q 62 296 66 296 q 50 301 52 297 q 50 310 48 305 q 56 319 52 315 q 67 326 61 324 z "},"8":{"ha":435,"x_min":20,"x_max":422,"o":"m 280 417 q 374 499 346 463 q 403 560 403 534 q 387 596 401 586 q 352 607 372 606 q 309 603 331 608 q 271 594 287 599 q 209 568 237 584 q 159 533 180 552 q 128 491 139 514 q 120 443 118 468 q 130 405 121 424 q 154 367 139 386 q 201 413 177 392 q 247 446 224 434 q 254 446 250 447 q 263 442 259 445 q 266 436 266 440 q 259 426 266 432 q 218 389 239 411 q 174 341 196 367 q 209 303 190 322 q 244 264 227 284 q 276 225 261 245 q 299 184 290 205 q 308 134 310 158 q 296 89 307 110 q 268 49 286 67 q 231 18 251 31 q 184 -2 212 6 q 129 -11 157 -11 q 75 -2 101 -12 q 35 33 50 8 q 23 99 20 60 q 42 181 26 137 q 84 269 58 224 q 141 352 110 314 q 109 397 122 375 q 95 443 96 420 q 104 494 93 468 q 138 544 116 520 q 192 587 161 567 q 260 618 223 606 q 299 626 276 623 q 346 627 322 630 q 388 613 369 624 q 417 578 407 602 q 419 547 422 565 q 404 507 417 529 q 365 457 390 484 q 297 397 339 429 q 285 394 291 392 q 275 399 279 395 q 272 408 272 403 q 280 417 273 414 m 273 184 q 253 221 265 203 q 225 256 240 239 q 195 291 211 273 q 163 326 178 308 q 114 254 137 292 q 76 179 92 216 q 53 110 60 143 q 52 54 46 78 q 68 25 57 35 q 95 11 80 15 q 128 8 110 7 q 163 14 146 10 q 196 26 180 18 q 223 41 212 33 q 253 68 240 52 q 274 101 267 83 q 282 140 282 120 q 273 184 282 161 z "},"9":{"ha":367,"x_min":21,"x_max":340,"o":"m 65 -1 q 53 -9 60 -6 q 42 -11 46 -12 q 36 -5 37 -10 q 41 6 35 -1 q 88 69 63 33 q 136 139 114 105 q 176 201 158 173 q 199 241 193 229 q 202 245 201 244 q 202 245 203 246 q 195 241 200 243 q 178 237 189 239 q 100 237 131 227 q 51 269 69 246 q 27 323 33 291 q 26 392 21 356 q 43 466 30 429 q 77 534 56 503 q 125 588 98 565 q 183 620 152 611 q 253 620 218 630 q 312 573 288 611 q 336 499 333 539 q 331 418 340 460 q 303 334 322 377 q 258 250 283 291 q 205 171 233 209 q 150 100 177 133 q 101 41 124 67 q 65 -1 79 16 m 226 279 q 259 338 243 303 q 286 413 275 374 q 299 489 297 452 q 291 555 301 527 q 273 584 284 573 q 249 600 263 594 q 220 604 235 605 q 189 599 204 603 q 137 566 161 589 q 95 511 113 543 q 66 445 77 480 q 53 376 55 409 q 60 315 52 343 q 89 272 68 288 q 144 257 110 257 q 226 279 178 257 z "},"\u0000":{"ha":0,"x_min":0,"x_max":0,"o":""},"\r":{"ha":284,"x_min":0,"x_max":0,"o":""}," ":{"ha":284,"x_min":0,"x_max":0,"o":""},"d":{"ha":342,"x_min":-47,"x_max":419,"o":"m 342 224 q 346 226 343 226 q 350 225 348 226 q 353 222 352 224 q 353 217 354 220 q 331 177 343 199 q 304 130 318 154 q 272 83 289 106 q 237 40 256 60 q 198 6 218 20 q 155 -12 178 -7 q 106 -2 124 -19 q 80 46 88 15 q 72 116 72 76 q 79 195 73 156 q 64 169 71 182 q 49 142 57 155 q 31 116 41 129 q 10 96 21 104 q -16 89 -3 88 q -36 107 -29 90 q -40 168 -47 137 q -15 221 -33 199 q 31 253 4 244 q 89 246 58 262 q 92 258 90 252 q 96 269 94 264 q 185 463 127 371 q 318 635 243 555 q 357 663 338 656 q 391 666 377 671 q 412 642 405 660 q 414 591 419 623 q 393 530 409 562 q 352 461 377 497 q 298 392 328 426 q 237 326 268 357 q 175 270 205 296 q 118 229 144 245 q 102 148 107 189 q 98 74 96 107 q 113 22 101 41 q 151 7 125 3 q 186 23 168 10 q 222 55 204 36 q 257 97 240 74 q 290 144 275 120 q 319 188 305 167 q 342 224 332 209 m 125 254 q 203 320 163 282 q 280 400 243 358 q 347 485 317 442 q 392 568 377 528 q 404 615 404 593 q 393 647 403 637 q 365 651 384 657 q 323 615 347 645 q 271 545 299 586 q 217 456 243 504 q 166 357 190 409 q 125 254 142 305 m -18 114 q -7 105 -15 102 q 12 121 1 109 q 34 151 22 133 q 56 185 46 169 q 73 214 66 202 q 83 229 81 226 q 54 239 69 239 q 28 232 40 239 q 6 210 16 224 q -10 180 -4 197 q -19 147 -16 164 q -18 114 -21 129 z "},"e":{"ha":263,"x_min":-33,"x_max":278,"o":"m 122 301 q 127 274 130 290 q 115 242 124 258 q 89 209 105 225 q 56 181 73 194 q 22 161 39 169 q -8 154 5 154 q -9 133 -10 143 q -5 114 -8 122 q 15 86 2 94 q 45 79 29 78 q 78 85 61 79 q 112 101 95 91 q 153 127 132 112 q 194 158 174 142 q 231 192 214 175 q 263 224 249 209 q 272 225 267 229 q 273 216 278 221 q 236 173 260 197 q 184 128 212 150 q 127 88 156 105 q 76 64 99 71 q 47 58 61 60 q 19 60 32 57 q -6 72 5 63 q -24 96 -17 80 q -33 138 -33 114 q -26 187 -33 162 q -5 237 -19 212 q 28 282 8 261 q 56 304 42 296 q 84 314 71 312 q 106 312 97 316 q 122 301 116 309 m 50 271 q 17 228 32 255 q -5 171 1 200 q 23 178 7 170 q 54 197 39 186 q 83 223 69 209 q 104 252 96 238 q 112 276 112 265 q 103 292 113 287 q 80 291 95 296 q 50 271 65 286 z "},"f":{"ha":280,"x_min":-104,"x_max":290,"o":"m -34 31 q 15 3 -5 22 q 45 -41 34 -16 q 57 -95 55 -66 q 54 -152 59 -124 q 37 -204 49 -180 q 7 -243 24 -228 q -21 -259 -5 -255 q -53 -255 -37 -263 q -84 -226 -74 -245 q -97 -184 -94 -207 q -99 -137 -100 -161 q -95 -94 -97 -114 q -87 -38 -92 -69 q -75 21 -82 -7 q -95 19 -86 19 q -102 23 -101 20 q -104 29 -104 26 q -101 35 -103 33 q -96 37 -99 37 q -84 38 -90 37 q -71 40 -78 39 q -48 124 -61 82 q -4 243 -29 184 q 50 357 20 303 q 114 459 80 412 q 184 543 148 507 q 230 570 207 566 q 266 565 252 575 q 285 532 281 554 q 277 480 289 510 q 226 403 261 442 q 153 327 192 363 q 77 261 114 291 q 17 213 39 231 q 0 164 8 189 q -16 115 -7 139 q -25 83 -21 99 q -34 51 -29 67 q 22 74 -8 60 q 84 104 53 88 q 146 138 115 120 q 202 172 176 155 q 249 202 229 188 q 280 226 269 216 q 284 227 282 228 q 287 223 286 226 q 289 218 289 221 q 288 213 290 215 q 255 186 276 201 q 207 153 234 171 q 150 118 181 136 q 87 84 119 100 q 24 53 56 67 q -34 31 -7 39 m 255 482 q 270 528 270 509 q 261 554 271 547 q 233 553 251 560 q 191 521 214 546 q 106 396 145 463 q 35 256 67 329 q 96 307 63 280 q 160 364 129 335 q 216 423 190 393 q 255 482 241 454 m -61 -89 q -66 -123 -63 -100 q -70 -169 -70 -146 q -65 -214 -71 -193 q -43 -241 -59 -235 q -18 -241 -31 -247 q 3 -225 -5 -235 q 24 -189 15 -211 q 36 -142 33 -167 q 37 -92 39 -118 q 27 -45 35 -67 q 1 -7 18 -23 q -41 15 -16 9 q -52 -37 -46 -8 q -61 -89 -57 -66 z "},"g":{"ha":305,"x_min":-222,"x_max":319,"o":"m -41 100 q -37 164 -47 128 q -6 234 -27 201 q 43 290 14 267 q 101 318 71 314 q 123 318 112 319 q 143 312 134 316 q 158 299 152 307 q 166 279 164 291 q 168 246 168 265 q 166 207 168 227 q 163 169 165 188 q 158 139 161 151 q 228 182 192 161 q 305 225 264 203 q 312 226 309 227 q 317 223 315 225 q 319 217 319 220 q 316 213 319 214 q 236 167 275 192 q 152 112 196 141 q 134 43 146 80 q 108 -31 123 7 q 74 -107 93 -69 q 34 -181 55 -146 q -10 -248 13 -216 q -57 -305 -33 -280 q -93 -335 -72 -321 q -137 -354 -114 -349 q -179 -351 -159 -359 q -212 -316 -199 -343 q -220 -266 -222 -294 q -208 -211 -218 -239 q -184 -157 -199 -183 q -153 -112 -169 -131 q -92 -47 -127 -78 q -21 12 -58 -16 q 53 66 16 40 q 123 114 90 91 q 132 155 129 135 q 139 195 136 175 q 116 154 129 175 q 87 116 103 134 q 56 85 72 99 q 22 63 39 71 q -18 63 -1 52 q -41 100 -35 73 m -140 -129 q -164 -167 -150 -144 q -188 -215 -178 -190 q -202 -266 -198 -241 q -196 -311 -205 -292 q -170 -334 -186 -331 q -136 -329 -154 -337 q -103 -308 -119 -322 q -75 -284 -86 -295 q -13 -202 -41 -246 q 39 -111 16 -158 q 82 -14 63 -64 q 116 86 101 35 q 36 27 73 54 q -34 -26 -2 -1 q -93 -77 -66 -52 q -140 -129 -120 -102 m 24 83 q 60 113 41 92 q 96 161 79 134 q 127 217 114 188 q 144 273 139 247 q 142 289 146 282 q 132 300 139 296 q 118 304 126 303 q 101 301 110 304 q 57 270 79 291 q 18 222 35 248 q -11 166 1 195 q -22 112 -22 137 q -9 80 -22 88 q 24 83 3 72 z "},"h":{"ha":342,"x_min":-43,"x_max":355,"o":"m 250 95 q 212 78 227 79 q 186 86 196 77 q 169 111 175 95 q 160 145 163 127 q 155 180 156 163 q 152 209 154 197 q 143 224 151 223 q 129 218 135 226 q 97 174 114 200 q 64 122 80 149 q 33 71 48 96 q 5 29 18 46 q -21 16 -7 14 q -39 39 -35 19 q -40 95 -43 65 q -32 156 -38 125 q -17 216 -26 186 q -1 269 -9 245 q 88 463 31 371 q 220 635 146 555 q 260 663 241 656 q 294 666 280 671 q 315 642 308 660 q 317 591 322 623 q 296 530 312 562 q 255 461 280 497 q 201 392 231 426 q 139 326 171 357 q 78 270 108 296 q 21 229 47 245 q 10 186 16 210 q -1 137 4 162 q -10 89 -7 112 q -13 50 -14 67 q 17 92 1 66 q 50 146 33 118 q 84 199 67 173 q 120 239 102 224 q 137 248 129 246 q 155 248 146 250 q 170 240 163 246 q 180 222 176 233 q 185 189 184 207 q 188 154 186 171 q 192 123 190 137 q 202 102 195 109 q 219 96 208 95 q 249 113 231 98 q 275 138 262 124 q 301 169 288 153 q 324 199 313 184 q 342 224 335 214 q 347 226 344 226 q 352 224 350 226 q 354 219 354 222 q 353 214 355 216 q 302 147 327 180 q 250 95 276 114 m 29 254 q 106 320 65 282 q 183 400 146 358 q 250 485 220 442 q 295 568 280 528 q 306 615 307 593 q 296 647 306 637 q 268 651 286 657 q 226 615 250 645 q 174 545 201 586 q 120 456 146 504 q 69 357 93 409 q 29 254 46 305 z "},"i":{"ha":170,"x_min":-44,"x_max":182,"o":"m -1 249 q 8 256 2 255 q 19 255 14 258 q 27 248 24 253 q 27 235 30 242 q 2 180 13 204 q -14 138 -8 156 q -18 109 -19 120 q -10 93 -18 97 q 15 92 0 87 q 48 108 30 97 q 84 135 65 119 q 119 167 103 151 q 149 199 136 184 q 170 224 163 214 q 174 226 172 226 q 179 225 177 226 q 182 221 181 223 q 180 216 182 218 q 134 161 161 190 q 79 109 107 131 q 23 78 50 87 q -24 82 -3 69 q -40 107 -37 91 q -40 146 -44 124 q -26 194 -36 167 q -1 249 -16 220 m 68 359 q 77 340 78 350 q 69 321 75 329 q 53 309 63 313 q 37 312 44 305 q 31 328 31 316 q 35 349 31 339 q 49 364 40 359 q 68 359 57 368 z "},"j":{"ha":144,"x_min":-384,"x_max":158,"o":"m -38 114 q -29 156 -33 136 q -20 198 -24 177 q -15 240 -17 218 q -12 288 -12 263 q -6 302 -12 298 q 5 306 -1 307 q 17 301 12 306 q 22 286 22 296 q 14 213 21 253 q -3 139 6 173 q 67 182 31 161 q 144 225 103 203 q 151 226 148 227 q 156 223 154 225 q 158 217 158 220 q 155 213 158 214 q 74 167 114 192 q -9 112 35 141 q -39 17 -21 67 q -81 -82 -58 -33 q -131 -178 -104 -132 q -189 -263 -158 -224 q -244 -319 -215 -295 q -307 -348 -273 -342 q -343 -346 -329 -352 q -368 -326 -358 -339 q -380 -295 -377 -313 q -381 -257 -384 -277 q -357 -181 -376 -218 q -311 -110 -339 -144 q -248 -45 -283 -76 q -177 15 -214 -14 q -104 68 -140 43 q -38 114 -69 93 m -46 86 q -105 43 -73 65 q -170 -6 -137 20 q -235 -60 -203 -31 q -292 -119 -267 -88 q -337 -185 -318 -150 q -362 -258 -355 -220 q -363 -288 -365 -273 q -355 -314 -362 -303 q -335 -329 -348 -324 q -302 -326 -322 -333 q -253 -298 -276 -316 q -210 -255 -230 -279 q -115 -100 -154 -188 q -46 86 -76 -12 m 22 387 q 31 368 32 378 q 23 349 29 357 q 7 337 16 341 q -10 339 -3 333 q -16 356 -16 344 q -11 377 -16 367 q 2 391 -6 387 q 22 387 11 396 z "},"k":{"ha":323,"x_min":-108,"x_max":335,"o":"m -108 -104 q -85 28 -105 -44 q -37 172 -66 99 q 27 317 -8 246 q 99 450 63 388 q 169 560 135 512 q 228 635 203 608 q 250 653 239 646 q 271 660 262 659 q 287 656 281 660 q 295 641 294 651 q 287 583 299 614 q 254 519 275 552 q 206 453 233 486 q 151 391 179 420 q 98 337 124 361 q 55 297 73 313 q 29 241 41 269 q 5 185 17 214 q 64 212 35 195 q 120 247 93 228 q 169 285 146 265 q 207 320 191 304 q 216 322 212 324 q 223 316 220 320 q 228 306 226 312 q 225 297 229 301 q 181 257 207 278 q 125 218 155 236 q 63 184 95 199 q -3 162 30 169 l -5 157 q 16 134 6 146 q 36 113 26 123 q 57 96 46 103 q 82 84 68 88 q 146 88 112 75 q 214 124 181 101 q 276 176 247 148 q 323 226 305 204 q 327 227 325 228 q 332 224 330 226 q 335 219 334 222 q 333 213 335 216 q 304 179 322 197 q 266 141 287 160 q 221 105 245 122 q 172 76 197 88 q 122 60 147 65 q 75 62 97 56 q 26 88 49 69 q -14 133 3 107 q -55 7 -38 69 q -74 -101 -73 -54 q -79 -113 -74 -108 q -89 -119 -84 -118 q -100 -117 -95 -120 q -108 -104 -106 -114 m 233 615 q 161 500 201 569 q 81 351 121 431 q 134 406 107 376 q 185 466 161 435 q 229 528 209 497 q 261 586 249 558 q 273 622 270 606 q 274 643 277 637 q 261 643 271 649 q 233 615 250 637 z "},"l":{"ha":246,"x_min":-25,"x_max":322,"o":"m 246 224 q 249 226 247 226 q 254 225 252 226 q 257 222 256 224 q 256 217 258 220 q 234 177 246 199 q 207 130 222 154 q 176 83 192 106 q 140 40 159 60 q 101 6 122 20 q 58 -12 81 -7 q 15 -6 32 -18 q -11 27 -1 5 q -22 81 -20 50 q -23 145 -25 112 q -15 211 -21 178 q -1 269 -9 243 q 88 463 31 371 q 221 635 146 555 q 261 663 241 656 q 295 666 280 671 q 316 642 309 660 q 318 591 322 623 q 297 530 313 562 q 256 461 280 497 q 201 392 231 426 q 140 326 171 357 q 78 270 109 296 q 22 229 48 245 q 6 149 12 190 q 2 76 0 108 q 17 25 5 44 q 56 10 30 6 q 91 26 73 13 q 127 57 109 39 q 161 98 144 75 q 194 144 178 121 q 222 188 209 167 q 246 224 235 209 m 29 254 q 106 320 66 282 q 184 400 147 358 q 250 485 220 442 q 296 568 280 528 q 307 615 307 593 q 297 647 307 637 q 269 651 287 657 q 226 615 250 645 q 174 545 202 586 q 120 456 147 504 q 69 357 93 409 q 29 254 46 305 z "},"n":{"ha":313,"x_min":-66,"x_max":325,"o":"m -41 32 q -47 26 -43 28 q -55 26 -50 24 q -63 32 -59 27 q -66 44 -66 36 q -53 103 -62 71 q -33 170 -44 136 q -9 236 -21 203 q 16 297 4 269 q 26 309 19 306 q 37 309 32 312 q 45 300 43 306 q 44 284 48 293 q 30 252 37 271 q 14 210 22 233 q -3 163 5 188 q -18 112 -11 137 q 7 149 -7 131 q 36 185 22 168 q 66 216 51 202 q 93 239 80 231 q 110 247 101 245 q 127 247 118 249 q 141 239 135 245 q 150 222 148 233 q 155 189 154 207 q 157 154 156 171 q 161 123 158 137 q 170 102 164 109 q 187 96 176 95 q 217 113 199 98 q 244 138 230 124 q 270 169 258 153 q 294 199 283 184 q 313 224 305 214 q 317 226 315 226 q 322 225 320 226 q 324 221 324 223 q 323 216 325 218 q 297 182 309 199 q 271 148 284 164 q 245 118 258 131 q 218 95 231 104 q 179 77 195 78 q 154 85 164 76 q 138 110 144 94 q 129 145 132 127 q 125 180 126 163 q 122 209 124 197 q 116 222 121 220 q 105 221 111 224 q 68 188 88 210 q 26 139 47 166 q -13 83 5 112 q -41 32 -31 55 z "},"o":{"ha":273,"x_min":-45,"x_max":283,"o":"m -40 100 q -41 146 -45 120 q -28 196 -37 171 q -2 244 -18 221 q 34 282 14 267 q 78 304 54 298 q 127 302 101 310 q 144 300 137 307 q 153 282 150 293 q 156 257 156 270 q 154 235 156 243 q 182 222 165 226 q 216 218 199 218 q 248 220 233 217 q 273 226 263 222 q 281 223 278 229 q 277 214 283 218 q 249 205 265 207 q 215 203 233 202 q 180 207 197 203 q 149 218 163 211 q 129 171 141 195 q 100 127 116 148 q 64 89 84 105 q 23 63 44 72 q -18 63 -1 52 q -40 100 -35 73 m 116 290 q 64 271 88 290 q 20 225 39 252 q -10 168 1 199 q -21 112 -21 137 q -9 80 -21 88 q 25 83 4 72 q 53 105 39 90 q 81 139 68 120 q 106 180 95 158 q 125 225 118 203 l 128 232 q 112 257 117 241 q 116 290 107 273 z "},"p":{"ha":330,"x_min":-144,"x_max":336,"o":"m 94 105 q 131 140 112 120 q 167 184 150 161 q 116 169 140 177 q 73 150 91 161 q 42 125 52 139 q 33 102 33 112 q 37 90 33 95 q 50 86 41 86 q 69 90 58 86 q 94 105 80 95 m 330 226 q 336 221 335 227 q 331 214 336 216 q 281 207 315 212 q 207 194 248 202 q 161 129 188 159 q 104 82 133 99 q 56 66 78 66 q 26 76 37 66 q 16 102 16 86 q 27 133 16 117 q 63 163 38 150 q 118 186 87 175 q 182 204 149 197 q 205 250 196 227 q 214 295 214 273 q 210 320 214 307 q 198 334 207 329 q 178 339 190 339 q 167 338 173 339 q 154 333 161 337 q 122 311 140 326 q 85 274 104 296 q 46 227 65 253 q 10 173 26 201 q -71 -19 -39 82 q -129 -230 -103 -121 q -131 -235 -129 -233 q -137 -237 -134 -237 q -142 -235 -139 -237 q -144 -228 -144 -233 q -116 -74 -135 -151 q -69 79 -97 3 q -8 229 -42 154 q 65 375 27 303 q 84 390 74 390 q 97 381 93 390 q 95 360 101 371 q 74 317 85 338 q 54 273 64 295 q 101 320 77 299 q 148 351 126 341 q 180 358 165 358 q 214 348 199 358 q 234 322 229 338 q 239 292 239 309 q 233 253 239 273 q 218 212 227 233 q 284 223 254 220 q 330 226 314 227 z "},"q":{"ha":339,"x_min":-40,"x_max":350,"o":"m 81 303 q 100 306 89 305 q 123 305 112 307 q 144 299 134 303 q 158 284 153 294 q 177 321 167 303 q 196 358 186 339 q 203 364 199 363 q 211 364 207 366 q 217 358 215 363 q 216 348 219 354 q 187 282 201 314 q 162 217 174 250 q 136 149 149 184 q 110 78 124 115 q 157 123 130 101 q 215 164 184 145 q 278 200 246 184 q 339 226 309 216 q 345 225 343 227 q 349 221 348 224 q 348 215 350 218 q 343 212 347 212 q 309 198 329 207 q 267 175 289 188 q 223 147 246 163 q 180 116 200 132 q 142 85 159 100 q 114 56 125 69 q 99 39 107 48 q 88 20 91 31 q 116 -26 104 1 q 136 -85 129 -53 q 146 -153 144 -118 q 144 -220 148 -188 q 136 -263 142 -238 q 117 -310 129 -288 q 87 -347 105 -333 q 44 -358 69 -361 q 8 -334 19 -354 q -6 -288 -3 -314 q -6 -235 -9 -262 q -1 -190 -3 -207 q 29 -46 10 -117 q 75 95 48 24 q 52 77 63 84 q 29 63 40 69 q -12 63 5 52 q -35 100 -29 73 q -34 157 -40 125 q -11 220 -27 190 q 29 273 5 250 q 81 303 52 296 m 24 -201 q 18 -234 22 -212 q 14 -278 14 -255 q 21 -318 14 -300 q 48 -339 29 -336 q 81 -330 67 -343 q 104 -295 95 -316 q 118 -251 113 -274 q 124 -215 123 -229 q 125 -154 127 -186 q 117 -94 123 -122 q 102 -40 112 -65 q 81 1 93 -15 q 51 -94 65 -44 q 24 -201 37 -144 m 122 290 q 69 271 94 290 q 25 225 44 252 q -5 168 6 199 q -16 112 -16 137 q -3 80 -16 88 q 31 83 10 72 q 67 114 48 93 q 101 162 86 135 q 117 197 109 180 q 133 233 124 215 q 117 257 122 242 q 122 290 112 273 z "},"r":{"ha":200,"x_min":-23,"x_max":212,"o":"m -5 217 q -14 230 -13 222 q -11 247 -14 238 q -2 262 -8 255 q 10 272 3 269 q 19 274 14 274 q 28 272 24 273 q 34 267 32 270 q 35 258 36 263 q 33 251 35 254 q 30 244 31 247 q 28 238 28 241 q 32 231 29 235 q 37 225 35 228 q 40 219 39 223 q 41 210 41 216 q 37 197 40 205 q 5 113 14 145 q 12 72 -4 81 q 37 73 21 67 q 71 93 52 80 q 110 126 90 107 q 147 164 129 145 q 179 200 165 183 q 200 226 192 216 q 204 229 202 229 q 209 227 207 229 q 212 223 211 225 q 210 218 212 220 q 180 180 197 201 q 144 138 163 158 q 104 99 124 117 q 64 69 84 81 q 27 54 44 57 q -4 60 10 50 q -19 80 -15 67 q -22 111 -23 93 q -15 150 -21 129 q 1 194 -9 171 q 5 206 4 202 q 4 211 5 209 q 1 213 3 212 q -5 217 -1 214 z "},"s":{"ha":204,"x_min":-82,"x_max":212,"o":"m 204 226 q 210 222 209 228 q 207 215 212 217 q 126 186 171 203 q 39 144 81 169 q 50 118 45 131 q 56 91 54 105 q 55 64 58 78 q 44 35 53 50 q 27 12 37 22 q 5 -5 17 2 q -19 -17 -7 -13 q -45 -20 -32 -21 q -71 -7 -61 -18 q -81 24 -82 3 q -52 93 -77 62 q 9 147 -27 123 q -9 181 -1 163 q -15 218 -16 198 q 6 281 -14 250 q 58 326 25 312 q 74 329 67 331 q 86 321 82 326 q 91 310 90 316 q 90 299 93 303 q 87 295 90 297 q 82 293 85 293 q 78 295 80 293 q 77 300 75 297 q 76 306 78 303 q 70 306 73 309 q 37 268 51 290 q 21 220 23 245 q 23 190 20 205 q 33 161 27 176 q 119 201 74 185 q 204 226 165 217 m 26 48 q 34 70 33 59 q 34 91 36 81 q 28 111 33 101 q 18 131 24 121 q -33 87 -11 111 q -63 33 -54 63 q -62 7 -69 17 q -42 -3 -56 -3 q -23 2 -33 -3 q -5 13 -14 6 q 12 29 4 20 q 26 48 20 38 z "},"t":{"ha":248,"x_min":-186,"x_max":318,"o":"m 309 486 q 221 488 270 489 q 117 486 172 487 q 97 439 110 469 q 71 371 85 409 q 45 289 58 333 q 21 204 31 246 q 6 125 11 163 q 4 59 1 87 q 19 17 7 31 q 56 6 31 2 q 91 22 73 9 q 128 54 110 35 q 163 97 146 73 q 196 143 180 120 q 224 187 211 166 q 248 224 237 209 q 251 226 249 226 q 256 225 254 226 q 259 222 258 224 q 258 217 260 220 q 236 177 248 199 q 209 130 224 154 q 178 83 195 106 q 142 40 161 60 q 103 6 124 20 q 61 -12 83 -7 q 26 -11 40 -16 q 1 9 11 -5 q -14 42 -8 22 q -21 86 -19 62 q -17 183 -24 131 q 4 286 -10 234 q 37 389 18 339 q 73 484 55 440 q -12 481 29 483 q -86 476 -53 478 q -144 472 -120 473 q -177 469 -167 470 q -184 473 -182 469 q -186 483 -186 477 q -185 492 -186 488 q -180 497 -183 497 q -136 498 -163 497 q -74 500 -109 499 q 0 502 -40 501 q 82 505 39 503 q 89 522 84 509 q 101 549 95 534 q 116 579 108 564 q 131 608 124 595 q 145 628 139 621 q 156 633 152 635 q 164 625 160 631 q 170 611 168 620 q 171 591 172 602 q 165 569 171 581 q 149 541 158 557 q 129 505 140 524 q 226 505 181 505 q 309 503 272 505 q 316 500 314 503 q 318 494 318 497 q 316 489 318 491 q 309 486 314 486 z "},"u":{"ha":290,"x_min":-43,"x_max":301,"o":"m 120 233 q 130 241 124 239 q 141 240 136 242 q 149 232 146 237 q 148 219 152 226 q 112 121 121 158 q 120 75 103 85 q 144 74 130 70 q 173 90 157 79 q 205 118 189 101 q 238 153 222 135 q 267 191 254 172 q 290 226 281 210 q 294 229 292 229 q 298 227 297 229 q 301 223 300 226 q 299 218 301 220 q 256 152 281 185 q 205 95 231 118 q 152 61 178 71 q 106 65 127 51 q 87 100 90 76 q 91 156 84 124 q 63 115 77 133 q 35 86 49 97 q 6 74 20 75 q -23 82 -8 72 q -39 107 -36 91 q -39 146 -43 124 q -25 194 -35 167 q -1 249 -15 220 q 9 256 3 255 q 20 255 15 258 q 28 248 25 253 q 27 235 31 242 q 3 180 14 204 q -13 138 -7 156 q -18 109 -18 120 q -9 93 -17 97 q 22 97 5 84 q 57 133 39 110 q 90 184 74 156 q 120 233 107 212 z "},"v":{"ha":297,"x_min":-42,"x_max":307,"o":"m 301 213 q 273 204 288 207 q 241 201 257 201 q 209 205 224 201 q 182 219 193 209 q 167 240 173 227 q 164 272 162 253 q 136 218 151 246 q 104 164 120 190 q 70 115 87 137 q 36 79 53 93 q 4 59 20 64 q -23 63 -11 54 q -39 91 -36 71 q -38 136 -42 110 q -24 190 -35 161 q -1 248 -14 220 q 8 256 2 254 q 19 255 14 257 q 27 247 24 252 q 27 234 30 241 q 4 177 15 203 q -12 128 -6 150 q -17 93 -18 107 q -9 73 -17 78 q 12 78 -1 69 q 39 104 24 86 q 69 145 53 121 q 100 193 84 168 q 129 241 115 218 q 152 283 142 265 q 166 301 158 296 q 179 306 173 307 q 188 297 185 305 q 189 275 191 289 q 187 251 187 263 q 195 232 187 240 q 214 220 201 224 q 242 217 227 217 q 272 219 258 216 q 297 226 287 222 q 304 223 302 229 q 301 213 307 217 z "},"w":{"ha":382,"x_min":-31,"x_max":392,"o":"m 386 214 q 345 203 368 205 q 300 208 321 201 q 264 230 279 214 q 251 271 250 245 q 239 207 246 241 q 221 140 231 173 q 198 78 210 107 q 171 28 185 48 q 141 0 156 8 q 111 2 127 -7 q 95 25 101 7 q 87 67 89 44 q 85 115 84 90 q 90 154 86 139 q 72 126 83 141 q 50 97 62 111 q 27 74 39 84 q 4 64 15 65 q -15 72 -7 63 q -28 106 -24 82 q -30 144 -31 123 q -22 187 -28 165 q -6 230 -16 209 q 17 270 3 252 q 28 277 21 276 q 39 276 34 278 q 47 268 44 273 q 45 256 49 263 q 28 220 36 239 q 14 181 20 201 q 4 143 8 162 q 0 110 1 124 q 5 86 -1 89 q 22 92 12 83 q 46 118 33 101 q 70 154 58 135 q 92 191 82 173 q 107 220 102 209 q 119 232 111 229 q 134 233 127 235 q 146 226 141 232 q 148 213 150 221 q 128 151 137 184 q 116 89 120 118 q 115 39 113 61 q 125 14 116 18 q 144 20 134 9 q 164 54 154 32 q 184 105 174 76 q 204 166 195 135 q 221 228 214 198 q 235 283 229 258 q 247 296 239 292 q 261 299 254 300 q 272 293 267 299 q 274 276 276 287 q 281 241 271 254 q 308 222 291 228 q 345 218 325 217 q 382 226 365 220 q 389 223 387 229 q 386 214 392 218 z "},"x":{"ha":245,"x_min":-144,"x_max":258,"o":"m 188 321 q 195 318 194 322 q 195 309 197 314 q 190 301 194 304 q 184 303 187 299 q 148 276 169 296 q 104 230 128 257 q 54 168 80 202 q 1 99 28 134 q 5 72 1 84 q 16 56 9 61 q 46 57 27 50 q 88 79 65 64 q 135 115 110 95 q 181 156 159 135 q 219 196 202 178 q 245 226 237 215 q 250 229 247 229 q 255 227 253 229 q 258 222 257 225 q 256 217 258 220 q 221 174 242 197 q 177 128 201 150 q 129 85 154 105 q 80 52 104 65 q 35 36 56 39 q -1 43 14 33 q -20 68 -13 52 q -80 -16 -52 25 q -129 -88 -107 -56 q -134 -90 -131 -90 q -139 -87 -137 -89 q -143 -82 -142 -85 q -141 -76 -144 -79 q -89 7 -118 -38 q -27 97 -60 52 q -28 137 -30 116 q -22 178 -27 158 q -12 217 -18 199 q 1 247 -5 235 q 11 255 4 254 q 24 254 18 257 q 33 245 30 252 q 32 231 36 239 q 18 193 26 216 q 6 144 11 169 q 56 209 31 178 q 105 264 82 240 q 149 303 129 288 q 188 321 170 318 z "},"y":{"ha":298,"x_min":-229,"x_max":312,"o":"m 14 288 q 23 296 17 295 q 34 295 29 297 q 42 287 39 292 q 41 274 45 282 q 15 213 28 243 q -6 156 2 182 q -17 112 -15 130 q -10 88 -18 93 q 11 90 -1 83 q 38 114 24 98 q 67 151 52 129 q 95 197 82 173 q 120 244 109 220 q 139 286 132 267 q 144 297 142 292 q 151 305 146 302 q 168 305 158 310 q 177 287 177 301 q 168 214 175 254 q 152 140 161 174 q 221 184 185 163 q 298 226 257 205 q 305 228 302 229 q 310 224 308 226 q 312 219 312 222 q 309 214 312 216 q 229 168 269 193 q 146 114 189 143 q 115 19 133 69 q 73 -81 97 -31 q 23 -177 50 -131 q -35 -262 -4 -223 q -90 -317 -61 -294 q -152 -347 -119 -341 q -189 -345 -174 -351 q -213 -325 -204 -338 q -226 -293 -222 -312 q -226 -256 -229 -275 q -203 -180 -222 -216 q -156 -109 -184 -143 q -94 -44 -129 -75 q -22 16 -59 -12 q 50 69 14 44 q 116 116 86 94 q 130 179 124 148 q 140 243 137 209 q 102 169 124 205 q 58 109 81 133 q 14 74 36 84 q -25 76 -7 64 q -39 108 -38 85 q -33 163 -40 132 q -14 226 -27 193 q 14 288 -1 260 m 109 87 q 49 44 82 67 q -16 -4 17 21 q -81 -58 -49 -30 q -138 -118 -112 -86 q -182 -184 -164 -149 q -207 -257 -201 -219 q -209 -286 -210 -271 q -201 -312 -207 -301 q -181 -327 -194 -323 q -148 -324 -168 -331 q -99 -296 -122 -315 q -56 -254 -75 -278 q 39 -99 0 -187 q 109 87 78 -10 z "},"z":{"ha":318,"x_min":-212,"x_max":332,"o":"m 329 214 q 225 153 275 186 q 124 84 174 120 q 131 11 135 53 q 110 -77 126 -31 q 67 -169 93 -123 q 9 -253 41 -215 q -59 -318 -23 -291 q -130 -352 -95 -345 q -167 -349 -152 -356 q -193 -328 -183 -342 q -207 -295 -203 -314 q -209 -256 -212 -275 q -174 -164 -203 -209 q -104 -75 -146 -118 q -14 6 -63 -33 q 82 78 35 45 q 60 83 72 83 q 33 80 47 83 q 14 81 20 78 q 6 90 7 84 q 8 104 5 96 q 20 120 12 112 q 53 152 37 137 q 85 180 69 166 q 115 210 101 195 q 140 246 129 226 q 156 283 154 269 q 151 304 158 297 q 131 309 144 310 q 103 299 118 307 q 48 255 71 280 q 5 206 24 230 q -1 203 3 203 q -9 205 -5 203 q -13 211 -12 207 q -10 218 -14 214 q 12 241 1 229 q 36 267 23 254 q 63 291 48 280 q 97 314 78 303 q 139 323 120 325 q 170 307 159 320 q 182 274 182 295 q 167 228 182 253 q 137 190 153 207 q 103 159 121 174 q 67 131 86 145 q 32 99 49 116 q 76 106 56 108 q 110 97 96 105 q 209 165 159 133 q 318 226 260 196 q 325 228 322 229 q 330 224 328 226 q 332 219 332 222 q 329 214 332 216 m -132 -324 q -73 -289 -103 -314 q -17 -231 -44 -265 q 31 -159 9 -198 q 68 -80 53 -120 q 90 -3 83 -41 q 93 65 97 34 q 4 -2 50 34 q -82 -79 -41 -38 q -151 -164 -122 -120 q -188 -256 -180 -209 q -190 -286 -190 -271 q -183 -312 -189 -301 q -165 -327 -177 -322 q -132 -324 -152 -331 z "},"b":{"ha":305,"x_min":-56,"x_max":325,"o":"m -17 14 q -26 -1 -20 5 q -38 -10 -32 -7 q -50 -9 -45 -12 q -55 9 -55 -5 q -50 69 -56 33 q -35 141 -44 104 q -16 212 -26 178 q 2 269 -5 246 q 91 463 34 371 q 224 635 149 555 q 264 663 244 656 q 297 666 283 671 q 318 642 312 660 q 320 591 325 623 q 299 530 316 562 q 258 461 283 497 q 204 392 234 426 q 143 326 174 357 q 81 270 112 296 q 24 229 50 245 q 6 156 16 197 q -11 78 -3 116 q 17 127 1 102 q 51 173 33 152 q 88 213 69 195 q 124 240 107 231 q 158 250 144 250 q 184 241 173 250 q 200 217 194 233 q 205 183 205 202 q 263 211 237 200 q 305 226 289 222 q 313 223 312 229 q 307 216 314 217 q 263 196 290 209 q 204 163 236 182 q 194 101 203 135 q 170 35 186 67 q 132 -22 155 3 q 78 -59 109 -48 q 44 -64 58 -66 q 21 -53 29 -62 q 10 -29 12 -44 q 14 4 8 -14 q 40 52 22 29 q 81 96 58 75 q 130 136 103 117 q 182 170 156 154 q 182 197 184 183 q 173 221 180 211 q 155 233 167 231 q 128 226 144 236 q 93 196 112 218 q 54 145 73 174 q 15 82 34 116 q -17 14 -3 48 m 32 254 q 109 320 69 282 q 186 400 150 358 q 253 485 223 442 q 299 568 283 528 q 310 615 310 593 q 300 647 309 637 q 271 651 290 657 q 229 615 253 645 q 177 545 205 586 q 123 456 150 504 q 73 357 97 409 q 32 254 49 305 m 65 -41 q 106 -8 88 -30 q 138 39 124 14 q 162 94 152 65 q 178 147 171 122 q 131 114 154 131 q 88 78 107 97 q 53 41 68 60 q 32 5 39 22 q 26 -21 27 -10 q 30 -40 26 -33 q 43 -48 34 -47 q 65 -41 52 -49 z "},"A":{"ha":672,"x_min":-163,"x_max":662,"o":"m -150 109 q -158 110 -155 106 q -162 121 -161 114 q -162 134 -163 128 q -155 144 -160 141 q -36 187 -107 165 q 118 231 35 209 q 220 402 167 318 q 325 559 273 486 q 428 691 378 633 q 519 786 477 750 q 568 820 545 809 q 609 832 591 832 q 639 821 627 832 q 655 786 651 809 q 641 686 662 741 q 612 606 626 650 q 582 515 597 563 q 553 416 567 467 q 526 311 539 364 q 651 319 599 319 q 656 314 655 318 q 656 306 657 310 q 650 300 654 303 q 639 299 645 298 q 587 296 618 299 q 521 286 557 292 q 497 170 507 228 q 480 57 486 112 q 471 -48 473 3 q 472 -142 469 -99 q 471 -156 474 -150 q 464 -165 468 -162 q 454 -166 459 -167 q 447 -158 449 -165 q 454 55 441 -57 q 493 281 467 167 q 319 244 405 265 q 143 199 233 223 q 78 70 109 134 q 23 -54 48 5 q -21 -166 -2 -113 q -51 -261 -40 -218 q -60 -277 -53 -271 q -75 -283 -67 -282 q -88 -279 -82 -283 q -93 -264 -94 -274 q -69 -173 -86 -224 q -29 -64 -53 -122 q 27 57 -4 -6 q 93 186 58 120 q -47 145 17 165 q -150 109 -110 124 m 524 756 q 440 668 485 722 q 349 547 395 614 q 256 401 303 479 q 166 243 209 323 q 337 281 251 264 q 499 307 423 297 q 551 494 522 403 q 614 668 581 586 q 632 727 625 699 q 636 771 639 755 q 625 794 633 786 q 605 802 618 803 q 572 791 592 802 q 524 756 552 780 z "},"C":{"ha":609,"x_min":2,"x_max":622,"o":"m 473 324 q 464 313 470 316 q 453 311 458 310 q 445 317 448 312 q 447 330 443 322 q 523 489 494 419 q 567 612 552 559 q 583 702 582 665 q 574 763 584 739 q 548 799 565 787 q 508 811 531 810 q 459 806 486 813 q 407 785 433 799 q 325 728 367 765 q 244 644 284 691 q 169 540 205 597 q 106 425 134 484 q 62 305 79 365 q 41 188 44 245 q 56 50 35 107 q 114 -39 76 -7 q 201 -78 151 -71 q 304 -65 251 -84 q 395 -15 352 -47 q 477 57 439 17 q 549 140 516 97 q 609 226 582 184 q 617 227 612 231 q 620 218 622 224 q 586 159 606 190 q 540 97 565 129 q 486 36 515 66 q 427 -19 458 7 q 365 -64 397 -44 q 303 -95 333 -84 q 187 -106 242 -116 q 90 -57 131 -96 q 26 45 49 -19 q 5 193 2 108 q 23 316 7 253 q 68 441 40 380 q 133 560 96 503 q 214 666 171 618 q 303 751 256 714 q 396 809 350 788 q 453 829 423 822 q 509 835 482 836 q 559 822 537 833 q 596 787 582 811 q 613 724 610 762 q 602 629 616 686 q 558 497 589 573 q 473 324 527 422 z "},"D":{"ha":720,"x_min":-20,"x_max":722,"o":"m 565 56 q 571 50 569 54 q 570 44 572 46 q 566 39 569 41 q 558 39 562 37 q 526 55 543 48 q 493 67 509 61 q 383 -26 440 13 q 271 -84 326 -65 q 201 -100 235 -97 q 142 -96 167 -103 q 101 -72 116 -89 q 84 -27 85 -54 q 96 12 83 -8 q 135 50 110 32 q 195 83 160 69 q 273 104 230 97 q 364 110 316 112 q 465 94 413 107 q 540 187 505 137 q 603 291 575 237 q 651 399 631 344 q 678 504 670 453 q 686 600 687 558 q 674 673 684 642 q 644 723 663 703 q 600 752 626 743 q 528 759 563 766 q 460 730 493 752 q 394 672 426 707 q 333 594 363 637 q 275 503 303 551 q 221 405 247 454 q 152 262 186 339 q 91 108 118 186 q 45 -41 63 31 q 21 -173 26 -114 q 14 -189 20 -183 q 1 -197 8 -196 q -13 -195 -7 -199 q -20 -181 -19 -191 q -9 -81 -19 -138 q 20 41 2 -24 q 62 179 38 107 q 115 325 86 251 q 177 474 144 400 q 242 616 209 548 q 310 746 276 685 q 376 857 344 808 q 386 866 381 864 q 396 865 392 867 q 402 858 400 862 q 401 848 403 853 q 347 761 374 809 q 294 659 320 713 q 242 545 267 605 q 192 424 216 486 q 249 526 218 475 q 312 621 279 577 q 380 702 345 666 q 453 761 416 738 q 528 790 490 784 q 607 781 567 796 q 661 746 637 769 q 699 688 684 723 q 717 605 713 652 q 713 496 722 557 q 689 387 707 443 q 644 278 671 332 q 582 174 617 224 q 507 81 548 124 q 536 69 521 75 q 565 56 550 63 m 263 -59 q 356 -6 308 -41 q 450 78 403 30 q 355 87 402 88 q 267 79 308 87 q 193 56 226 71 q 139 24 160 41 q 111 -13 118 6 q 116 -50 104 -33 q 169 -79 131 -76 q 263 -59 207 -82 z "},"E":{"ha":703,"x_min":-27,"x_max":717,"o":"m 148 437 q 174 421 156 426 q 215 415 192 416 q 265 416 239 414 q 317 419 292 418 q 363 421 342 421 q 397 417 384 421 q 401 412 399 416 q 404 404 403 409 q 402 395 404 399 q 394 389 399 391 q 331 350 367 377 q 257 288 295 324 q 182 208 219 252 q 113 118 144 165 q 60 23 82 71 q 30 -69 37 -24 q 36 -151 22 -116 q 79 -205 49 -186 q 153 -225 109 -224 q 250 -205 197 -226 q 380 -131 316 -178 q 503 -24 444 -83 q 613 100 562 35 q 703 226 664 165 q 712 227 707 231 q 714 218 717 224 q 663 132 694 178 q 596 41 633 87 q 516 -47 558 -4 q 430 -127 473 -90 q 342 -191 386 -164 q 259 -233 299 -219 q 134 -253 190 -258 q 41 -222 78 -248 q -12 -151 3 -195 q -15 -52 -27 -107 q 21 43 -4 -6 q 79 138 46 91 q 150 228 112 185 q 227 304 189 270 q 300 363 265 339 q 360 394 335 386 q 323 386 346 390 q 273 380 300 382 q 220 380 247 378 q 170 387 192 381 q 132 407 148 394 q 113 441 116 420 q 118 497 110 467 q 146 559 127 527 q 192 625 165 592 q 252 688 219 658 q 320 746 284 719 q 394 793 356 773 q 460 821 424 809 q 531 837 496 833 q 598 835 566 841 q 650 808 629 828 q 678 753 671 788 q 673 663 686 718 q 630 538 657 600 q 564 413 603 475 q 553 402 560 405 q 542 400 547 399 q 535 406 537 401 q 537 419 533 411 q 599 537 571 473 q 642 667 626 601 q 647 742 652 711 q 626 789 642 772 q 587 813 611 807 q 534 817 562 819 q 476 804 506 814 q 418 777 446 793 q 339 725 377 755 q 266 663 300 696 q 206 597 233 631 q 163 533 179 563 q 141 478 146 503 q 148 437 137 453 z "},"F":{"ha":450,"x_min":-102,"x_max":843,"o":"m -44 686 q -72 691 -58 686 q -94 705 -86 696 q -99 722 -102 713 q -74 737 -96 730 q 5 756 -40 747 q 103 771 50 765 q 213 782 155 777 q 331 790 271 786 q 352 824 341 807 q 373 857 363 841 q 383 866 377 864 q 392 865 388 867 q 398 858 397 862 q 397 848 400 853 q 379 821 388 835 q 361 791 371 807 q 503 796 433 794 q 636 797 573 797 q 751 797 699 798 q 837 797 803 797 q 842 792 841 796 q 842 785 843 788 q 836 778 841 781 q 826 777 832 776 q 744 776 796 777 q 628 771 693 774 q 489 765 563 769 q 340 755 416 760 q 249 569 294 671 q 164 360 204 467 q 298 376 230 371 q 435 382 365 382 q 440 376 439 380 q 439 369 441 373 q 434 363 438 365 q 423 362 429 360 q 280 354 346 360 q 154 332 214 347 q 105 189 127 260 q 65 53 82 118 q 35 -70 47 -12 q 18 -173 22 -127 q 11 -189 17 -183 q -3 -197 5 -196 q -16 -195 -10 -199 q -23 -181 -22 -191 q -12 -82 -22 -138 q 16 38 -1 -27 q 57 175 33 103 q 110 320 81 246 q 53 299 81 310 q -2 275 26 288 q -10 276 -7 272 q -14 287 -13 280 q -13 300 -15 294 q -7 309 -12 307 q 56 333 24 323 q 122 351 88 343 l 122 352 q 159 480 147 427 q 173 569 171 533 q 168 626 175 605 q 147 658 161 647 q 111 673 132 669 q 66 678 90 677 q 13 679 41 679 q -44 686 -15 680 m 175 480 q 242 623 208 554 q 309 752 275 692 q 129 735 215 745 q -20 712 44 725 q 42 704 11 707 q 99 695 73 701 q 147 676 126 688 q 179 639 168 663 q 190 576 190 615 q 175 480 190 537 z "},"G":{"ha":621,"x_min":3,"x_max":635,"o":"m 435 124 q 451 184 443 155 q 463 243 458 212 q 328 118 392 163 q 212 57 265 73 q 118 52 158 41 q 50 95 77 63 q 14 176 24 127 q 12 288 3 226 q 48 423 20 351 q 128 571 77 495 q 249 715 183 652 q 382 807 314 777 q 445 828 412 821 q 507 832 477 835 q 559 812 536 828 q 592 763 582 796 q 597 697 601 736 q 579 614 592 658 q 545 523 566 569 q 501 433 525 476 q 451 355 477 390 q 402 297 426 319 q 392 292 397 292 q 384 296 387 292 q 383 306 382 300 q 390 318 384 312 q 439 381 414 344 q 487 459 465 417 q 528 544 510 501 q 557 630 547 588 q 569 707 568 671 q 558 769 570 743 q 530 799 548 789 q 491 809 513 809 q 443 803 469 810 q 393 783 418 796 q 333 743 363 767 q 272 688 302 719 q 213 620 241 657 q 158 541 184 582 q 82 395 109 464 q 49 269 56 326 q 53 171 42 213 q 90 106 64 129 q 155 80 116 82 q 243 99 194 77 q 349 170 292 121 q 469 299 407 219 q 476 312 471 308 q 488 315 482 316 q 499 308 494 314 q 503 293 504 303 q 499 258 502 277 q 491 221 495 240 q 481 183 486 202 q 471 148 475 164 q 542 188 505 169 q 621 226 579 207 q 628 228 625 229 q 634 224 632 226 q 635 218 635 221 q 632 214 635 216 q 549 171 590 195 q 463 121 508 148 q 429 27 449 77 q 384 -71 409 -22 q 331 -166 360 -120 q 269 -249 302 -212 q 210 -300 242 -280 q 144 -324 178 -320 q 107 -320 122 -327 q 83 -299 92 -313 q 73 -267 75 -286 q 74 -229 71 -249 q 101 -154 81 -190 q 151 -86 122 -118 q 217 -24 181 -53 q 291 32 253 5 q 366 82 329 58 q 435 124 403 105 m 426 97 q 364 56 397 78 q 297 12 331 35 q 230 -39 263 -12 q 169 -96 197 -66 q 121 -160 141 -126 q 93 -232 101 -194 q 90 -261 90 -246 q 97 -287 91 -276 q 116 -303 103 -298 q 150 -302 129 -308 q 199 -276 175 -294 q 245 -236 223 -259 q 299 -166 274 -204 q 347 -85 324 -128 q 388 3 369 -43 q 426 97 408 49 z "},"H":{"ha":839,"x_min":0,"x_max":913,"o":"m 34 262 q 12 266 20 262 q 2 275 3 270 q 5 287 0 281 q 22 297 10 293 q 89 315 52 307 q 169 330 126 323 q 259 341 212 336 q 355 350 306 346 q 414 491 383 421 q 477 626 446 561 q 542 750 509 692 q 605 855 575 808 q 616 864 610 862 q 625 863 621 865 q 631 856 629 860 q 630 846 633 851 q 569 746 600 802 q 508 626 539 690 q 450 493 478 562 q 394 353 421 424 q 547 360 472 358 q 688 364 622 363 q 782 566 731 465 q 884 757 832 666 q 894 769 888 766 q 905 769 901 771 q 912 761 910 767 q 909 749 913 756 q 813 563 860 661 q 728 365 767 465 l 828 365 q 834 359 833 363 q 833 352 835 356 q 827 346 832 348 q 817 345 823 343 l 719 342 q 675 222 695 282 q 639 108 655 163 q 613 2 624 52 q 597 -92 602 -49 q 590 -108 597 -102 q 577 -116 584 -115 q 563 -114 569 -118 q 556 -100 557 -110 q 566 -9 557 -58 q 592 98 575 41 q 630 216 608 154 q 678 341 652 278 q 538 333 614 337 q 384 321 462 329 q 336 180 358 250 q 296 47 314 111 q 267 -74 279 -18 q 250 -175 255 -130 q 243 -191 250 -185 q 230 -199 237 -198 q 216 -197 222 -201 q 209 -183 210 -193 q 216 -112 210 -151 q 232 -27 222 -72 q 257 68 243 18 q 290 171 272 118 q 274 215 286 200 q 244 237 263 230 q 202 244 226 243 q 150 246 178 245 q 93 249 123 246 q 34 262 63 252 m 298 197 q 319 256 308 226 q 342 317 331 286 q 198 299 267 309 q 77 276 130 289 q 116 270 95 271 q 159 267 137 269 q 203 263 182 266 q 244 253 225 261 q 277 232 263 246 q 298 197 291 219 z "},"I":{"ha":389,"x_min":-32,"x_max":696,"o":"m -20 -152 q -28 -150 -25 -154 q -31 -139 -31 -146 q -30 -125 -32 -132 q -23 -117 -28 -119 q 53 -101 17 -107 q 123 -92 88 -95 q 140 -1 129 -50 q 166 100 151 47 q 198 208 180 152 q 237 321 216 264 q 279 471 265 410 q 293 571 292 532 q 284 632 295 611 q 256 663 274 653 q 212 674 237 673 q 157 677 186 676 q 95 680 127 677 q 31 694 63 683 q 10 700 15 696 q 6 710 5 705 q 13 721 7 716 q 27 729 19 726 q 125 752 71 743 q 237 768 178 762 q 356 777 295 774 q 475 783 416 781 q 587 785 533 785 q 687 786 641 786 q 695 779 696 786 q 685 772 694 772 q 585 769 643 771 q 460 762 526 767 q 394 592 420 658 q 351 486 368 525 q 326 429 335 446 q 314 407 318 412 q 308 403 309 401 q 305 403 307 405 q 299 392 303 402 q 284 354 295 382 q 203 116 238 231 q 150 -90 167 1 q 233 -89 191 -87 q 322 -100 274 -92 q 327 -105 326 -102 q 326 -110 328 -107 q 320 -114 324 -113 q 309 -114 316 -115 q 222 -107 261 -107 q 147 -111 184 -106 q 146 -120 146 -116 q 140 -133 144 -128 q 131 -139 136 -137 q 123 -137 127 -140 q 119 -124 119 -133 q 119 -119 119 -121 q 120 -115 120 -117 q 54 -130 88 -120 q -20 -152 20 -139 m 429 760 q 338 752 384 756 q 249 741 292 747 q 164 727 205 735 q 88 711 123 720 q 151 703 120 705 q 211 693 183 700 q 261 674 239 687 q 295 637 283 662 q 308 573 307 613 q 295 473 309 533 q 360 624 326 552 q 429 760 394 696 z "},"J":{"ha":561,"x_min":-1,"x_max":571,"o":"m 17 184 q 36 340 20 266 q 79 477 52 414 q 139 593 105 541 q 208 685 172 645 q 282 752 245 725 q 352 789 319 778 q 411 795 384 800 q 453 767 437 790 q 486 660 482 726 q 476 517 490 595 q 433 353 462 439 q 367 186 404 268 q 458 209 409 199 q 561 226 506 219 q 568 225 565 227 q 570 221 570 224 q 569 216 571 218 q 564 212 567 213 q 454 191 505 203 q 356 163 402 178 q 292 43 326 100 q 225 -62 259 -15 q 158 -142 191 -109 q 96 -192 125 -176 q 43 -204 65 -209 q 10 -178 20 -199 q 1 -124 -1 -157 q 22 -54 3 -92 q 61 6 37 -24 q 120 65 85 36 q 204 122 156 95 q 316 171 253 149 q 382 329 352 248 q 428 485 411 409 q 448 625 446 560 q 435 738 451 691 q 385 774 420 773 q 308 748 351 775 q 219 667 265 720 q 135 540 173 614 q 71 376 97 467 q 43 184 45 286 q 39 171 43 175 q 30 166 35 167 q 21 170 25 166 q 17 184 17 174 m 97 -166 q 150 -110 124 -143 q 203 -37 177 -78 q 254 50 229 3 q 304 146 280 96 q 164 73 222 114 q 72 -11 106 32 q 27 -94 38 -53 q 28 -167 16 -135 q 54 -187 35 -187 q 97 -166 72 -187 z "},"K":{"ha":459,"x_min":-16,"x_max":655,"o":"m -10 182 q 37 201 12 188 q 92 234 63 214 q 132 367 110 299 q 179 499 154 434 q 229 626 203 565 q 281 742 254 688 q 313 800 297 781 q 339 820 329 819 q 354 805 350 821 q 350 760 358 790 q 320 671 340 718 q 278 578 301 624 q 230 488 254 532 q 184 409 205 445 q 164 341 173 375 q 144 273 154 307 q 234 350 188 308 q 327 437 281 392 q 419 526 374 482 q 504 609 464 571 q 577 678 544 648 q 635 725 611 709 q 643 730 639 730 q 651 729 648 731 q 654 724 654 727 q 652 716 655 720 q 585 659 622 694 q 504 579 547 623 q 414 486 461 535 q 319 389 367 437 q 224 298 271 341 q 132 220 176 254 q 200 194 172 209 q 249 157 227 178 q 288 114 270 137 q 326 66 305 90 q 372 16 346 41 q 435 -33 397 -9 q 436 -40 437 -36 q 432 -46 435 -44 q 424 -48 429 -48 q 414 -44 419 -48 q 359 -3 383 -24 q 315 41 335 19 q 274 86 294 64 q 232 127 254 107 q 184 162 210 146 q 122 187 157 177 q 80 -13 96 80 q 61 -175 64 -107 q 55 -191 61 -185 q 43 -199 50 -198 q 29 -197 35 -201 q 21 -183 22 -193 q 22 -110 19 -150 q 33 -22 26 -69 q 52 77 41 25 q 78 183 63 129 q 40 163 58 171 q 5 151 22 155 q -5 155 0 150 q -13 166 -10 160 q -16 177 -16 171 q -10 182 -16 182 m 309 739 q 259 622 283 684 q 212 494 235 560 q 247 559 229 526 q 280 624 264 591 q 309 691 296 656 q 333 763 323 725 q 340 790 338 781 q 339 797 342 799 q 330 782 337 796 q 309 739 322 768 z "},"L":{"ha":286,"x_min":-1,"x_max":369,"o":"m 118 -110 q 23 -98 48 -124 q 10 3 -1 -71 q 35 128 20 60 q 69 271 50 197 q 113 421 89 345 q 164 571 137 498 q 221 711 191 644 q 282 833 250 778 q 295 847 288 843 q 306 849 301 851 q 314 841 312 847 q 312 826 316 835 q 249 658 274 727 q 206 542 223 589 q 180 467 190 495 q 166 421 171 439 q 158 393 161 403 q 153 371 156 382 q 145 345 150 360 q 129 301 139 329 q 101 221 112 255 q 80 157 89 187 q 64 96 71 127 q 46 27 56 66 q 33 -27 37 -5 q 34 -61 29 -48 q 56 -79 39 -74 q 107 -80 73 -83 q 163 -73 138 -76 q 215 -67 188 -69 q 277 -64 243 -65 q 360 -64 311 -63 q 368 -71 369 -64 q 358 -78 367 -78 q 284 -82 316 -79 q 224 -89 252 -84 q 172 -99 197 -93 q 118 -110 146 -104 z "},"M":{"ha":994,"x_min":-3,"x_max":1007,"o":"m 316 801 q 326 809 320 806 q 337 811 332 811 q 345 806 342 810 q 343 795 347 803 q 245 589 290 698 q 157 358 200 481 q 225 502 188 431 q 307 637 262 573 q 338 679 320 656 q 377 726 356 703 q 422 771 398 750 q 470 807 446 792 q 521 827 495 822 q 572 825 547 833 q 599 808 587 820 q 615 776 610 795 q 616 730 620 756 q 598 672 612 705 q 575 619 590 654 q 541 541 560 584 q 503 450 523 498 q 465 357 483 402 q 432 274 447 312 q 409 213 417 236 q 490 358 451 289 q 565 486 528 428 q 633 590 601 545 q 696 665 666 636 q 754 703 726 693 q 805 701 781 713 q 832 671 824 690 q 838 624 840 651 q 828 563 837 597 q 806 493 819 530 q 776 417 792 456 q 744 339 760 377 q 708 248 724 292 q 682 165 691 203 q 673 98 673 127 q 690 53 674 69 q 742 27 713 29 q 799 37 770 24 q 858 73 828 50 q 913 124 887 97 q 960 179 939 151 q 994 226 981 206 q 1002 227 997 231 q 1005 218 1007 224 q 971 163 992 193 q 922 103 950 132 q 863 50 894 74 q 799 14 831 27 q 733 4 766 2 q 672 31 701 7 q 641 87 646 52 q 645 165 637 122 q 672 258 654 209 q 711 358 691 307 q 756 465 734 413 q 791 561 777 518 q 805 635 804 604 q 789 677 807 666 q 746 669 773 688 q 689 610 720 650 q 623 516 658 570 q 554 403 588 461 q 489 287 520 344 q 434 183 458 229 q 397 108 411 137 q 382 78 383 80 q 375 69 381 73 q 364 64 370 65 q 352 66 358 63 q 346 75 347 68 q 350 137 341 95 q 374 232 358 178 q 413 346 390 285 q 460 467 435 407 q 508 581 484 526 q 553 675 533 635 q 581 762 581 730 q 565 800 582 794 q 525 800 546 807 q 481 777 503 793 q 436 740 458 762 q 393 694 414 718 q 357 649 373 671 q 330 612 341 627 q 248 478 286 550 q 177 333 209 407 q 140 250 159 293 q 104 161 121 206 q 73 69 87 116 q 50 -22 58 23 q 43 -63 46 -44 q 38 -100 39 -82 q 31 -117 37 -110 q 18 -124 25 -123 q 4 -122 10 -126 q -3 -108 -2 -118 q 11 10 -2 -58 q 47 154 24 77 q 99 316 69 231 q 164 484 129 400 q 238 649 199 568 q 316 801 277 730 z "},"N":{"ha":663,"x_min":-64,"x_max":664,"o":"m 354 652 q 393 692 371 672 q 439 731 415 713 q 489 763 463 750 q 539 784 514 777 q 597 786 573 792 q 636 763 621 780 q 658 721 652 747 q 661 663 664 695 q 645 564 657 613 q 619 467 634 516 q 587 369 604 418 q 556 270 571 320 q 538 205 548 242 q 521 129 528 169 q 510 47 514 88 q 510 -33 506 5 q 528 -103 514 -71 q 569 -156 541 -135 q 569 -164 573 -159 q 560 -166 565 -169 q 510 -120 528 -149 q 484 -54 492 -91 q 476 24 475 -18 q 483 110 477 67 q 498 196 488 153 q 518 275 508 238 q 549 379 533 325 q 581 485 565 432 q 608 589 596 538 q 625 686 620 640 q 623 738 629 720 q 603 763 617 757 q 571 766 590 770 q 530 752 552 762 q 485 726 508 741 q 441 693 463 710 q 402 659 420 676 q 373 630 384 643 q 293 528 331 582 q 224 426 255 475 q 173 340 194 377 q 144 289 152 303 q 102 209 124 251 q 60 125 80 168 q 22 37 39 82 q -7 -50 5 -7 q -17 -89 -12 -71 q -24 -124 -21 -107 q -32 -141 -26 -135 q -45 -148 -38 -147 q -58 -146 -52 -150 q -64 -133 -64 -142 q -39 -18 -58 -84 q 9 124 -20 48 q 75 284 38 201 q 155 450 113 367 q 242 612 197 533 q 331 759 287 691 q 341 767 335 764 q 352 769 347 769 q 358 765 356 769 q 356 754 360 761 q 297 655 326 708 q 238 546 267 603 q 181 431 209 490 q 127 314 152 372 q 162 374 139 335 q 213 460 184 413 q 278 557 242 507 q 354 652 314 608 z "},"O":{"ha":631,"x_min":8,"x_max":637,"o":"m 10 125 q 16 222 8 169 q 40 331 24 275 q 80 440 56 386 q 133 544 103 495 q 196 632 162 592 q 266 696 229 671 q 353 770 307 741 q 443 809 399 799 q 525 810 487 820 q 589 770 564 801 q 628 672 620 732 q 629 541 637 613 q 598 391 621 469 q 541 238 575 313 q 467 96 508 163 q 382 -19 426 29 q 300 -88 342 -63 q 217 -119 258 -113 q 140 -112 177 -124 q 76 -68 104 -99 q 31 12 48 -37 q 10 125 13 60 m 170 230 q 168 219 171 223 q 160 215 165 215 q 150 217 155 214 q 144 227 146 220 q 134 345 133 289 q 145 452 135 401 q 109 365 125 409 q 82 278 93 321 q 65 194 71 235 q 60 119 59 154 q 67 9 55 53 q 102 -59 79 -35 q 158 -90 126 -84 q 225 -86 190 -96 q 296 -53 260 -77 q 363 7 331 -29 q 440 116 402 53 q 510 248 478 178 q 565 391 541 318 q 598 531 588 465 q 602 653 607 597 q 571 743 597 708 q 519 786 549 775 q 454 790 488 796 q 385 761 420 783 q 316 704 349 739 q 318 692 319 699 q 309 680 316 686 q 284 659 296 671 q 259 634 271 648 q 211 547 233 594 q 177 448 190 500 q 162 341 165 397 q 170 230 160 286 z "},"P":{"ha":577,"x_min":-24,"x_max":590,"o":"m 247 85 q 204 91 224 84 q 171 113 185 99 q 150 154 153 133 q 153 198 146 176 q 176 241 161 220 q 210 281 191 263 q 249 313 229 299 q 286 337 269 328 q 342 363 312 352 q 406 379 372 374 q 477 380 439 384 q 554 360 514 376 q 560 354 559 358 q 560 347 562 351 q 555 341 559 343 q 548 341 552 339 q 475 359 511 356 q 408 358 440 363 q 349 343 377 354 q 299 320 321 332 q 270 301 286 313 q 237 273 254 289 q 205 239 220 258 q 182 202 190 221 q 174 165 173 184 q 188 130 174 146 q 211 115 197 120 q 243 111 225 110 q 310 137 274 114 q 382 200 347 161 q 448 291 417 239 q 501 404 480 343 q 534 518 520 461 q 552 623 548 575 q 549 706 556 671 q 520 754 542 741 q 473 764 499 768 q 421 742 448 760 q 367 695 394 724 q 315 630 339 667 q 264 547 288 591 q 218 459 239 503 q 178 374 197 416 q 147 298 160 333 q 100 164 123 237 q 58 19 77 91 q 29 -119 40 -53 q 18 -233 18 -185 q 12 -250 18 -243 q -1 -258 6 -256 q -15 -256 -9 -260 q -22 -243 -22 -253 q -16 -142 -24 -200 q 6 -15 -9 -84 q 41 129 20 53 q 87 283 62 205 q 141 438 112 360 q 200 589 169 516 q 261 725 230 661 q 321 840 291 789 q 331 849 325 847 q 340 849 336 851 q 347 841 345 846 q 346 832 349 837 q 325 790 337 817 q 298 730 312 763 q 268 659 284 696 q 239 586 253 622 q 212 519 224 550 q 191 468 200 488 q 229 536 208 497 q 276 615 250 575 q 330 691 301 654 q 391 753 359 728 q 456 788 422 778 q 526 783 490 797 q 561 753 548 774 q 583 703 575 733 q 590 636 590 673 q 584 559 590 599 q 565 475 577 518 q 535 390 553 432 q 476 278 511 332 q 403 183 442 224 q 324 114 365 141 q 247 85 284 88 z "},"Q":{"ha":718,"x_min":12,"x_max":727,"o":"m 677 -153 q 686 -161 684 -155 q 685 -173 688 -167 q 676 -183 682 -179 q 663 -184 671 -187 q 499 -124 580 -162 q 341 -39 418 -86 q 263 -81 302 -65 q 188 -101 224 -97 q 122 -95 153 -105 q 68 -55 92 -84 q 30 23 45 -26 q 12 144 16 71 q 18 228 12 182 q 35 322 23 273 q 64 418 46 370 q 105 509 81 466 q 127 528 115 525 q 146 526 138 532 q 156 507 154 520 q 148 479 158 494 q 111 390 128 436 q 83 300 95 345 q 65 214 71 256 q 59 137 58 172 q 87 2 64 49 q 145 -61 110 -46 q 223 -63 180 -75 q 312 -20 266 -51 q 233 32 271 5 q 158 85 195 58 q 157 93 156 89 q 162 98 158 96 q 170 100 165 100 q 180 95 175 99 q 252 46 212 71 q 336 -3 291 21 q 405 56 370 22 q 474 131 440 90 q 539 218 507 172 q 596 314 570 265 q 642 413 622 363 q 674 511 662 463 q 684 576 681 541 q 684 646 687 611 q 671 713 681 682 q 643 768 662 745 q 597 804 625 792 q 530 813 569 817 q 441 785 488 809 q 350 721 394 760 q 267 628 306 681 q 203 514 229 575 q 167 385 177 452 q 169 248 156 317 q 167 237 170 241 q 159 232 164 233 q 150 235 154 232 q 144 245 145 237 q 138 407 128 331 q 178 548 149 484 q 250 665 207 613 q 342 753 292 716 q 443 810 391 790 q 541 834 494 831 q 615 822 584 836 q 668 784 646 809 q 703 725 690 758 q 722 654 716 691 q 725 578 727 616 q 716 505 724 539 q 686 404 705 455 q 639 303 666 352 q 581 207 613 254 q 514 118 549 160 q 441 41 478 76 q 367 -21 404 5 q 445 -61 405 -41 q 524 -98 485 -81 q 602 -130 564 -116 q 677 -153 641 -144 z "},"R":{"ha":677,"x_min":-12,"x_max":718,"o":"m -12 -141 q 23 40 -1 -61 q 83 248 48 140 q 53 269 68 257 q 52 277 50 273 q 56 282 53 280 q 65 284 60 284 q 74 279 69 284 l 90 268 q 144 420 115 344 q 202 568 172 497 q 264 702 233 639 q 325 818 295 766 q 335 827 329 825 q 345 826 340 828 q 351 819 349 824 q 350 809 353 814 q 301 720 326 769 q 253 614 277 670 q 206 498 229 558 q 163 374 184 437 q 203 462 182 418 q 248 549 224 507 q 298 629 271 590 q 352 699 324 667 q 438 766 391 741 q 533 798 486 792 q 602 794 571 803 q 656 768 633 786 q 693 723 679 750 q 712 665 707 696 q 713 599 718 633 q 694 531 709 565 q 660 466 680 497 q 617 409 640 435 q 520 322 574 361 q 404 258 466 283 q 276 225 342 233 q 142 233 209 218 q 212 190 173 214 q 294 142 251 167 q 382 94 337 118 q 472 49 428 70 q 556 12 516 29 q 631 -13 597 -4 q 643 -21 640 -15 q 645 -34 647 -28 q 635 -44 643 -40 q 617 -44 628 -48 q 537 -17 579 -34 q 452 21 495 0 q 364 68 408 43 q 279 118 320 93 q 198 169 237 144 q 127 216 160 194 q 91 131 106 176 q 67 41 77 86 q 49 -48 56 -5 q 34 -129 41 -92 q 27 -146 34 -139 q 12 -155 20 -153 q -3 -154 4 -157 q -12 -141 -11 -151 m 592 432 q 632 484 614 456 q 661 543 650 512 q 674 595 671 567 q 674 651 677 623 q 661 703 671 678 q 633 745 651 728 q 590 771 616 763 q 530 773 564 779 q 442 737 487 766 q 360 660 398 707 q 298 570 327 620 q 241 466 268 520 q 190 358 214 412 q 146 256 167 304 q 269 250 207 242 q 389 283 331 258 q 499 347 447 308 q 592 432 550 385 z "},"S":{"ha":599,"x_min":-31,"x_max":633,"o":"m 405 475 q 497 549 460 514 q 557 616 535 584 q 590 674 580 647 q 599 723 600 701 q 586 768 598 751 q 555 794 574 785 q 513 805 537 803 q 465 805 490 807 q 418 798 441 803 q 377 788 394 793 q 275 743 322 771 q 196 682 229 716 q 146 608 163 648 q 132 528 129 569 q 148 468 134 499 q 184 408 162 438 q 232 349 205 379 q 287 289 259 319 q 342 228 315 258 q 391 166 369 197 q 500 192 448 178 q 599 226 553 207 q 610 227 605 229 q 616 223 614 226 q 616 216 618 220 q 608 209 614 212 q 513 173 565 188 q 405 145 460 158 q 418 123 412 134 q 429 101 423 112 q 443 14 448 55 q 417 -61 438 -27 q 364 -124 397 -96 q 293 -172 331 -152 q 217 -203 255 -192 q 146 -215 178 -214 q 57 -201 95 -216 q 0 -159 20 -185 q -26 -102 -21 -134 q -18 -38 -31 -70 q 37 39 0 7 q 125 92 75 70 q 234 129 175 114 q 354 158 293 144 q 305 221 333 190 q 250 284 278 253 q 194 345 221 315 q 144 406 166 375 q 107 467 122 437 q 90 528 93 498 q 107 611 87 569 q 166 690 128 653 q 256 758 203 728 q 369 809 309 789 q 410 820 387 814 q 458 827 433 825 q 508 828 483 830 q 556 818 534 826 q 596 793 578 809 q 624 752 614 777 q 628 700 633 729 q 603 634 624 671 q 538 552 581 597 q 426 452 495 506 q 407 445 416 444 q 394 450 398 446 q 391 462 390 455 q 405 475 393 469 m 386 100 q 377 118 382 110 q 367 137 372 127 q 247 109 306 123 q 138 74 188 95 q 52 25 88 54 q 2 -47 16 -4 q -2 -100 -7 -73 q 23 -148 4 -127 q 75 -182 43 -169 q 150 -192 107 -194 q 216 -179 182 -190 q 283 -150 251 -169 q 341 -105 315 -131 q 384 -48 368 -80 q 401 21 399 -16 q 386 100 403 58 z "},"T":{"ha":413,"x_min":3,"x_max":967,"o":"m 44 670 q 34 670 45 669 q 15 675 24 671 q 4 685 5 679 q 22 702 3 692 q 107 727 56 716 q 219 745 158 737 q 350 758 281 753 q 491 767 420 763 q 631 771 562 770 q 762 773 701 773 q 875 773 824 773 q 960 773 926 773 q 965 768 964 771 q 965 760 967 764 q 959 754 964 756 q 949 753 955 752 q 868 751 919 753 q 751 747 816 750 q 612 740 686 744 q 464 730 539 736 q 390 584 426 664 q 319 419 353 504 q 255 247 285 334 q 202 80 226 161 q 163 -72 179 -1 q 141 -197 147 -144 q 134 -214 140 -207 q 120 -222 128 -220 q 107 -219 113 -223 q 100 -205 101 -216 q 112 -101 101 -161 q 142 28 123 -41 q 188 173 162 97 q 246 327 215 250 q 285 465 273 409 q 299 557 298 521 q 289 612 299 593 q 262 641 280 632 q 219 651 243 650 q 166 654 195 653 q 106 657 137 654 q 44 670 75 659 m 299 457 q 365 599 332 531 q 433 728 399 667 q 252 710 338 720 q 103 688 167 701 q 165 680 134 683 q 223 671 196 677 q 271 652 250 665 q 303 616 292 640 q 315 553 315 592 q 299 457 315 515 z "},"U":{"ha":633,"x_min":7,"x_max":748,"o":"m 711 735 q 723 745 716 743 q 736 745 730 747 q 745 736 742 742 q 743 722 748 729 q 669 584 707 656 q 595 437 631 511 q 527 287 559 362 q 469 141 494 212 q 426 6 443 71 q 403 -112 409 -58 q 400 -129 403 -122 q 393 -137 397 -135 q 387 -136 390 -139 q 384 -122 384 -133 q 402 10 385 -64 q 449 169 420 84 q 390 78 420 122 q 326 -3 359 34 q 228 -94 274 -62 q 145 -135 182 -127 q 79 -132 107 -144 q 34 -89 51 -119 q 12 -14 17 -59 q 16 88 7 31 q 61 284 31 184 q 129 477 91 384 q 209 655 167 571 q 290 801 251 738 q 301 810 295 809 q 310 809 306 811 q 316 802 314 807 q 315 792 318 797 q 243 650 281 730 q 171 478 205 569 q 107 291 136 388 q 61 99 78 194 q 55 -37 46 16 q 97 -106 65 -90 q 182 -94 129 -121 q 307 11 235 -67 q 374 94 342 48 q 436 189 407 139 q 490 291 465 239 q 539 394 516 343 q 622 569 578 483 q 711 735 666 655 z "},"V":{"ha":463,"x_min":22,"x_max":553,"o":"m 549 777 q 475 625 511 706 q 404 461 439 545 q 335 295 369 378 q 268 137 301 212 q 201 -4 234 61 q 135 -116 168 -69 q 108 -140 122 -135 q 82 -140 94 -146 q 60 -121 69 -135 q 48 -86 51 -107 q 35 34 41 -32 q 27 171 30 99 q 23 318 24 243 q 24 468 22 394 q 31 612 27 542 q 43 742 35 682 q 49 752 44 749 q 59 756 54 756 q 67 752 64 756 q 69 743 71 749 q 63 614 66 682 q 60 474 61 546 q 59 330 58 403 q 62 186 60 256 q 68 51 64 116 q 77 -70 71 -14 q 80 -84 78 -78 q 86 -96 82 -91 q 94 -100 89 -100 q 102 -93 98 -100 q 168 24 135 -41 q 236 165 202 90 q 306 320 271 239 q 379 481 342 400 q 454 639 416 561 q 532 785 492 716 q 539 794 535 792 q 548 795 544 796 q 552 789 551 794 q 549 777 553 784 z "},"W":{"ha":850,"x_min":12,"x_max":822,"o":"m 381 747 q 419 785 398 767 q 466 819 441 804 q 519 845 491 835 q 579 856 548 855 q 663 841 623 858 q 735 788 703 823 q 789 701 767 752 q 816 582 810 649 q 813 457 822 522 q 784 328 804 392 q 734 202 764 263 q 668 87 705 140 q 590 -9 632 33 q 506 -78 549 -52 q 439 -112 475 -99 q 372 -121 404 -124 q 315 -97 340 -118 q 281 -29 290 -75 q 280 93 271 18 q 324 276 289 167 q 303 245 316 265 q 275 202 290 225 q 242 154 260 179 q 206 107 224 129 q 167 68 187 85 q 127 43 147 51 q 86 36 105 34 q 53 48 67 37 q 29 77 39 58 q 17 118 20 95 q 18 203 12 156 q 39 301 24 250 q 74 405 53 352 q 120 511 95 459 q 172 612 145 563 q 227 703 200 661 q 240 713 233 710 q 253 714 248 716 q 261 707 258 713 q 257 692 263 701 q 207 606 233 652 q 159 510 182 560 q 116 408 136 460 q 82 305 96 356 q 61 206 67 254 q 56 116 54 158 q 78 70 58 79 q 122 72 97 61 q 174 113 151 86 q 220 171 198 141 q 257 225 239 198 q 293 280 275 252 q 330 339 312 309 q 369 405 348 370 q 380 416 373 414 q 392 415 386 418 q 401 405 398 411 q 403 391 404 399 q 374 331 386 361 q 351 265 363 300 q 312 103 321 169 q 308 -6 303 36 q 332 -70 314 -49 q 376 -94 350 -90 q 431 -87 401 -98 q 491 -56 461 -76 q 565 11 528 -31 q 635 105 602 53 q 696 217 669 157 q 744 339 724 277 q 773 464 764 402 q 779 582 783 526 q 758 692 775 645 q 713 769 740 739 q 651 814 686 800 q 577 826 616 828 q 528 817 552 824 q 483 798 505 810 q 440 770 460 786 q 401 737 420 754 q 386 725 392 727 q 377 727 380 724 q 375 736 375 730 q 381 747 376 742 z "},"X":{"ha":692,"x_min":-57,"x_max":705,"o":"m 273 144 q 250 219 260 181 q 231 296 239 256 q 154 185 190 239 q 88 79 118 130 q 35 -17 58 29 q -1 -102 13 -63 q -15 -118 -5 -112 q -35 -127 -25 -125 q -51 -125 -45 -129 q -53 -107 -57 -120 q -14 -18 -40 -68 q 48 90 12 33 q 128 211 84 148 q 222 339 172 274 q 204 470 211 405 q 195 598 198 536 q 191 716 191 660 q 191 820 190 773 q 199 832 192 828 q 215 834 207 836 q 231 825 224 833 q 240 803 239 817 q 239 716 239 764 q 242 616 240 669 q 250 505 245 562 q 263 390 254 448 q 361 510 310 451 q 463 624 411 569 q 565 729 514 679 q 665 819 616 778 q 681 831 675 829 q 689 829 687 833 q 689 819 692 826 q 679 805 687 811 q 575 704 628 758 q 469 591 522 650 q 366 470 417 532 q 269 347 316 409 q 288 248 277 296 q 314 154 299 199 q 352 63 331 101 q 402 9 374 25 q 466 2 431 -7 q 545 52 501 11 q 625 138 588 93 q 692 226 661 183 q 700 227 695 231 q 702 218 705 224 q 642 129 679 176 q 560 38 605 82 q 467 -23 511 -14 q 385 -14 422 -33 q 320 48 348 5 q 273 144 291 91 z "},"Y":{"ha":560,"x_min":1,"x_max":545,"o":"m 150 -29 q 162 -21 156 -22 q 172 -23 168 -20 q 177 -30 175 -25 q 175 -37 178 -34 q 138 -97 151 -65 q 120 -160 124 -129 q 120 -219 116 -191 q 136 -266 124 -247 q 164 -291 147 -284 q 202 -287 181 -298 q 248 -246 223 -277 q 299 -158 273 -215 q 365 18 337 -78 q 415 216 393 115 q 456 419 437 318 q 492 610 474 520 q 451 521 472 566 q 407 432 429 475 q 364 346 386 388 q 321 269 342 305 q 280 201 301 235 q 235 137 258 166 q 184 87 211 107 q 126 64 156 67 q 89 68 107 62 q 55 87 71 73 q 27 124 39 101 q 8 180 14 147 q 2 279 1 227 q 12 384 3 331 q 33 491 20 437 q 64 594 47 544 q 101 691 81 645 q 140 776 120 737 q 151 788 144 784 q 165 790 158 791 q 173 782 171 788 q 170 765 176 775 q 135 685 153 729 q 100 593 117 641 q 70 492 84 544 q 48 387 56 439 q 39 283 40 335 q 47 186 38 232 q 66 127 54 146 q 95 102 79 107 q 129 104 110 97 q 167 127 148 112 q 205 163 186 142 q 241 206 224 184 q 272 250 258 229 q 295 286 286 271 q 346 378 320 329 q 399 477 373 426 q 450 581 425 528 q 496 683 475 633 q 510 703 501 695 q 527 712 519 711 q 540 704 535 712 q 543 677 545 696 q 518 550 531 620 q 490 405 505 480 q 457 251 475 329 q 420 98 440 173 q 378 -46 401 23 q 331 -170 356 -114 q 273 -267 302 -233 q 217 -314 244 -302 q 166 -319 190 -326 q 126 -291 143 -312 q 100 -240 110 -271 q 93 -173 91 -209 q 108 -100 94 -137 q 150 -29 122 -62 z "},"Z":{"ha":596,"x_min":-129,"x_max":609,"o":"m 21 365 q 55 479 34 427 q 103 575 77 531 q 161 653 130 618 q 223 717 191 688 q 309 785 266 756 q 390 825 352 813 q 465 831 436 838 q 506 804 493 825 q 516 751 518 783 q 498 680 514 718 q 453 595 480 637 q 399 515 426 553 q 347 448 371 477 q 308 399 322 418 q 307 396 305 395 q 313 399 308 397 q 362 408 338 408 q 404 398 385 408 q 437 366 423 387 q 457 312 450 345 q 459 247 463 283 q 445 169 456 210 q 531 195 492 182 q 596 226 570 209 q 605 227 600 231 q 605 218 609 223 q 530 177 573 195 q 438 146 488 159 q 385 29 419 88 q 305 -85 352 -31 q 199 -182 258 -139 q 71 -250 140 -226 q -18 -265 20 -269 q -82 -243 -57 -262 q -118 -196 -107 -225 q -125 -132 -129 -166 q -100 -62 -120 -97 q -41 4 -80 -27 q 50 57 -3 35 q 162 98 103 80 q 284 131 222 116 q 403 158 346 145 q 421 233 416 197 q 421 297 426 268 q 402 345 415 327 q 370 369 388 362 q 331 376 352 377 q 286 368 309 375 q 272 367 277 365 q 265 373 267 369 q 266 384 264 377 q 272 398 267 391 q 316 460 290 426 q 369 531 342 494 q 422 607 397 569 q 467 684 448 646 q 484 737 479 709 q 484 785 490 765 q 458 812 478 805 q 399 804 438 820 q 332 769 368 791 q 259 715 296 746 q 189 644 223 684 q 126 560 154 605 q 79 465 98 516 q 53 360 59 414 q 46 350 51 353 q 36 349 41 348 q 26 354 31 350 q 21 365 22 358 m 65 -224 q 163 -171 114 -208 q 255 -84 212 -133 q 335 22 299 -35 q 393 133 371 78 q 280 107 338 120 q 168 78 222 94 q 64 42 113 63 q -22 -7 15 22 q -80 -68 -59 -36 q -106 -129 -101 -99 q -103 -183 -112 -158 q -72 -222 -95 -207 q -16 -238 -50 -236 q 65 -224 19 -240 z "},"B":{"ha":692,"x_min":-33,"x_max":678,"o":"m 636 -38 q 637 -46 638 -42 q 633 -51 635 -49 q 627 -54 630 -53 q 622 -52 624 -54 q 584 -24 608 -40 q 528 -111 562 -70 q 451 -180 494 -152 q 356 -221 407 -209 q 250 -224 305 -234 q 183 -206 215 -218 q 123 -176 151 -193 q 72 -138 95 -158 q 31 -94 48 -117 q 17 -160 22 -129 q 8 -219 12 -192 q 1 -236 7 -229 q -12 -243 -5 -242 q -26 -241 -20 -245 q -33 -227 -32 -237 q -23 -142 -31 -190 q -2 -40 -16 -95 q -17 10 -14 -15 q -14 58 -20 35 q 7 100 -8 81 q 50 133 23 119 q 99 270 72 200 q 156 410 127 341 q 218 546 186 480 q 282 671 250 612 q 184 570 229 626 q 105 459 139 514 q 96 458 101 455 q 94 467 91 462 q 132 532 109 498 q 183 600 154 566 q 243 665 211 633 q 309 722 275 696 q 336 768 323 746 q 363 811 350 790 q 373 820 368 818 q 383 819 379 821 q 389 811 387 816 q 388 802 390 807 l 358 755 q 411 779 382 769 q 472 793 441 790 q 556 786 516 798 q 624 749 596 775 q 665 685 652 724 q 668 599 678 647 q 646 533 661 566 q 610 470 631 501 q 566 413 590 440 q 519 366 542 386 q 491 343 505 354 q 462 322 477 332 q 521 287 496 307 q 565 243 547 267 q 596 185 585 216 q 610 123 607 155 q 608 60 613 92 q 592 -3 603 28 q 617 -21 606 -12 q 636 -38 628 -31 m 98 149 q 208 148 147 157 q 331 118 269 138 q 452 72 394 98 q 554 21 510 46 q 567 74 563 48 q 569 128 571 101 q 560 181 568 155 q 537 231 552 207 q 497 275 522 256 q 437 309 472 295 q 342 258 379 269 q 290 253 306 248 q 275 275 273 259 q 297 307 278 292 q 350 332 316 323 q 433 331 385 341 q 505 390 471 358 q 544 432 524 408 q 582 483 565 456 q 612 540 599 510 q 631 599 625 569 q 628 669 637 637 q 598 725 620 702 q 544 758 577 747 q 472 765 512 769 q 415 750 443 760 q 361 726 387 740 q 335 707 346 718 q 316 680 325 696 q 257 559 286 624 q 199 426 227 494 q 145 287 171 358 q 98 149 120 217 m 90 124 q 61 29 74 75 q 38 -61 48 -18 q 79 -109 55 -86 q 132 -151 103 -132 q 194 -183 161 -170 q 263 -200 227 -196 q 354 -192 311 -206 q 433 -150 397 -178 q 498 -83 469 -122 q 545 -1 526 -45 q 482 31 517 14 q 407 65 446 48 q 326 95 367 81 q 243 118 284 109 q 163 129 202 127 q 90 124 124 131 m 408 315 q 362 314 383 318 q 326 303 341 309 q 303 288 311 296 q 297 275 295 280 q 304 271 297 272 q 324 275 311 271 q 359 288 338 279 q 408 315 380 298 m 9 1 q 23 50 16 25 q 39 101 30 75 q 8 56 15 82 q 9 1 1 31 z "},"@":{"ha":492,"x_min":39,"x_max":407,"o":"m 362 124 q 368 128 365 127 q 374 128 372 129 q 377 123 377 127 q 374 116 377 120 q 306 64 346 83 q 222 40 265 44 q 140 49 180 36 q 73 93 100 62 q 46 146 53 117 q 43 205 39 175 q 61 266 47 235 q 95 322 74 296 q 144 371 116 349 q 201 407 171 393 q 265 425 233 421 q 324 424 297 430 q 372 403 352 418 q 399 362 392 388 q 399 301 407 337 q 365 220 392 266 q 312 156 339 176 q 265 140 284 137 q 241 170 246 144 q 254 246 236 197 q 235 223 247 236 q 208 197 222 209 q 180 173 194 184 q 154 160 165 163 q 128 166 139 156 q 120 197 118 175 q 139 250 123 224 q 179 291 156 275 q 229 309 202 307 q 280 292 256 311 q 287 300 285 298 q 292 303 290 302 q 302 304 297 305 q 309 300 306 303 q 313 293 312 297 q 310 282 314 288 q 272 199 282 232 q 270 157 263 167 q 296 162 276 147 q 343 224 315 178 q 377 297 368 265 q 382 350 386 328 q 363 384 377 371 q 325 402 348 397 q 275 404 303 407 q 220 392 248 401 q 142 345 178 377 q 85 273 106 313 q 64 191 65 233 q 89 114 63 148 q 146 72 112 86 q 219 58 181 58 q 296 75 258 59 q 362 124 333 92 m 146 201 q 144 179 142 186 q 153 173 146 171 q 176 190 162 176 q 207 220 190 203 q 238 254 223 237 q 265 278 254 270 q 231 292 249 294 q 197 276 214 290 q 166 242 180 263 q 146 201 152 222 z "},"[":{"ha":354,"x_min":-27,"x_max":436,"o":"m -16 -43 q -11 -43 -14 -43 q -5 -42 -8 -42 q 28 67 10 7 q 68 194 47 128 q 113 328 90 259 q 159 463 136 397 q 206 591 183 530 q 250 703 229 652 q 230 703 239 703 q 217 704 220 703 q 210 708 212 705 q 209 715 208 711 q 212 722 209 719 q 220 726 215 726 q 247 727 227 727 q 291 727 267 727 q 342 726 316 726 q 389 724 368 725 q 421 723 409 724 q 429 723 433 723 q 435 716 434 722 q 432 709 436 710 q 417 707 431 708 q 382 706 403 707 q 336 705 361 705 q 288 704 311 704 q 275 657 285 687 q 253 590 266 626 q 224 517 239 554 q 196 447 209 479 q 172 391 182 414 q 160 360 163 367 q 127 271 145 320 q 89 168 108 222 q 50 61 69 115 q 12 -42 30 7 q 62 -43 33 -42 q 118 -44 90 -44 q 167 -46 146 -45 q 193 -46 188 -46 q 200 -53 199 -47 q 197 -61 201 -59 q 181 -62 195 -61 q 144 -63 166 -63 q 96 -65 122 -64 q 46 -65 69 -65 q 5 -66 22 -65 q -18 -65 -13 -66 q -26 -61 -24 -65 q -27 -54 -27 -58 q -23 -47 -26 -50 q -16 -43 -20 -44 z "},"]":{"ha":439,"x_min":-23,"x_max":440,"o":"m 429 706 q 424 706 426 706 q 418 705 421 705 q 385 595 403 656 q 345 470 366 535 q 300 335 323 404 q 253 200 277 267 q 207 72 230 133 q 163 -40 184 11 q 183 -40 174 -40 q 196 -41 192 -40 q 203 -45 201 -41 q 204 -52 205 -48 q 201 -59 203 -56 q 193 -63 198 -63 q 166 -64 186 -64 q 122 -64 146 -64 q 71 -63 97 -63 q 24 -61 45 -62 q -8 -60 3 -61 q -16 -60 -20 -60 q -22 -53 -21 -59 q -19 -46 -23 -47 q -4 -44 -18 -45 q 31 -43 10 -44 q 77 -41 52 -42 q 125 -41 102 -41 q 137 6 127 -24 q 160 73 147 37 q 189 147 173 109 q 217 217 204 184 q 240 272 231 249 q 253 303 250 296 q 286 392 268 342 q 324 495 305 441 q 363 602 343 548 q 401 705 383 656 q 351 706 380 705 q 295 707 322 707 q 246 709 267 708 q 220 709 224 709 q 213 716 214 710 q 216 724 212 722 q 232 725 218 724 q 269 726 247 726 q 317 728 291 727 q 367 728 343 728 q 408 728 390 728 q 431 728 426 728 q 438 724 436 728 q 439 717 440 721 q 436 710 439 713 q 429 706 433 707 z "},"(":{"ha":422,"x_min":53,"x_max":545,"o":"m 261 -88 q 280 -94 275 -89 q 282 -104 284 -99 q 272 -114 280 -110 q 254 -118 265 -118 q 150 -86 191 -114 q 86 -14 109 -58 q 58 89 64 31 q 63 211 53 147 q 95 340 72 274 q 151 466 118 405 q 227 578 184 526 q 318 665 269 630 q 420 716 367 701 q 529 720 473 732 q 541 713 538 718 q 543 704 545 708 q 534 696 541 699 q 514 696 526 694 q 421 690 467 706 q 332 641 375 675 q 250 558 288 607 q 181 453 212 509 q 128 334 150 396 q 96 213 106 272 q 89 100 86 154 q 112 5 93 46 q 167 -61 131 -35 q 261 -88 204 -86 z "},")":{"ha":433,"x_min":-129,"x_max":363,"o":"m 154 693 q 136 699 141 694 q 133 709 131 704 q 143 719 135 715 q 161 723 151 723 q 266 692 224 720 q 329 619 307 664 q 357 517 352 575 q 353 395 363 458 q 321 266 343 331 q 265 139 298 200 q 189 27 231 79 q 98 -60 146 -24 q -4 -111 49 -95 q -114 -114 -58 -127 q -126 -107 -122 -112 q -127 -98 -129 -103 q -118 -91 -125 -94 q -98 -91 -111 -88 q -5 -85 -52 -101 q 84 -36 41 -69 q 165 47 127 -2 q 234 153 203 96 q 287 271 265 209 q 320 392 309 333 q 326 505 330 452 q 304 600 323 559 q 248 666 285 641 q 154 693 212 691 z "},"*":{"ha":133,"x_min":31,"x_max":132,"o":"m 96 501 q 90 491 95 494 q 83 493 86 488 q 78 524 80 502 q 56 503 67 512 q 42 490 46 494 q 36 488 39 487 q 35 492 33 488 q 46 504 37 493 q 69 528 56 515 q 50 528 58 528 q 37 529 41 528 q 34 535 31 531 q 43 541 37 540 q 57 542 48 542 q 76 542 66 542 q 74 569 75 557 q 73 582 73 580 q 77 586 73 585 q 81 583 80 586 q 84 570 82 579 q 88 549 86 560 l 120 580 q 129 582 127 586 q 125 572 131 579 q 113 559 121 567 q 96 542 105 551 q 116 541 107 541 q 129 541 125 541 q 132 537 132 540 q 129 533 132 534 q 116 531 127 531 q 92 530 105 531 q 95 514 93 521 q 96 501 96 506 z "},",":{"ha":173,"x_min":11,"x_max":65,"o":"m 53 81 q 63 60 65 71 q 52 39 61 48 q 34 22 44 29 q 20 14 24 15 q 13 15 16 13 q 14 22 11 16 q 19 29 16 25 q 26 36 23 33 l 26 38 q 25 39 26 39 q 21 54 20 45 q 27 71 22 63 q 39 83 31 80 q 53 81 46 87 z "},".":{"ha":179,"x_min":20,"x_max":67,"o":"m 57 80 q 66 60 67 71 q 58 41 65 50 q 42 30 52 33 q 26 32 33 26 q 20 48 20 37 q 24 70 20 60 q 38 84 29 80 q 57 80 46 88 z "},"-":{"ha":293,"x_min":56,"x_max":207,"o":"m 69 213 q 99 214 80 214 q 140 214 119 214 q 178 213 161 214 q 201 212 195 212 q 207 204 207 211 q 203 196 207 197 q 192 195 201 195 q 169 193 183 194 q 140 192 156 192 q 109 191 124 191 q 82 191 94 191 q 65 191 70 190 q 58 195 59 192 q 57 202 56 199 q 62 209 58 205 q 69 213 65 212 z "},"_":{"ha":388,"x_min":20,"x_max":248,"o":"m 32 -12 q 56 -12 39 -12 q 95 -12 73 -12 q 141 -12 117 -12 q 186 -14 165 -13 q 222 -15 207 -14 q 241 -16 237 -16 q 247 -22 246 -16 q 244 -30 248 -29 q 228 -31 243 -31 q 191 -33 214 -32 q 143 -34 169 -33 q 94 -35 117 -35 q 52 -35 70 -35 q 29 -35 35 -35 q 22 -31 24 -34 q 21 -23 20 -27 q 24 -16 22 -20 q 32 -12 27 -13 z "},"~":{"ha":322,"x_min":64,"x_max":210,"o":"m 77 210 q 103 215 86 215 q 139 212 120 214 q 175 209 158 210 q 205 214 193 209 q 209 212 207 215 q 210 206 210 209 q 208 198 209 202 q 203 194 206 195 q 177 188 195 188 q 139 189 159 188 q 100 191 118 190 q 73 187 81 192 q 66 191 67 188 q 65 199 64 195 q 69 206 66 203 q 77 210 72 209 z "},"+":{"ha":227,"x_min":7,"x_max":158,"o":"m 83 302 q 88 309 84 307 q 96 313 92 312 q 102 311 99 313 q 105 304 105 309 q 102 278 105 297 q 95 235 99 258 q 130 234 114 234 q 152 233 146 233 q 158 225 158 232 q 154 217 158 218 q 133 215 152 216 q 91 213 115 214 q 87 186 89 199 q 82 164 84 173 q 79 147 80 154 q 77 140 78 141 q 68 137 75 136 q 62 144 61 138 q 64 169 62 149 q 69 212 66 188 q 37 212 52 212 q 16 212 22 212 q 9 216 10 213 q 9 223 7 220 q 13 230 10 226 q 20 234 16 233 q 43 235 28 235 q 73 235 57 235 q 78 275 75 256 q 83 302 81 293 z "},"!":{"ha":312,"x_min":41,"x_max":295,"o":"m 263 584 q 276 590 268 594 q 290 577 285 587 q 291 555 295 571 q 280 520 288 540 q 262 477 272 500 q 242 435 252 455 q 224 398 232 414 q 213 374 216 382 q 183 297 198 334 q 152 220 168 259 q 120 139 137 181 q 87 48 104 97 q 81 38 85 42 q 73 34 77 34 q 68 37 70 33 q 70 51 67 41 q 113 188 91 125 q 158 314 135 252 q 207 441 181 376 q 263 584 233 506 m 75 -6 q 83 -24 84 -14 q 76 -41 82 -33 q 62 -51 70 -48 q 47 -49 53 -54 q 41 -34 41 -44 q 46 -15 41 -24 q 57 -2 50 -6 q 75 -6 65 2 z "},"/":{"ha":292,"x_min":30,"x_max":278,"o":"m 246 626 q 259 632 251 635 q 273 620 268 629 q 274 597 278 613 q 263 561 271 582 q 245 519 256 541 q 225 476 235 497 q 207 439 215 456 q 196 416 199 423 q 163 327 181 376 q 125 225 145 278 q 87 119 106 172 q 50 16 67 65 q 44 7 48 11 q 36 3 39 3 q 31 6 33 3 q 33 20 30 10 q 129 322 76 169 q 246 626 182 474 z "},"%":{"ha":340,"x_min":41,"x_max":288,"o":"m 257 582 q 271 589 263 592 q 284 576 279 586 q 285 554 288 569 q 274 518 282 538 q 256 475 267 498 q 236 433 246 453 q 218 396 226 412 q 207 372 209 380 q 174 284 192 333 q 136 182 156 235 q 98 75 117 129 q 61 -27 78 22 q 54 -36 58 -33 q 47 -40 50 -40 q 42 -37 44 -41 q 44 -23 41 -33 q 140 278 87 126 q 257 582 193 431 m 150 501 q 145 473 148 488 q 135 446 141 459 q 121 421 129 433 q 103 402 113 409 q 81 396 91 392 q 63 413 70 399 q 56 452 56 429 q 65 496 56 475 q 88 531 73 517 q 127 544 104 545 q 137 545 132 548 q 145 536 141 543 q 150 520 149 529 q 150 501 152 510 m 120 531 q 97 515 107 526 q 81 487 87 503 q 73 455 75 471 q 74 427 71 439 q 85 412 78 415 q 101 416 92 409 q 122 452 113 428 q 133 499 131 475 l 133 503 q 122 514 127 507 q 120 531 118 521 m 254 122 q 249 95 252 109 q 239 67 245 80 q 224 42 233 54 q 207 23 216 31 q 184 17 195 14 q 167 34 173 20 q 160 73 160 50 q 169 117 161 96 q 192 152 177 138 q 231 165 208 167 q 241 167 236 169 q 249 157 246 164 q 254 141 252 150 q 254 122 256 131 m 224 152 q 201 136 211 148 q 184 108 190 124 q 177 77 178 93 q 178 48 175 61 q 188 33 181 36 q 205 37 196 30 q 226 73 217 49 q 237 120 235 97 l 237 124 q 226 135 231 128 q 224 152 222 142 z "},"?":{"ha":420,"x_min":63,"x_max":392,"o":"m 93 477 q 80 469 86 469 q 68 473 73 468 q 63 486 63 477 q 70 506 63 495 q 158 601 112 565 q 248 648 205 636 q 325 650 290 660 q 376 607 360 639 q 386 521 392 575 q 342 393 380 467 q 294 307 320 350 q 243 223 268 265 q 197 142 218 182 q 165 69 176 103 q 158 58 163 61 q 150 56 154 55 q 144 60 146 56 q 144 71 142 64 q 175 146 156 106 q 216 228 194 186 q 261 312 237 269 q 305 395 284 354 q 354 517 343 467 q 354 595 364 567 q 316 630 343 624 q 253 622 289 637 q 175 571 217 607 q 93 477 133 535 m 149 16 q 157 -1 158 8 q 150 -18 156 -11 q 136 -29 144 -26 q 121 -27 127 -32 q 116 -12 116 -22 q 120 7 116 -1 q 132 20 124 16 q 149 16 139 24 z "},"<":{"ha":402,"x_min":55,"x_max":273,"o":"m 264 129 q 270 123 268 127 q 270 115 271 119 q 266 109 269 112 q 258 107 263 106 q 236 115 253 109 q 198 130 220 122 q 152 148 176 139 q 107 166 128 158 q 73 180 86 174 q 58 187 59 186 q 57 194 55 189 q 64 199 60 198 q 82 207 68 201 q 116 221 97 213 q 157 238 135 229 q 199 255 179 247 q 235 269 219 263 q 257 277 250 275 q 266 276 262 278 q 271 271 269 274 q 272 263 273 267 q 267 256 271 259 q 240 246 261 254 q 191 228 218 238 q 135 208 163 218 q 88 192 107 198 q 133 177 107 186 q 186 158 160 167 q 235 141 213 149 q 264 129 256 133 z "},">":{"ha":377,"x_min":61,"x_max":278,"o":"m 69 255 q 64 261 65 257 q 63 269 62 265 q 67 275 64 273 q 75 277 69 278 q 97 269 80 275 q 135 254 114 263 q 181 236 157 246 q 226 218 205 226 q 261 204 247 210 q 275 197 274 198 q 276 191 278 195 q 269 186 273 186 q 251 178 265 184 q 217 163 237 171 q 176 146 198 155 q 134 129 154 137 q 99 115 114 121 q 76 107 83 110 q 68 108 71 106 q 62 114 64 110 q 61 121 61 117 q 66 128 62 125 q 94 138 72 131 q 142 156 115 146 q 198 176 170 166 q 245 192 226 186 q 200 208 226 199 q 147 226 173 217 q 99 243 120 235 q 69 255 77 252 z "},"=":{"ha":288,"x_min":17,"x_max":167,"o":"m 30 256 q 60 257 40 257 q 100 257 80 258 q 138 256 121 257 q 162 255 156 256 q 167 248 167 254 q 163 239 167 241 q 153 238 162 239 q 130 237 144 237 q 100 235 116 236 q 69 235 84 235 q 43 234 54 235 q 25 235 31 234 q 18 239 20 235 q 18 246 17 242 q 22 252 19 249 q 30 256 25 256 m 30 191 q 60 192 40 192 q 100 192 80 192 q 138 191 121 192 q 162 190 156 190 q 167 182 167 189 q 163 174 167 175 q 153 173 162 173 q 130 171 144 172 q 100 170 116 171 q 69 169 84 169 q 43 169 54 169 q 25 169 31 169 q 18 173 20 170 q 18 180 17 177 q 22 187 19 184 q 30 191 25 190 z "},"#":{"ha":389,"x_min":37,"x_max":342,"o":"m 54 167 q 77 167 60 167 q 118 167 95 167 q 123 199 121 182 q 129 231 126 216 q 74 231 97 231 q 46 231 52 231 q 39 235 41 232 q 38 242 37 239 q 41 250 39 246 q 49 254 44 253 q 79 254 56 254 q 133 254 103 254 q 146 321 140 292 q 152 356 151 350 q 157 363 154 361 q 165 363 161 364 q 171 358 168 361 q 173 350 173 354 q 168 316 173 342 q 156 254 163 289 q 190 254 173 254 q 224 253 207 254 q 234 299 230 280 q 239 324 238 319 q 245 331 241 329 q 252 331 248 332 q 258 326 255 329 q 261 318 261 322 q 256 293 260 311 q 248 252 253 276 q 306 251 282 252 q 335 250 330 250 q 341 243 340 250 q 338 236 342 237 q 330 235 337 235 q 309 234 322 235 q 280 233 297 233 q 243 233 263 233 l 229 164 q 276 162 256 163 q 301 161 297 161 q 308 154 307 161 q 305 147 309 148 q 280 145 303 146 q 224 144 256 145 l 209 80 q 201 75 207 75 q 195 80 195 75 q 197 99 194 81 q 205 144 199 118 q 169 144 187 144 q 134 144 152 144 l 114 48 q 107 43 113 42 q 100 47 101 43 q 101 55 100 48 q 103 76 101 63 q 108 106 105 89 q 114 144 111 124 q 73 144 90 144 q 51 144 56 144 q 44 148 46 145 q 43 155 42 152 q 46 163 44 159 q 54 167 49 166 m 221 232 q 186 232 203 232 q 152 231 169 231 q 145 199 148 215 q 139 167 142 182 l 208 165 l 221 232 z "},"^":{"ha":157,"x_min":39,"x_max":156,"o":"m 39 487 q 49 511 43 497 q 62 541 55 525 q 75 572 69 556 q 88 599 82 588 q 91 602 88 601 q 97 603 94 603 q 103 602 100 603 q 107 599 106 601 q 119 570 112 587 q 133 534 126 552 q 146 500 140 516 q 156 475 152 484 q 148 461 156 465 q 135 467 140 457 q 127 483 132 472 q 117 508 122 494 q 106 536 112 522 q 97 564 101 551 q 87 540 93 552 q 77 515 82 527 q 67 493 71 503 q 60 478 63 484 q 54 473 58 473 q 47 473 50 472 q 41 478 44 475 q 39 487 39 482 z "},":":{"ha":198,"x_min":68,"x_max":135,"o":"m 127 392 q 134 375 135 384 q 128 360 133 367 q 114 350 122 353 q 101 352 106 348 q 96 366 95 356 q 100 384 96 375 q 111 396 103 392 q 127 392 118 399 m 100 263 q 107 247 108 256 q 101 231 106 238 q 87 221 95 224 q 73 223 79 218 q 68 237 68 227 q 72 255 69 246 q 83 267 76 263 q 100 263 90 271 z "},"\"":{"ha":236,"x_min":82,"x_max":191,"o":"m 120 414 q 134 419 127 422 q 139 405 142 417 q 130 386 137 396 q 116 367 124 375 q 102 352 109 358 q 93 345 95 346 q 85 346 88 343 q 86 353 82 348 q 99 380 93 366 q 120 414 105 394 m 170 414 q 178 419 173 418 q 185 419 182 420 q 190 415 188 418 q 190 405 191 411 q 181 386 187 396 q 167 367 174 375 q 153 352 160 358 q 143 345 146 346 q 136 346 138 343 q 136 353 133 348 q 149 380 144 366 q 170 414 155 394 z "},"'":{"ha":150,"x_min":48,"x_max":108,"o":"m 86 414 q 100 419 93 422 q 105 405 108 417 q 96 386 103 396 q 82 367 90 375 q 68 352 75 358 q 58 345 61 346 q 51 346 54 343 q 52 353 48 348 q 65 380 58 366 q 86 414 71 394 z "},";":{"ha":199,"x_min":64,"x_max":136,"o":"m 127 392 q 135 375 136 384 q 129 360 134 367 q 115 350 123 353 q 101 352 107 348 q 96 366 96 356 q 100 384 97 375 q 111 396 104 392 q 127 392 118 399 m 99 262 q 107 244 110 254 q 99 226 105 235 q 83 213 92 218 q 71 206 75 207 q 66 206 68 205 q 66 212 64 207 q 71 218 68 216 q 77 224 75 221 q 76 226 77 224 l 76 227 q 74 239 73 231 q 79 253 75 247 q 88 263 83 260 q 99 262 94 267 z "},"`":{"ha":186,"x_min":95,"x_max":150,"o":"m 118 484 q 126 467 124 475 q 129 451 128 458 q 134 439 131 444 q 146 432 137 433 q 149 430 150 431 q 147 426 149 428 q 142 422 145 424 q 136 420 139 420 q 122 425 129 420 q 108 437 114 430 q 98 454 102 445 q 95 473 95 463 q 97 480 95 476 q 103 485 100 483 q 111 487 107 487 q 118 484 115 487 z "},"":{"ha":39,"x_min":-23,"x_max":29,"o":"m 14 7 q 23 8 16 10 q 29 1 29 6 q 23 -17 27 -7 q 13 -33 19 -26 q -1 -44 7 -40 q -16 -46 -8 -48 q -22 -40 -20 -44 q -18 -35 -23 -36 q -4 -28 -8 -32 q 2 -18 0 -24 q 6 -7 4 -13 q 14 7 9 -1 z "},"":{"ha":609,"x_min":3,"x_max":622,"o":"m 473 324 q 464 313 470 316 q 453 311 458 310 q 445 317 448 312 q 447 330 443 322 q 523 489 494 419 q 567 612 552 559 q 583 702 582 665 q 574 763 584 739 q 548 799 565 787 q 508 811 531 810 q 459 806 486 813 q 407 785 433 799 q 325 728 367 765 q 244 644 284 691 q 169 540 205 597 q 106 425 134 484 q 62 305 79 365 q 41 188 44 245 q 56 50 35 107 q 114 -39 76 -7 q 201 -78 151 -71 q 304 -65 251 -84 q 395 -15 352 -47 q 477 57 439 17 q 549 140 516 97 q 609 226 582 184 q 617 227 612 231 q 620 218 622 224 q 586 159 606 190 q 540 97 565 129 q 486 36 515 66 q 427 -19 458 7 q 365 -64 397 -44 q 303 -95 333 -84 q 235 -108 268 -107 q 173 -103 203 -110 q 167 -120 171 -111 q 156 -136 163 -129 q 143 -147 150 -143 q 128 -148 136 -150 q 122 -143 124 -147 q 127 -137 121 -139 q 139 -131 135 -135 q 146 -122 144 -127 q 150 -111 148 -117 q 156 -98 152 -105 q 93 -60 122 -86 q 44 2 65 -35 q 13 87 24 39 q 5 193 3 135 q 23 316 7 253 q 68 441 40 380 q 133 560 96 503 q 214 666 171 618 q 303 751 256 714 q 396 809 350 788 q 453 829 423 822 q 509 835 482 836 q 559 822 537 833 q 596 787 582 811 q 613 724 610 762 q 602 629 616 686 q 558 497 589 573 q 473 324 527 422 z "},"":{"ha":292,"x_min":-46,"x_max":305,"o":"m 139 365 q 85 313 112 346 q 37 243 58 280 q 1 168 16 206 q -16 97 -13 129 q -15 56 -19 73 q 0 30 -10 39 q 23 17 10 20 q 53 18 37 14 q 101 38 76 22 q 149 73 125 53 q 193 115 172 93 q 231 154 214 137 q 268 195 252 176 q 292 224 284 213 q 297 226 295 226 q 301 225 299 226 q 304 221 303 223 q 303 216 305 218 q 274 180 290 199 q 241 140 258 161 q 215 112 230 128 q 183 80 201 97 q 147 49 166 64 q 107 21 127 33 q 68 3 88 10 q 30 -1 48 -3 q 21 0 25 -1 q 13 2 17 1 q 7 -14 11 -6 q -3 -28 3 -22 q -16 -37 -9 -34 q -31 -39 -23 -41 q -36 -33 -35 -37 q -32 -28 -37 -29 q -19 -22 -23 -26 q -13 -14 -15 -18 q -9 -3 -11 -9 q -3 9 -7 3 q -32 39 -21 20 q -44 86 -43 58 q -32 167 -46 124 q 5 250 -19 209 q 60 326 29 291 q 127 383 92 361 q 148 387 137 388 q 165 381 158 386 q 175 366 172 375 q 174 345 178 357 q 162 324 170 335 q 145 301 154 312 q 127 281 136 290 q 112 267 118 271 q 100 262 104 260 q 93 268 95 263 q 89 278 90 273 q 89 283 89 283 q 108 299 97 289 q 128 318 118 308 q 146 338 138 329 q 155 352 153 347 q 154 366 160 362 q 139 365 148 371 z "},"\\":{"ha":309,"x_min":37,"x_max":284,"o":"m 69 626 q 185 322 133 474 q 281 20 238 169 q 283 6 284 10 q 278 3 282 3 q 271 7 275 3 q 265 16 267 11 q 228 119 247 65 q 189 225 208 172 q 151 327 169 278 q 118 416 133 376 q 107 439 116 423 q 89 476 99 456 q 69 519 80 497 q 51 561 58 541 q 40 597 44 582 q 41 620 37 613 q 55 632 46 629 q 69 626 63 635 z "},"&":{"ha":499,"x_min":48,"x_max":451,"o":"m 388 541 q 380 509 387 529 q 367 468 373 490 q 411 458 390 466 q 448 431 433 451 q 449 423 451 426 q 444 418 448 419 q 436 418 440 416 q 431 424 433 419 q 417 435 425 431 q 400 439 409 438 q 380 440 390 440 q 360 441 370 440 q 354 424 356 429 q 351 415 352 419 q 342 411 349 409 q 335 418 336 413 q 336 423 335 419 q 339 441 336 427 q 274 433 306 440 q 215 414 241 426 q 171 386 189 402 q 148 352 153 370 q 153 314 143 334 q 193 275 163 295 q 268 240 224 256 q 358 210 312 224 q 368 196 368 205 q 354 184 367 188 q 301 172 328 178 q 249 158 275 166 q 200 140 224 150 q 154 114 175 129 q 112 78 132 100 q 85 33 93 56 q 89 -11 78 10 q 137 -43 99 -31 q 162 -48 149 -46 q 187 -51 175 -50 q 193 -25 190 -34 q 197 -10 195 -16 q 203 -4 199 -5 q 212 -4 207 -3 q 218 -10 216 -6 q 220 -18 221 -13 q 216 -31 219 -24 q 210 -50 214 -38 q 283 -40 248 -48 q 346 -11 318 -32 q 352 -10 348 -9 q 358 -12 356 -10 q 361 -18 360 -14 q 358 -24 361 -21 q 285 -62 325 -50 q 204 -76 246 -75 q 192 -120 198 -99 q 184 -148 186 -141 q 175 -151 182 -153 q 168 -145 169 -150 q 171 -121 167 -142 q 181 -76 175 -101 q 127 -68 151 -76 q 65 -28 82 -54 q 52 26 48 -3 q 77 85 55 55 q 132 137 99 114 q 224 178 173 165 q 330 199 275 191 q 244 224 282 209 q 179 257 206 239 q 128 308 141 282 q 122 357 116 334 q 150 402 129 381 q 203 437 172 422 q 271 461 234 452 q 345 469 308 469 q 356 519 350 494 q 365 552 362 543 q 371 558 367 557 q 379 556 375 558 q 386 550 383 554 q 388 541 389 545 z "},"":{"ha":295,"x_min":22,"x_max":275,"o":"m 54 -50 q 40 -56 49 -60 q 27 -43 32 -53 q 26 -21 22 -37 q 37 14 29 -6 q 55 56 45 34 q 75 99 65 79 q 93 136 85 120 q 104 160 101 152 q 134 237 119 200 q 165 314 149 275 q 197 395 180 353 q 230 486 213 437 q 236 496 232 492 q 244 500 240 500 q 249 497 247 501 q 247 483 250 493 q 204 346 226 409 q 159 220 182 282 q 110 93 136 158 q 54 -50 84 28 m 242 540 q 234 558 233 548 q 241 575 235 567 q 255 585 247 582 q 270 583 264 588 q 275 568 275 578 q 271 549 275 558 q 259 536 267 540 q 242 540 252 532 z "},"":{"ha":170,"x_min":-44,"x_max":182,"o":"m -1 249 q 8 256 2 255 q 19 255 14 258 q 27 248 24 253 q 27 235 30 242 q 2 180 13 204 q -14 138 -8 156 q -18 109 -19 120 q -10 93 -18 97 q 15 92 0 87 q 48 108 30 97 q 84 135 65 119 q 119 167 103 151 q 149 199 136 184 q 170 224 163 214 q 174 226 172 226 q 179 225 177 226 q 182 221 181 223 q 180 216 182 218 q 134 161 161 190 q 79 109 107 131 q 23 78 50 87 q -24 82 -3 69 q -40 107 -37 91 q -40 146 -44 124 q -26 194 -36 167 q -1 249 -16 220 z "},"$":{"ha":406,"x_min":-35,"x_max":416,"o":"m 293 662 q 307 669 299 672 q 320 656 315 666 q 321 633 324 650 q 309 594 317 616 q 343 593 326 594 q 374 585 360 591 q 399 569 388 579 q 412 541 409 558 q 406 504 416 525 q 367 456 396 482 q 354 453 359 452 q 346 455 348 453 q 347 461 344 458 q 357 468 349 465 q 383 499 374 484 q 392 526 391 514 q 389 555 396 545 q 368 571 382 566 q 337 575 355 575 q 302 573 320 575 q 281 523 292 549 q 260 474 270 497 q 241 433 250 451 q 231 409 233 416 q 208 347 221 382 q 180 274 195 313 q 216 220 199 247 q 238 165 232 192 q 232 106 245 133 q 194 60 218 80 q 138 29 169 41 q 80 13 107 16 l 64 -30 q 58 -39 62 -35 q 50 -43 54 -43 q 46 -40 47 -44 q 48 -26 44 -36 q 53 -7 50 -16 q 58 12 56 2 q 12 14 35 10 q -30 28 -12 18 q -34 33 -33 30 q -34 39 -35 36 q -31 43 -33 41 q -24 41 -28 44 q 18 31 -5 33 q 64 30 41 29 q 101 146 81 85 q 144 269 122 206 q 78 369 93 320 q 80 461 63 418 q 142 536 96 503 q 261 588 188 569 l 263 588 q 278 626 270 607 q 293 662 286 645 m 254 565 q 163 525 198 552 q 115 463 128 498 q 112 387 102 427 q 156 307 122 346 q 205 439 180 373 q 254 565 229 504 m 199 163 q 186 200 195 182 q 165 237 177 218 q 125 133 146 186 q 87 32 105 80 q 132 47 110 37 q 172 74 155 58 q 197 113 189 90 q 199 163 205 135 z "},"":{"ha":1152,"x_min":-163,"x_max":1165,"o":"m 596 437 q 622 420 604 425 q 663 414 640 415 q 713 415 687 414 q 765 419 740 417 q 811 420 790 420 q 845 416 833 420 q 850 411 847 415 q 852 403 852 408 q 850 394 852 399 q 843 388 847 390 q 779 350 815 376 q 705 287 743 323 q 630 207 667 251 q 561 117 592 164 q 508 22 530 70 q 478 -69 486 -25 q 484 -152 471 -117 q 527 -206 497 -187 q 601 -226 557 -225 q 699 -205 645 -226 q 828 -131 765 -179 q 951 -25 892 -84 q 1061 99 1010 34 q 1152 226 1112 165 q 1160 226 1155 230 q 1162 218 1165 223 q 1112 132 1142 177 q 1044 41 1081 86 q 964 -48 1007 -5 q 878 -128 922 -91 q 791 -192 835 -165 q 707 -234 747 -220 q 583 -254 639 -258 q 489 -222 526 -249 q 436 -152 452 -196 q 433 -52 421 -107 q 440 -28 436 -40 q 448 -3 443 -16 q 465 137 454 66 q 493 281 477 209 q 319 244 405 265 q 143 199 233 223 q 78 70 109 134 q 23 -54 48 5 q -21 -166 -2 -113 q -51 -261 -40 -218 q -60 -277 -53 -271 q -75 -283 -67 -282 q -88 -279 -82 -283 q -93 -264 -94 -274 q -69 -173 -86 -224 q -29 -64 -53 -122 q 27 57 -4 -6 q 93 186 58 120 q -47 145 17 165 q -150 109 -110 124 q -158 110 -155 106 q -162 121 -161 114 q -162 134 -163 128 q -155 144 -160 141 q -36 187 -107 165 q 118 231 35 209 q 220 402 167 318 q 325 559 273 486 q 428 691 378 633 q 519 786 477 750 q 568 820 545 809 q 609 832 591 832 q 639 821 627 832 q 655 786 651 809 q 641 686 662 741 q 620 629 631 659 q 599 566 609 599 q 644 629 618 597 q 703 690 671 660 q 771 746 735 720 q 842 792 806 772 q 908 821 872 809 q 979 836 944 833 q 1046 834 1014 840 q 1098 808 1077 828 q 1126 752 1119 788 q 1121 662 1134 717 q 1078 537 1105 599 q 1012 412 1051 475 q 1002 402 1008 405 q 990 400 995 399 q 983 405 985 401 q 986 418 981 410 q 1047 537 1019 473 q 1090 666 1075 601 q 1095 741 1101 711 q 1075 789 1090 771 q 1035 812 1059 806 q 982 816 1011 818 q 924 803 954 813 q 867 777 894 792 q 787 725 826 754 q 715 662 748 695 q 654 596 681 630 q 611 532 627 562 q 590 477 594 502 q 596 437 585 452 m 524 756 q 440 668 485 722 q 349 547 395 614 q 256 401 303 479 q 166 243 209 323 q 337 281 251 264 q 499 307 423 297 q 551 494 522 403 q 614 668 581 586 q 632 727 625 699 q 636 771 639 755 q 625 794 633 786 q 605 802 618 803 q 572 791 592 802 q 524 756 552 780 m 521 286 q 498 173 508 229 q 480 65 488 118 q 528 140 501 103 q 585 212 555 178 q 646 276 615 246 q 706 331 677 307 q 762 371 735 354 q 809 394 788 387 q 771 385 794 389 q 722 379 748 381 q 668 379 695 377 q 618 387 641 380 q 580 406 596 393 q 561 440 565 419 q 561 441 561 441 q 560 443 560 441 q 543 377 551 410 q 526 311 535 345 q 651 319 599 319 q 656 314 655 318 q 656 306 657 310 q 650 300 654 303 q 639 299 645 298 q 587 296 618 299 q 521 286 557 292 z "},"":{"ha":377,"x_min":-39,"x_max":392,"o":"m 237 305 q 243 278 246 294 q 230 246 240 263 q 205 214 220 229 q 172 185 189 198 q 137 165 154 173 q 107 158 120 158 q 107 137 106 147 q 111 118 107 127 q 131 90 118 98 q 160 83 144 82 q 194 89 176 83 q 227 105 211 95 q 268 131 248 116 q 309 162 289 146 q 346 194 329 178 q 377 226 363 211 q 387 227 382 231 q 388 218 392 223 q 350 175 374 199 q 299 131 326 152 q 243 92 271 109 q 192 68 214 75 q 162 63 177 64 q 134 64 148 61 q 110 76 121 67 q 92 100 99 84 q 83 140 83 118 q 88 187 82 163 q 71 164 82 178 q 48 138 61 151 q 23 116 36 126 q -1 103 10 105 q -27 108 -15 99 q -39 139 -39 118 q -27 192 -39 167 q 7 233 -14 218 q 55 251 29 249 q 107 235 81 254 q 123 262 114 249 q 144 286 132 274 q 172 308 158 300 q 199 318 186 316 q 222 316 212 320 q 237 305 232 313 m 165 275 q 132 232 148 259 q 110 175 117 204 q 139 182 123 174 q 170 201 154 190 q 198 228 185 213 q 219 256 212 242 q 228 280 227 269 q 219 296 229 291 q 196 295 210 300 q 165 275 181 290 m -14 144 q -13 122 -16 129 q -3 116 -11 114 q 18 133 5 119 q 45 163 31 146 q 72 197 58 180 q 95 221 86 213 q 60 235 78 237 q 27 219 42 233 q 1 185 12 206 q -14 144 -10 165 z "},"":{"ha":441,"x_min":29,"x_max":453,"o":"m 55 362 q 75 363 62 363 q 106 363 89 363 q 149 450 124 407 q 203 527 174 492 q 265 590 232 562 q 331 632 297 617 q 389 649 359 644 q 445 645 419 654 q 451 638 450 643 q 452 629 453 633 q 448 624 452 625 q 439 626 445 622 q 393 632 420 637 q 340 614 367 628 q 284 574 312 599 q 231 515 256 548 q 184 443 205 482 q 145 363 162 404 q 174 362 160 363 q 199 361 188 362 q 219 360 211 360 q 231 360 227 360 q 236 352 236 359 q 232 344 236 346 q 222 343 231 343 q 200 342 214 342 q 170 341 187 341 q 136 340 153 340 q 116 273 124 308 q 149 273 132 273 q 179 272 165 273 q 203 271 193 271 q 217 271 214 271 q 222 263 222 270 q 218 255 222 256 q 207 254 217 254 q 182 252 197 253 q 148 251 167 252 q 111 251 129 251 q 105 213 107 231 q 102 175 103 194 q 116 74 101 116 q 156 9 131 32 q 217 -19 182 -15 q 292 -10 252 -24 q 298 -10 296 -7 q 301 -17 301 -13 q 299 -26 301 -21 q 292 -31 297 -30 q 203 -40 244 -48 q 132 -6 163 -33 q 85 66 102 20 q 67 175 67 112 q 68 212 67 193 q 73 250 70 231 q 51 250 62 250 q 37 251 41 250 q 30 255 31 252 q 30 262 29 258 q 34 269 31 265 q 41 273 37 272 q 56 273 47 273 q 78 273 66 273 q 86 307 81 290 q 97 339 91 323 q 68 339 81 339 q 50 340 55 339 q 44 344 45 341 q 43 351 42 348 q 47 358 44 354 q 55 362 50 361 z "},"":{"ha":645,"x_min":23,"x_max":554,"o":"m 43 522 q 38 522 44 522 q 29 524 33 522 q 24 530 24 526 q 33 537 23 533 q 90 553 54 546 q 168 563 125 559 q 256 568 210 567 q 345 571 302 570 q 423 572 388 572 q 481 571 459 571 q 483 565 484 569 q 475 562 481 560 q 437 561 461 562 q 381 558 412 560 q 315 555 350 557 q 243 551 280 554 q 208 480 226 519 q 175 400 191 441 q 147 316 160 358 q 122 235 133 274 q 104 161 112 195 q 95 101 97 127 q 91 93 95 96 q 85 89 88 90 q 79 90 82 88 q 75 97 75 92 q 80 148 75 118 q 93 212 84 178 q 113 284 101 246 q 139 358 124 321 q 162 441 156 410 q 163 487 167 471 q 147 508 158 503 q 119 514 135 513 q 82 515 102 514 q 43 522 63 515 m 165 420 q 229 550 197 490 q 142 541 184 546 q 71 531 101 536 q 115 525 93 527 q 151 514 136 523 q 170 483 165 504 q 165 420 175 461 m 324 541 q 329 544 326 543 q 334 545 332 545 q 338 544 337 545 q 337 539 339 542 q 287 435 311 492 q 242 318 263 377 q 274 387 257 353 q 314 452 292 422 q 337 483 323 465 q 368 516 352 501 q 403 539 385 531 q 440 541 422 547 q 460 518 455 537 q 452 469 466 499 q 426 410 441 442 q 399 344 411 377 q 419 375 409 361 q 437 394 429 389 q 454 399 445 398 q 470 394 463 399 q 482 380 477 390 q 485 354 486 371 q 482 318 484 341 q 480 271 480 295 q 485 226 480 248 q 501 192 489 204 q 544 178 519 173 q 552 174 550 178 q 545 168 554 169 q 518 168 531 165 q 492 181 504 171 q 471 216 477 193 q 464 265 465 239 q 465 315 463 290 q 468 357 467 340 q 463 384 470 376 q 445 385 456 392 q 428 365 437 380 q 408 329 418 350 q 388 285 398 308 q 370 242 378 263 q 357 205 363 221 q 350 184 351 190 q 346 180 349 182 q 340 178 343 178 q 335 179 337 178 q 332 183 333 180 q 334 213 330 192 q 346 258 338 233 q 364 313 354 284 q 387 371 375 342 q 410 425 399 399 q 431 470 422 451 q 444 511 444 497 q 437 530 445 526 q 407 525 424 535 q 375 501 391 516 q 346 468 359 486 q 324 440 332 451 q 286 376 304 410 q 252 307 267 341 q 217 224 234 268 q 190 137 199 180 q 187 117 188 127 q 185 99 186 108 q 182 91 185 95 q 175 88 179 88 q 169 89 172 87 q 165 96 165 90 q 181 187 166 132 q 218 303 195 241 q 268 427 240 365 q 324 541 296 490 z "},"|":{"ha":193,"x_min":63,"x_max":123,"o":"m 86 638 q 97 649 87 649 q 114 641 106 648 q 121 620 120 635 q 122 582 123 604 q 117 536 120 560 q 111 489 114 511 q 105 449 108 467 q 102 422 103 431 q 98 328 100 380 q 93 220 95 276 q 88 107 90 164 q 84 -2 86 50 q 80 -13 83 -8 q 74 -19 78 -18 q 69 -17 71 -20 q 67 -3 67 -14 q 67 313 63 152 q 86 638 71 474 z "},"":{"ha":292,"x_min":-46,"x_max":305,"o":"m 112 552 q 122 562 113 562 q 140 554 132 562 q 148 530 146 549 q 147 487 149 511 q 142 436 146 463 q 135 386 138 409 q 152 386 144 388 q 167 379 161 384 q 175 364 173 373 q 174 345 178 356 q 153 311 167 330 q 125 278 138 292 q 120 167 122 226 q 115 47 118 107 q 147 72 131 58 q 178 100 163 86 q 206 129 192 114 q 231 154 219 143 q 268 195 252 176 q 292 224 284 213 q 297 226 295 226 q 301 225 299 226 q 304 221 303 223 q 303 216 305 218 q 274 180 290 199 q 241 140 258 161 q 216 114 231 129 q 186 83 202 99 q 151 52 169 67 q 114 25 133 37 l 110 -88 q 106 -99 109 -95 q 100 -105 103 -104 q 95 -103 97 -107 q 93 -90 93 -100 q 91 12 91 -39 q 30 -1 58 -3 q -23 25 -3 2 q -44 86 -43 48 q -35 157 -46 120 q -5 233 -24 195 q 41 304 14 270 q 98 362 67 337 q 104 457 101 409 q 112 552 107 504 m 95 287 l 96 326 q 55 273 74 302 q 21 214 36 244 q -3 153 7 183 q -16 97 -14 122 q -15 56 -19 73 q 0 30 -10 39 q 23 17 10 20 q 53 18 37 14 q 72 23 63 19 q 91 32 82 27 q 91 148 90 90 q 94 265 92 205 q 89 276 90 270 q 89 283 88 282 l 95 287 m 139 365 q 135 362 137 364 q 131 358 133 360 q 129 345 129 351 q 128 336 128 339 l 127 317 q 145 337 137 328 q 155 352 152 346 q 154 366 160 362 q 139 365 148 371 z "},"":{"ha":501,"x_min":75,"x_max":452,"o":"m 305 284 q 326 285 312 285 q 356 285 340 285 q 387 437 373 361 q 415 582 401 514 q 356 459 386 521 q 297 348 326 397 q 269 301 284 325 q 238 257 254 277 q 203 223 221 237 q 163 207 184 209 q 115 223 138 204 q 82 286 92 241 q 86 388 75 335 q 117 493 97 441 q 163 594 137 545 q 208 682 188 642 q 216 690 211 688 q 225 691 221 692 q 231 686 229 690 q 229 674 233 682 q 187 591 211 637 q 142 494 163 545 q 112 390 122 443 q 110 290 101 338 q 129 242 116 254 q 157 232 141 229 q 191 250 173 235 q 226 285 209 265 q 257 325 243 304 q 279 360 271 346 q 314 422 296 389 q 351 491 333 456 q 386 561 369 526 q 417 632 403 597 q 427 645 420 640 q 439 652 433 651 q 448 646 444 652 q 450 628 452 641 q 435 553 443 593 q 418 468 427 512 q 400 377 409 424 q 379 285 390 331 q 415 284 399 284 q 437 283 431 284 q 442 275 442 282 q 438 267 442 269 q 417 265 436 266 q 373 263 397 264 q 366 234 370 248 q 358 206 363 220 q 395 205 378 205 q 418 204 411 205 q 423 197 423 203 q 419 188 423 190 q 397 186 417 187 q 352 184 377 185 q 330 111 341 146 q 304 47 318 77 q 252 -34 278 -10 q 203 -57 225 -58 q 164 -37 180 -57 q 142 13 148 -17 q 146 78 137 43 q 180 144 154 113 q 188 148 184 148 q 195 147 192 149 q 199 143 198 146 q 197 137 199 140 q 166 83 175 113 q 158 26 157 52 q 170 -19 160 -1 q 197 -38 180 -37 q 236 -18 214 -39 q 282 55 258 3 q 308 117 296 84 q 330 184 320 149 q 300 183 314 183 q 281 184 286 183 q 274 188 275 184 q 274 195 273 191 q 278 201 275 198 q 286 205 281 205 q 307 206 293 206 q 336 206 320 206 q 344 234 340 220 q 351 263 348 248 q 320 262 333 262 q 300 263 306 262 q 293 267 295 263 q 293 273 292 270 q 297 280 294 277 q 305 284 300 284 z "},"":{"ha":302,"x_min":33,"x_max":263,"o":"m 132 264 q 137 269 136 268 q 140 271 139 271 q 152 269 146 274 q 154 257 157 265 q 131 197 136 217 q 138 171 127 177 q 155 170 145 167 q 175 181 164 174 q 198 200 186 189 q 220 222 209 211 q 239 243 230 233 q 253 258 248 252 q 259 258 256 261 q 260 253 263 256 q 242 232 252 244 q 221 209 232 221 q 198 186 210 197 q 173 168 185 175 q 150 159 161 160 q 129 163 138 157 q 113 190 116 172 q 120 233 111 208 q 108 217 116 226 q 93 200 101 208 q 76 184 85 191 q 59 175 67 177 q 42 179 50 173 q 34 200 34 185 q 42 236 33 218 q 65 263 51 253 q 97 275 79 274 q 132 264 115 276 m 51 202 q 51 188 49 193 q 58 184 53 183 q 72 195 63 186 q 90 216 80 204 q 108 238 99 227 q 124 255 117 249 q 100 264 112 265 q 78 253 88 262 q 61 231 68 244 q 51 202 53 217 z "},"":{"ha":367,"x_min":20,"x_max":240,"o":"m 57 80 q 66 60 67 71 q 58 41 65 50 q 42 30 52 33 q 26 32 33 26 q 20 48 20 37 q 24 70 20 60 q 38 84 29 80 q 57 80 46 88 m 136 80 q 145 60 146 71 q 137 41 144 50 q 121 30 131 33 q 105 32 112 26 q 99 48 99 37 q 103 70 99 60 q 117 84 108 80 q 136 80 125 88 m 230 80 q 239 60 240 71 q 231 41 237 50 q 215 30 224 33 q 199 32 205 26 q 192 48 192 37 q 197 70 192 60 q 211 84 202 80 q 230 80 219 88 z "},"":{"ha":324,"x_min":16,"x_max":280,"o":"m 173 127 q 181 120 180 126 q 176 111 183 113 q 162 110 172 110 q 137 108 151 109 q 106 105 123 106 q 75 104 90 104 q 47 102 60 103 q 28 101 35 101 q 19 103 21 99 q 20 113 17 108 q 46 168 27 139 q 89 227 65 197 q 140 289 113 257 q 190 351 166 320 q 230 412 213 382 q 252 470 247 442 q 250 509 256 493 q 232 531 244 524 q 204 535 220 538 q 171 518 187 532 q 141 478 155 504 q 120 414 127 452 q 114 404 118 407 q 105 404 109 402 q 98 412 101 406 q 97 426 95 417 q 122 494 104 467 q 161 535 139 521 q 205 550 182 548 q 244 542 227 551 q 270 513 261 533 q 275 464 280 493 q 253 405 270 436 q 213 345 236 375 q 164 284 190 314 q 112 224 137 253 q 67 167 87 194 q 36 114 46 139 q 70 117 49 115 q 111 122 91 120 q 149 125 132 124 q 173 127 166 127 z "},"":{"ha":364,"x_min":-7,"x_max":287,"o":"m 101 453 q 120 485 108 469 q 146 515 131 501 q 178 537 161 528 q 215 549 196 546 q 249 548 233 552 q 275 534 266 544 q 286 506 285 523 q 276 465 287 489 q 250 425 267 445 q 214 386 233 404 q 176 355 195 368 q 145 337 158 341 q 211 315 186 334 q 247 273 236 297 q 257 223 259 248 q 245 176 256 198 q 214 137 233 154 q 172 111 195 120 q 123 101 148 102 q 72 113 97 101 q 43 131 56 120 q 19 156 29 143 q 3 183 9 169 q -6 211 -4 198 q -5 218 -7 216 q 0 221 -3 220 q 5 220 3 221 q 8 216 8 218 q 19 188 11 202 q 36 163 26 174 q 59 143 47 151 q 87 129 72 134 q 126 126 106 124 q 165 136 146 128 q 198 157 183 144 q 222 187 213 171 q 232 222 230 204 q 223 261 233 241 q 187 300 212 285 q 126 318 162 316 q 107 322 112 319 q 103 329 102 325 q 112 339 105 333 q 131 350 120 344 q 145 359 135 352 q 167 375 155 365 q 194 398 180 386 q 222 424 208 410 q 246 451 235 437 q 264 477 257 464 q 272 505 273 492 q 263 526 270 518 q 242 536 255 534 q 214 535 229 539 q 183 520 198 531 q 156 497 168 510 q 133 470 143 484 q 119 445 124 456 q 113 441 117 442 q 106 441 109 440 q 102 446 103 443 q 101 453 100 449 z "},"":{"ha":231,"x_min":10,"x_max":184,"o":"m 80 517 q 96 524 85 520 q 120 531 107 528 q 143 539 132 535 q 162 544 155 542 q 172 548 166 550 q 181 539 177 545 q 182 523 184 534 q 174 498 179 512 q 161 468 169 484 q 147 438 154 452 q 134 412 140 424 q 127 396 128 401 q 103 333 116 368 q 77 262 91 299 q 50 187 63 224 q 23 115 36 149 q 19 108 22 111 q 14 105 16 106 q 10 108 11 105 q 12 117 10 110 q 76 320 41 218 q 154 525 112 423 q 134 515 145 520 q 114 505 124 510 q 95 496 104 500 q 83 492 87 493 q 74 494 77 491 q 71 501 71 497 q 74 510 71 505 q 80 517 76 515 z "},"":{"ha":538,"x_min":56,"x_max":535,"o":"m 414 737 q 428 745 420 750 q 442 730 437 741 q 442 698 446 720 q 499 665 476 692 q 528 591 522 636 q 529 491 535 545 q 505 377 523 437 q 462 261 488 318 q 406 152 437 203 q 341 65 375 101 q 282 14 312 32 q 222 -10 252 -5 l 217 -27 q 211 -38 215 -33 q 203 -43 207 -42 q 199 -38 200 -44 q 201 -21 197 -33 l 203 -12 q 149 -2 174 -14 q 104 32 123 9 q 72 91 84 56 q 58 174 60 127 q 63 248 56 208 q 81 331 69 288 q 111 415 93 373 q 151 493 129 456 q 199 560 173 531 q 253 609 225 590 q 326 670 288 647 q 401 698 365 692 l 414 737 m 180 254 q 178 246 180 248 q 172 242 175 243 q 165 244 168 241 q 160 252 161 246 q 152 341 151 299 q 160 422 152 383 q 133 356 145 390 q 113 290 121 322 q 100 226 104 257 q 96 169 95 196 q 100 90 93 122 q 124 39 108 58 q 162 13 139 20 q 208 10 184 6 q 293 343 247 175 q 395 680 340 511 q 343 658 369 675 q 290 615 316 641 q 292 606 294 611 q 286 597 291 601 q 248 562 267 584 q 211 495 227 531 q 185 420 195 460 q 173 339 175 381 q 180 254 171 297 m 486 645 q 438 679 465 672 q 420 622 431 654 q 398 561 409 591 q 377 508 386 532 q 364 474 367 484 l 229 16 q 280 41 254 24 q 326 84 305 58 q 385 167 356 120 q 438 268 414 215 q 480 377 463 322 q 505 483 498 433 q 509 575 513 533 q 486 645 505 618 z "},"":{"ha":214,"x_min":44,"x_max":165,"o":"m 46 518 q 65 544 53 528 q 90 577 77 560 q 117 612 104 595 q 139 641 131 630 q 150 645 142 645 q 158 641 158 645 q 160 612 159 629 q 162 576 161 594 q 164 542 163 558 q 165 517 165 526 q 160 508 163 512 q 153 503 156 505 q 146 503 149 502 q 141 509 142 504 q 139 525 140 514 q 137 550 138 536 q 136 578 137 564 q 136 606 136 593 q 116 578 127 593 q 95 551 105 564 q 77 526 85 537 q 63 509 68 515 q 55 504 59 505 q 49 505 52 503 q 45 510 46 506 q 46 518 44 514 z "},"":{"ha":703,"x_min":-27,"x_max":717,"o":"m 148 437 q 174 421 156 426 q 215 415 192 416 q 265 416 239 414 q 317 419 292 418 q 363 421 342 421 q 397 417 384 421 q 401 412 399 416 q 404 404 403 409 q 402 395 404 399 q 394 389 399 391 q 331 350 367 377 q 257 288 295 324 q 182 208 219 252 q 113 118 144 165 q 60 23 82 71 q 30 -69 37 -24 q 36 -151 22 -116 q 79 -205 49 -186 q 153 -225 109 -224 q 250 -205 197 -226 q 380 -131 316 -178 q 503 -24 444 -83 q 613 100 562 35 q 703 226 664 165 q 712 227 707 231 q 714 218 717 224 q 663 132 694 178 q 596 41 633 87 q 516 -47 558 -4 q 430 -127 473 -90 q 342 -191 386 -164 q 259 -233 299 -219 q 134 -253 190 -258 q 41 -222 78 -248 q -12 -151 3 -195 q -15 -52 -27 -107 q 21 43 -4 -6 q 79 138 46 91 q 150 228 112 185 q 227 304 189 270 q 300 363 265 339 q 360 394 335 386 q 323 386 346 390 q 273 380 300 382 q 220 380 247 378 q 170 387 192 381 q 132 407 148 394 q 113 441 116 420 q 118 497 110 467 q 146 559 127 527 q 192 625 165 592 q 252 688 219 658 q 320 746 284 719 q 394 793 356 773 q 460 821 424 809 q 531 837 496 833 q 598 835 566 841 q 650 808 629 828 q 678 753 671 788 q 673 663 686 718 q 630 538 657 600 q 564 413 603 475 q 553 402 560 405 q 542 400 547 399 q 535 406 537 401 q 537 419 533 411 q 599 537 571 473 q 642 667 626 601 q 647 742 652 711 q 626 789 642 772 q 587 813 611 807 q 534 817 562 819 q 476 804 506 814 q 418 777 446 793 q 339 725 377 755 q 266 663 300 696 q 206 597 233 631 q 163 533 179 563 q 141 478 146 503 q 148 437 137 453 m 475 880 q 493 906 482 890 q 519 939 505 922 q 546 974 533 957 q 568 1003 559 992 q 579 1007 571 1007 q 587 1003 587 1007 q 589 974 588 991 q 591 938 590 956 q 592 904 592 920 q 593 879 593 888 q 588 870 592 874 q 581 865 585 867 q 574 865 577 864 q 570 871 571 866 q 568 887 569 876 q 566 912 567 898 q 565 940 565 926 q 565 968 565 955 q 545 940 556 955 q 524 912 534 926 q 505 888 514 899 q 492 871 497 877 q 484 866 488 867 q 477 867 480 865 q 474 872 475 868 q 475 880 473 875 z "},"":{"ha":639,"x_min":7,"x_max":748,"o":"m 711 735 q 723 745 716 743 q 736 745 730 747 q 745 736 742 742 q 743 722 748 729 q 669 584 707 656 q 595 437 631 511 q 527 287 559 362 q 469 141 494 212 q 426 6 443 71 q 403 -112 409 -58 q 400 -129 403 -122 q 393 -137 397 -135 q 387 -136 390 -139 q 384 -122 384 -133 q 402 10 385 -64 q 449 169 420 84 q 390 78 420 122 q 326 -3 359 34 q 228 -94 274 -62 q 145 -135 182 -127 q 79 -132 107 -144 q 34 -89 51 -119 q 12 -14 17 -59 q 16 88 7 31 q 61 284 31 184 q 129 477 91 384 q 209 655 167 571 q 290 801 251 738 q 301 810 295 809 q 310 809 306 811 q 316 802 314 807 q 315 792 318 797 q 243 650 281 730 q 171 478 205 569 q 107 291 136 388 q 61 99 78 194 q 55 -37 46 16 q 97 -106 65 -90 q 182 -94 129 -121 q 307 11 235 -67 q 374 94 342 48 q 436 189 407 139 q 490 291 465 239 q 539 394 516 343 q 622 569 578 483 q 711 735 666 655 m 463 875 q 482 900 470 884 q 507 934 494 916 q 534 969 521 952 q 556 998 548 986 q 567 1001 559 1001 q 575 997 575 1001 q 577 968 576 986 q 579 933 578 951 q 581 899 580 915 q 582 873 582 883 q 577 865 580 869 q 570 860 573 861 q 562 859 566 858 q 558 865 559 860 q 556 881 557 871 q 554 906 555 892 q 553 935 554 920 q 553 962 553 950 q 533 935 544 950 q 512 907 522 920 q 493 883 502 894 q 480 866 485 871 q 472 860 476 861 q 466 861 469 860 q 462 866 463 862 q 463 875 461 870 z "},"":{"ha":674,"x_min":-163,"x_max":662,"o":"m -150 109 q -158 110 -155 106 q -162 121 -161 114 q -162 134 -163 128 q -155 144 -160 141 q -36 187 -107 165 q 118 231 35 209 q 220 402 167 318 q 325 559 273 486 q 428 691 378 633 q 519 786 477 750 q 568 820 545 809 q 609 832 591 832 q 639 821 627 832 q 655 786 651 809 q 641 686 662 741 q 612 606 626 650 q 582 515 597 563 q 553 416 567 467 q 526 311 539 364 q 651 319 599 319 q 656 314 655 318 q 656 306 657 310 q 650 300 654 303 q 639 299 645 298 q 587 296 618 299 q 521 286 557 292 q 497 170 507 228 q 480 57 486 112 q 471 -48 473 3 q 472 -142 469 -99 q 471 -156 474 -150 q 464 -165 468 -162 q 454 -166 459 -167 q 447 -158 449 -165 q 454 55 441 -57 q 493 281 467 167 q 319 244 405 265 q 143 199 233 223 q 78 70 109 134 q 23 -54 48 5 q -21 -166 -2 -113 q -51 -261 -40 -218 q -60 -277 -53 -271 q -75 -283 -67 -282 q -88 -279 -82 -283 q -93 -264 -94 -274 q -69 -173 -86 -224 q -29 -64 -53 -122 q 27 57 -4 -6 q 93 186 58 120 q -47 145 17 165 q -150 109 -110 124 m 524 756 q 440 668 485 722 q 349 547 395 614 q 256 401 303 479 q 166 243 209 323 q 337 281 251 264 q 499 307 423 297 q 551 494 522 403 q 614 668 581 586 q 632 727 625 699 q 636 771 639 755 q 625 794 633 786 q 605 802 618 803 q 572 791 592 802 q 524 756 552 780 m 543 877 q 562 903 550 887 q 588 937 574 919 q 615 972 601 954 q 637 1001 628 989 q 648 1004 639 1004 q 656 1000 656 1004 q 657 971 656 988 q 659 936 658 954 q 661 902 660 918 q 662 876 662 886 q 657 868 660 871 q 650 862 654 864 q 643 862 646 861 q 639 868 639 863 q 636 884 637 873 q 635 909 635 895 q 634 938 634 923 q 633 965 633 952 q 614 938 624 952 q 592 910 603 923 q 574 885 582 896 q 560 869 565 874 q 553 863 556 864 q 546 864 549 862 q 542 869 543 865 q 543 877 541 873 z "},"":{"ha":273,"x_min":-45,"x_max":283,"o":"m -40 100 q -41 146 -45 120 q -28 196 -37 171 q -2 244 -18 221 q 34 282 14 267 q 78 304 54 298 q 127 302 101 310 q 144 300 137 307 q 153 282 150 293 q 156 257 156 270 q 154 235 156 243 q 182 222 165 226 q 216 218 199 218 q 248 220 233 217 q 273 226 263 222 q 281 223 278 229 q 277 214 283 218 q 249 205 265 207 q 215 203 233 202 q 180 207 197 203 q 149 218 163 211 q 129 171 141 195 q 100 127 116 148 q 64 89 84 105 q 23 63 44 72 q -18 63 -1 52 q -40 100 -35 73 m 116 290 q 64 271 88 290 q 20 225 39 252 q -10 168 1 199 q -21 112 -21 137 q -9 80 -21 88 q 25 83 4 72 q 53 105 39 90 q 81 139 68 120 q 106 180 95 158 q 125 225 118 203 l 128 232 q 112 257 117 241 q 116 290 107 273 m 54 386 q 72 412 61 396 q 98 446 84 428 q 125 481 112 463 q 147 509 138 498 q 158 513 150 513 q 166 509 166 513 q 168 480 167 497 q 170 444 169 463 q 171 410 171 426 q 172 385 172 394 q 167 376 171 380 q 160 371 164 373 q 153 371 156 370 q 149 377 150 372 q 147 393 148 382 q 145 418 146 404 q 144 447 144 432 q 144 474 144 461 q 124 447 135 461 q 103 419 113 432 q 84 394 93 405 q 71 377 75 383 q 63 372 67 373 q 56 373 59 371 q 53 378 54 374 q 54 386 52 382 z "},"":{"ha":288,"x_min":-39,"x_max":302,"o":"m 108 235 q 115 243 113 241 q 120 246 118 245 q 137 243 129 250 q 140 225 145 237 q 106 135 113 165 q 117 97 100 106 q 141 96 127 90 q 172 112 156 101 q 205 140 188 124 q 238 173 222 156 q 267 203 254 189 q 288 226 280 218 q 297 227 292 231 q 298 218 302 223 q 272 188 286 205 q 240 153 257 171 q 205 118 223 135 q 169 91 187 102 q 134 78 151 81 q 103 85 117 75 q 80 125 83 98 q 89 188 76 152 q 72 166 83 179 q 49 139 61 152 q 23 116 37 127 q -1 103 10 105 q -27 108 -15 99 q -39 139 -39 118 q -26 193 -39 167 q 8 234 -13 218 q 55 252 29 250 q 108 235 82 254 m -14 144 q -13 122 -16 129 q -3 116 -11 114 q 18 133 5 119 q 45 163 31 146 q 72 197 58 180 q 95 221 86 213 q 60 235 78 237 q 27 219 42 233 q 1 185 12 206 q -14 144 -10 165 m 52 360 q 71 386 59 370 q 97 420 83 402 q 123 455 110 437 q 146 484 137 472 q 156 487 148 487 q 165 483 165 487 q 166 454 165 471 q 168 419 167 437 q 170 385 169 401 q 171 359 171 369 q 166 351 169 354 q 159 346 163 347 q 152 345 155 344 q 148 351 148 346 q 145 367 146 356 q 144 392 144 378 q 142 421 143 406 q 142 448 142 435 q 122 421 133 435 q 101 393 112 406 q 83 368 91 380 q 69 352 74 357 q 62 346 65 347 q 55 347 58 346 q 51 352 52 348 q 52 360 50 356 z "},"":{"ha":263,"x_min":-33,"x_max":278,"o":"m 122 301 q 127 274 130 290 q 115 242 124 258 q 89 209 105 225 q 56 181 73 194 q 22 161 39 169 q -8 154 5 154 q -9 133 -10 143 q -5 114 -8 122 q 15 86 2 94 q 45 79 29 78 q 78 85 61 79 q 112 101 95 91 q 153 127 132 112 q 194 158 174 142 q 231 192 214 175 q 263 224 249 209 q 272 225 267 229 q 273 216 278 221 q 236 173 260 197 q 184 128 212 150 q 127 88 156 105 q 76 64 99 71 q 47 58 61 60 q 19 60 32 57 q -6 72 5 63 q -24 96 -17 80 q -33 138 -33 114 q -26 187 -33 162 q -5 237 -19 212 q 28 282 8 261 q 56 304 42 296 q 84 314 71 312 q 106 312 97 316 q 122 301 116 309 m 50 271 q 17 228 32 255 q -5 171 1 200 q 23 178 7 170 q 54 197 39 186 q 83 223 69 209 q 104 252 96 238 q 112 276 112 265 q 103 292 113 287 q 80 291 95 296 q 50 271 65 286 m 59 394 q 78 420 66 404 q 103 454 90 436 q 130 489 117 471 q 152 518 144 506 q 163 521 155 521 q 171 517 171 521 q 173 488 172 505 q 175 453 174 471 q 177 419 176 435 q 178 393 178 403 q 173 385 176 388 q 166 380 169 381 q 158 379 162 378 q 154 385 155 380 q 152 401 153 390 q 150 426 151 412 q 149 455 150 440 q 149 482 149 469 q 129 455 140 469 q 108 427 118 440 q 89 402 98 414 q 76 386 81 391 q 68 380 72 381 q 62 381 65 380 q 58 386 59 382 q 59 394 57 390 z "},"":{"ha":637,"x_min":8,"x_max":637,"o":"m 10 125 q 16 222 8 169 q 40 331 24 275 q 80 440 56 386 q 133 544 103 495 q 196 632 162 592 q 266 696 229 671 q 353 770 307 741 q 443 809 399 799 q 525 810 487 820 q 589 770 564 801 q 628 672 620 732 q 629 541 637 613 q 598 391 621 469 q 541 238 575 313 q 467 96 508 163 q 382 -19 426 29 q 300 -88 342 -63 q 217 -119 258 -113 q 140 -112 177 -124 q 76 -68 104 -99 q 31 12 48 -37 q 10 125 13 60 m 170 230 q 168 219 171 223 q 160 215 165 215 q 150 217 155 214 q 144 227 146 220 q 134 345 133 289 q 145 452 135 401 q 109 365 125 409 q 82 278 93 321 q 65 194 71 235 q 60 119 59 154 q 67 9 55 53 q 102 -59 79 -35 q 158 -90 126 -84 q 225 -86 190 -96 q 296 -53 260 -77 q 363 7 331 -29 q 440 116 402 53 q 510 248 478 178 q 565 391 541 318 q 598 531 588 465 q 602 653 607 597 q 571 743 597 708 q 519 786 549 775 q 454 790 488 796 q 385 761 420 783 q 316 704 349 739 q 318 692 319 699 q 309 680 316 686 q 284 659 296 671 q 259 634 271 648 q 211 547 233 594 q 177 448 190 500 q 162 341 165 397 q 170 230 160 286 m 477 884 q 495 909 484 893 q 521 943 507 925 q 548 978 535 960 q 570 1007 561 995 q 581 1010 573 1010 q 589 1006 589 1010 q 591 977 590 994 q 593 942 592 960 q 594 908 594 924 q 595 882 595 892 q 590 874 594 877 q 583 869 587 870 q 576 868 579 867 q 572 874 573 869 q 570 890 571 879 q 568 915 569 901 q 567 944 567 929 q 567 971 567 958 q 547 944 558 958 q 526 916 536 929 q 507 891 516 903 q 494 875 499 880 q 486 869 490 870 q 480 870 482 869 q 476 875 477 871 q 477 884 475 879 z "},"":{"ha":465,"x_min":-32,"x_max":696,"o":"m -20 -152 q -28 -150 -25 -154 q -31 -139 -31 -146 q -30 -125 -32 -132 q -23 -117 -28 -119 q 53 -101 17 -107 q 123 -92 88 -95 q 140 -1 129 -50 q 166 100 151 47 q 198 208 180 152 q 237 321 216 264 q 279 471 265 410 q 293 571 292 532 q 284 632 295 611 q 256 663 274 653 q 212 674 237 673 q 157 677 186 676 q 95 680 127 677 q 31 694 63 683 q 10 700 15 696 q 6 710 5 705 q 13 721 7 716 q 27 729 19 726 q 125 752 71 743 q 237 768 178 762 q 356 777 295 774 q 475 783 416 781 q 587 785 533 785 q 687 786 641 786 q 695 779 696 786 q 685 772 694 772 q 585 769 643 771 q 460 762 526 767 q 394 592 420 658 q 351 486 368 525 q 326 429 335 446 q 314 407 318 412 q 308 403 309 401 q 305 403 307 405 q 299 392 303 402 q 284 354 295 382 q 203 116 238 231 q 150 -90 167 1 q 233 -89 191 -87 q 322 -100 274 -92 q 327 -105 326 -102 q 326 -110 328 -107 q 320 -114 324 -113 q 309 -114 316 -115 q 222 -107 261 -107 q 147 -111 184 -106 q 146 -120 146 -116 q 140 -133 144 -128 q 131 -139 136 -137 q 123 -137 127 -140 q 119 -124 119 -133 q 119 -119 119 -121 q 120 -115 120 -117 q 54 -130 88 -120 q -20 -152 20 -139 m 429 760 q 338 752 384 756 q 249 741 292 747 q 164 727 205 735 q 88 711 123 720 q 151 703 120 705 q 211 693 183 700 q 261 674 239 687 q 295 637 283 662 q 308 573 307 613 q 295 473 309 533 q 360 624 326 552 q 429 760 394 696 m 354 877 q 373 902 361 886 q 399 936 385 918 q 425 971 412 954 q 448 1000 439 988 q 458 1003 450 1003 q 467 999 467 1003 q 468 970 467 988 q 470 935 469 953 q 472 901 471 917 q 473 875 473 885 q 468 867 471 871 q 461 862 465 863 q 454 861 457 860 q 450 867 450 862 q 447 884 448 873 q 446 908 446 894 q 444 937 445 922 q 444 964 444 952 q 424 937 435 952 q 403 909 414 922 q 385 885 393 896 q 371 868 376 873 q 364 862 367 863 q 357 863 360 862 q 353 868 354 864 q 354 877 352 872 z "},"":{"ha":170,"x_min":-44,"x_max":182,"o":"m -1 249 q 8 256 2 255 q 19 255 14 258 q 27 248 24 253 q 27 235 30 242 q 2 180 13 204 q -14 138 -8 156 q -18 109 -19 120 q -10 93 -18 97 q 15 92 0 87 q 48 108 30 97 q 84 135 65 119 q 119 167 103 151 q 149 199 136 184 q 170 224 163 214 q 174 226 172 226 q 179 225 177 226 q 182 221 181 223 q 180 216 182 218 q 134 161 161 190 q 79 109 107 131 q 23 78 50 87 q -24 82 -3 69 q -40 107 -37 91 q -40 146 -44 124 q -26 194 -36 167 q -1 249 -16 220 m 11 373 q 30 398 18 382 q 55 432 41 414 q 82 467 69 450 q 104 496 95 484 q 115 499 107 499 q 123 495 123 499 q 125 466 124 484 q 127 431 126 449 q 129 397 128 413 q 129 371 129 381 q 124 363 128 367 q 117 358 121 359 q 110 357 114 356 q 106 363 107 358 q 104 380 105 369 q 102 404 103 390 q 101 433 101 418 q 101 460 101 448 q 81 433 92 448 q 60 405 70 418 q 41 381 50 392 q 28 364 33 369 q 20 358 24 359 q 14 359 16 358 q 10 364 11 360 q 11 373 9 368 z "},"":{"ha":290,"x_min":-43,"x_max":301,"o":"m 120 233 q 130 241 124 239 q 141 240 136 242 q 149 232 146 237 q 148 219 152 226 q 112 121 121 158 q 120 75 103 85 q 144 74 130 70 q 173 90 157 79 q 205 118 189 101 q 238 153 222 135 q 267 191 254 172 q 290 226 281 210 q 294 229 292 229 q 298 227 297 229 q 301 223 300 226 q 299 218 301 220 q 256 152 281 185 q 205 95 231 118 q 152 61 178 71 q 106 65 127 51 q 87 100 90 76 q 91 156 84 124 q 63 115 77 133 q 35 86 49 97 q 6 74 20 75 q -23 82 -8 72 q -39 107 -36 91 q -39 146 -43 124 q -25 194 -35 167 q -1 249 -15 220 q 9 256 3 255 q 20 255 15 258 q 28 248 25 253 q 27 235 31 242 q 3 180 14 204 q -13 138 -7 156 q -18 109 -18 120 q -9 93 -17 97 q 22 97 5 84 q 57 133 39 110 q 90 184 74 156 q 120 233 107 212 m 51 346 q 70 371 58 355 q 95 405 82 387 q 122 440 109 422 q 144 469 135 457 q 155 472 147 472 q 163 468 163 472 q 165 439 164 456 q 167 404 166 422 q 169 370 168 386 q 169 344 169 354 q 165 336 168 339 q 157 331 161 332 q 150 330 154 329 q 146 336 147 331 q 144 352 145 341 q 142 377 143 363 q 141 406 141 391 q 141 433 141 420 q 121 406 132 420 q 100 378 110 391 q 81 353 90 365 q 68 337 73 342 q 60 331 64 332 q 54 332 56 331 q 50 337 51 333 q 51 346 49 341 z "},"":{"ha":273,"x_min":-46,"x_max":283,"o":"m 113 388 q 121 392 116 394 q 129 384 126 390 q 130 373 131 381 q 125 354 129 365 q 117 330 122 343 q 107 305 112 318 q 117 304 112 305 q 127 302 122 303 q 144 300 137 307 q 153 282 150 293 q 156 257 156 270 q 154 235 156 243 q 182 222 165 226 q 216 218 199 218 q 248 220 233 217 q 273 226 263 222 q 281 223 278 229 q 277 214 283 218 q 249 205 265 207 q 215 203 233 202 q 180 207 197 203 q 149 218 163 211 q 129 171 141 195 q 100 127 116 148 q 64 89 84 105 q 23 63 44 72 q 20 62 20 62 q 10 30 15 46 q 0 0 5 15 q -4 -6 -1 -3 q -8 -9 -6 -8 q -11 -6 -10 -9 q -10 3 -12 -3 q -2 30 -6 16 q 5 58 1 44 q -23 67 -12 56 q -40 100 -35 78 q -38 159 -46 126 q -15 223 -31 192 q 27 276 2 253 q 82 305 52 299 q 113 388 97 346 m -21 112 q -13 83 -21 93 q 11 78 -4 74 q 40 177 24 127 q 73 277 56 226 q 35 246 52 265 q 6 203 18 226 q -14 156 -7 180 q -21 112 -21 132 m 116 290 q 107 290 112 290 q 99 288 103 289 q 89 267 93 276 q 84 254 86 258 q 58 175 73 220 q 27 84 43 131 q 55 107 41 93 q 82 140 69 122 q 106 181 95 159 q 125 225 118 203 l 128 232 q 112 257 117 241 q 116 290 107 273 z "},"":{"ha":986,"x_min":8,"x_max":1000,"o":"m 10 125 q 16 222 8 169 q 40 331 24 275 q 80 440 56 386 q 133 544 103 495 q 196 632 162 592 q 266 696 229 671 q 353 770 307 741 q 443 809 399 799 q 525 810 487 820 q 589 770 564 801 q 597 759 593 765 q 605 746 601 753 q 640 771 622 760 q 677 793 658 783 q 743 821 707 809 q 814 837 779 833 q 880 835 849 841 q 933 808 912 828 q 961 753 954 788 q 956 663 969 718 q 913 538 940 600 q 847 413 886 475 q 836 402 843 405 q 825 400 830 399 q 818 406 820 401 q 820 419 816 411 q 881 537 854 473 q 925 667 909 601 q 930 742 935 711 q 909 789 925 772 q 870 813 894 807 q 817 817 845 819 q 759 804 789 814 q 701 777 728 793 q 616 721 658 753 q 633 585 637 663 q 605 420 628 507 q 649 421 629 421 q 679 417 668 421 q 684 412 682 416 q 687 404 686 409 q 685 395 687 399 q 677 389 682 391 q 629 361 656 380 q 573 318 602 343 q 534 222 556 269 q 488 131 512 175 q 436 50 463 88 q 382 -19 409 12 q 347 -54 365 -38 q 311 -81 329 -69 q 321 -158 306 -125 q 366 -208 336 -190 q 439 -225 396 -225 q 533 -205 482 -225 q 663 -131 599 -178 q 786 -24 727 -83 q 896 100 845 35 q 986 226 947 165 q 995 227 990 231 q 997 218 1000 224 q 946 132 977 178 q 879 41 916 87 q 799 -47 841 -4 q 713 -127 756 -90 q 625 -191 669 -164 q 542 -233 582 -219 q 432 -253 482 -254 q 345 -234 382 -252 q 286 -182 307 -216 q 263 -106 265 -149 q 171 -119 215 -124 q 93 -83 127 -113 q 36 -1 58 -54 q 10 125 14 51 m 170 230 q 168 219 171 223 q 160 215 165 215 q 150 217 155 214 q 144 227 146 220 q 134 345 133 289 q 145 452 135 401 q 109 365 125 409 q 82 278 93 321 q 65 194 71 235 q 60 119 59 154 q 70 -3 54 44 q 116 -71 86 -50 q 185 -93 146 -93 q 265 -71 224 -92 q 266 -62 265 -66 q 268 -52 267 -57 q 309 54 280 -1 q 377 159 339 108 q 460 256 416 211 q 545 335 504 302 q 553 357 550 346 q 561 380 557 369 q 506 379 535 378 q 455 387 478 380 q 415 406 431 393 q 396 441 399 419 q 405 507 392 471 q 443 582 418 543 q 504 657 469 620 q 580 728 539 695 q 576 736 578 732 q 571 743 574 740 q 519 786 549 775 q 454 790 488 796 q 385 761 420 783 q 316 704 349 739 q 318 692 319 699 q 309 680 316 686 q 284 659 296 671 q 259 634 271 648 q 211 547 233 594 q 177 448 190 500 q 162 341 165 397 q 170 230 160 286 m 431 437 q 452 422 437 427 q 485 415 466 417 q 527 415 505 414 q 572 417 550 416 q 591 498 584 458 q 602 574 599 537 q 603 642 605 610 q 592 701 601 675 q 514 626 550 665 q 456 552 479 588 q 426 485 433 516 q 431 437 418 455 m 363 7 q 445 123 405 56 q 518 266 485 190 q 455 197 486 234 q 399 122 425 161 q 352 44 373 83 q 321 -34 332 4 q 342 -15 332 -24 q 363 7 352 -5 m 595 384 q 593 376 594 380 q 590 367 592 371 q 619 384 605 377 q 643 394 632 391 q 595 384 625 388 z "},"":{"ha":401,"x_min":-45,"x_max":415,"o":"m 259 301 q 265 274 267 290 q 252 242 262 258 q 226 209 242 225 q 194 181 211 194 q 159 161 176 169 q 129 154 142 154 q 129 133 128 143 q 133 114 129 122 q 153 86 139 94 q 182 79 166 78 q 215 85 198 79 q 249 101 233 91 q 290 127 269 112 q 331 158 312 142 q 369 192 351 175 q 401 224 386 209 q 410 225 405 229 q 411 216 415 221 q 373 173 397 197 q 321 128 349 150 q 265 88 293 105 q 214 64 236 71 q 184 58 199 60 q 156 60 169 57 q 132 72 143 63 q 114 96 120 80 q 105 133 106 112 q 66 91 87 110 q 23 63 46 73 q -18 63 -1 52 q -40 100 -35 73 q -41 146 -45 120 q -28 196 -37 171 q -2 244 -18 221 q 34 282 14 267 q 78 304 54 298 q 127 302 101 310 q 138 303 133 305 q 145 296 142 301 q 150 284 148 291 q 153 267 152 276 q 165 282 158 274 q 194 304 180 296 q 221 314 208 312 q 244 312 234 316 q 259 301 254 309 m 116 290 q 64 271 88 290 q 20 225 39 252 q -10 168 1 199 q -21 112 -21 137 q -9 80 -21 88 q 25 83 4 72 q 49 101 37 89 q 73 127 61 112 q 95 160 84 142 q 114 197 106 178 q 119 209 116 203 q 124 222 121 216 l 125 225 l 128 232 q 112 257 117 241 q 116 290 107 273 m 187 271 q 166 248 176 262 q 148 217 156 233 q 135 182 144 201 l 132 171 q 161 178 145 170 q 191 197 176 186 q 220 223 207 209 q 241 252 233 238 q 250 276 249 265 q 241 292 250 287 q 217 291 232 296 q 187 271 203 286 z "},"":{"ha":170,"x_min":36,"x_max":156,"o":"m 154 605 q 136 579 148 595 q 110 545 124 563 q 83 510 97 528 q 61 482 70 493 q 50 478 58 478 q 42 482 42 478 q 40 511 41 494 q 38 547 39 528 q 37 581 37 565 q 36 606 36 597 q 40 615 37 611 q 48 620 44 618 q 55 620 52 621 q 59 614 58 619 q 62 598 61 609 q 63 573 63 587 q 64 544 64 559 q 65 517 65 530 q 84 544 73 530 q 105 572 95 559 q 124 597 115 586 q 137 614 133 608 q 145 619 141 618 q 152 618 149 620 q 155 613 154 617 q 154 605 156 609 z "},"":{"ha":659,"x_min":-129,"x_max":609,"o":"m 21 365 q 55 479 34 427 q 103 575 77 531 q 161 653 130 618 q 223 717 191 688 q 309 785 266 756 q 390 825 352 813 q 465 831 436 838 q 506 804 493 825 q 516 751 518 783 q 498 680 514 718 q 453 595 480 637 q 399 515 426 553 q 347 448 371 477 q 308 399 322 418 q 307 396 305 395 q 313 399 308 397 q 362 408 338 408 q 404 398 385 408 q 437 366 423 387 q 457 312 450 345 q 459 247 463 283 q 445 169 456 210 q 531 195 492 182 q 596 226 570 209 q 605 227 600 231 q 605 218 609 223 q 530 177 573 195 q 438 146 488 159 q 385 29 419 88 q 305 -85 352 -31 q 199 -182 258 -139 q 71 -250 140 -226 q -18 -265 20 -269 q -82 -243 -57 -262 q -118 -196 -107 -225 q -125 -132 -129 -166 q -100 -62 -120 -97 q -41 4 -80 -27 q 50 57 -3 35 q 162 98 103 80 q 284 131 222 116 q 403 158 346 145 q 421 233 416 197 q 421 297 426 268 q 402 345 415 327 q 370 369 388 362 q 331 376 352 377 q 286 368 309 375 q 272 367 277 365 q 265 373 267 369 q 266 384 264 377 q 272 398 267 391 q 316 460 290 426 q 369 531 342 494 q 422 607 397 569 q 467 684 448 646 q 484 737 479 709 q 484 785 490 765 q 458 812 478 805 q 399 804 438 820 q 332 769 368 791 q 259 715 296 746 q 189 644 223 684 q 126 560 154 605 q 79 465 98 516 q 53 360 59 414 q 46 350 51 353 q 36 349 41 348 q 26 354 31 350 q 21 365 22 358 m 65 -224 q 163 -171 114 -208 q 255 -84 212 -133 q 335 22 299 -35 q 393 133 371 78 q 280 107 338 120 q 168 78 222 94 q 64 42 113 63 q -22 -7 15 22 q -80 -68 -59 -36 q -106 -129 -101 -99 q -103 -183 -112 -158 q -72 -222 -95 -207 q -16 -238 -50 -236 q 65 -224 19 -240 m 586 996 q 567 971 579 987 q 541 937 555 955 q 515 902 528 920 q 492 873 501 885 q 482 870 490 870 q 473 874 473 870 q 472 903 473 886 q 470 938 471 920 q 468 972 469 956 q 467 998 467 988 q 472 1006 468 1003 q 479 1011 475 1010 q 486 1012 483 1013 q 490 1006 490 1011 q 493 990 492 1001 q 494 965 494 979 q 495 936 495 951 q 496 909 496 922 q 515 936 505 922 q 536 964 526 951 q 555 989 546 977 q 569 1005 564 1000 q 576 1011 573 1010 q 583 1010 580 1011 q 587 1005 586 1009 q 586 996 588 1001 z "},"":{"ha":316,"x_min":-212,"x_max":332,"o":"m 329 214 q 225 153 275 186 q 124 84 174 120 q 131 11 135 53 q 110 -77 126 -31 q 67 -169 93 -123 q 9 -253 41 -215 q -59 -318 -23 -291 q -130 -352 -95 -345 q -167 -349 -152 -356 q -193 -328 -183 -342 q -207 -295 -203 -314 q -209 -256 -212 -275 q -174 -164 -203 -209 q -104 -75 -146 -118 q -14 6 -63 -33 q 82 78 35 45 q 60 83 72 83 q 33 80 47 83 q 14 81 20 78 q 6 90 7 84 q 8 104 5 96 q 20 120 12 112 q 53 152 37 137 q 85 180 69 166 q 115 210 101 195 q 140 246 129 226 q 156 283 154 269 q 151 304 158 297 q 131 309 144 310 q 103 299 118 307 q 48 255 71 280 q 5 206 24 230 q -1 203 3 203 q -9 205 -5 203 q -13 211 -12 207 q -10 218 -14 214 q 12 241 1 229 q 36 267 23 254 q 63 291 48 280 q 97 314 78 303 q 139 323 120 325 q 170 307 159 320 q 182 274 182 295 q 167 228 182 253 q 137 190 153 207 q 103 159 121 174 q 67 131 86 145 q 32 99 49 116 q 76 106 56 108 q 110 97 96 105 q 209 165 159 133 q 318 226 260 196 q 325 228 322 229 q 330 224 328 226 q 332 219 332 222 q 329 214 332 216 m -132 -324 q -73 -289 -103 -314 q -17 -231 -44 -265 q 31 -159 9 -198 q 68 -80 53 -120 q 90 -3 83 -41 q 93 65 97 34 q 4 -2 50 34 q -82 -79 -41 -38 q -151 -164 -122 -120 q -188 -256 -180 -209 q -190 -286 -190 -271 q -183 -312 -189 -301 q -165 -327 -177 -322 q -132 -324 -152 -331 m 223 502 q 204 476 216 492 q 179 443 192 460 q 152 408 165 425 q 130 379 139 390 q 119 375 127 375 q 111 380 111 375 q 109 408 110 391 q 107 444 108 426 q 105 478 106 462 q 105 503 105 494 q 109 512 105 508 q 117 517 113 516 q 124 517 120 518 q 128 511 127 516 q 130 495 129 506 q 132 470 131 484 q 133 442 133 456 q 133 414 133 427 q 153 442 142 427 q 173 470 163 456 q 192 494 184 483 q 206 511 201 505 q 214 516 210 516 q 220 516 218 517 q 224 510 223 514 q 223 502 225 507 z "},"":{"ha":599,"x_min":-31,"x_max":633,"o":"m 405 475 q 497 549 460 514 q 557 616 535 584 q 590 674 580 647 q 599 723 600 701 q 586 768 598 751 q 555 794 574 785 q 513 805 537 803 q 465 805 490 807 q 418 798 441 803 q 377 788 394 793 q 275 743 322 771 q 196 682 229 716 q 146 608 163 648 q 132 528 129 569 q 148 468 134 499 q 184 408 162 438 q 232 349 205 379 q 287 289 259 319 q 342 228 315 258 q 391 166 369 197 q 500 192 448 178 q 599 226 553 207 q 610 227 605 229 q 616 223 614 226 q 616 216 618 220 q 608 209 614 212 q 513 173 565 188 q 405 145 460 158 q 418 123 412 134 q 429 101 423 112 q 443 14 448 55 q 417 -61 438 -27 q 364 -124 397 -96 q 293 -172 331 -152 q 217 -203 255 -192 q 146 -215 178 -214 q 57 -201 95 -216 q 0 -159 20 -185 q -26 -102 -21 -134 q -18 -38 -31 -70 q 37 39 0 7 q 125 92 75 70 q 234 129 175 114 q 354 158 293 144 q 305 221 333 190 q 250 284 278 253 q 194 345 221 315 q 144 406 166 375 q 107 467 122 437 q 90 528 93 498 q 107 611 87 569 q 166 690 128 653 q 256 758 203 728 q 369 809 309 789 q 410 820 387 814 q 458 827 433 825 q 508 828 483 830 q 556 818 534 826 q 596 793 578 809 q 624 752 614 777 q 628 700 633 729 q 603 634 624 671 q 538 552 581 597 q 426 452 495 506 q 407 445 416 444 q 394 450 398 446 q 391 462 390 455 q 405 475 393 469 m 386 100 q 377 118 382 110 q 367 137 372 127 q 247 109 306 123 q 138 74 188 95 q 52 25 88 54 q 2 -47 16 -4 q -2 -100 -7 -73 q 23 -148 4 -127 q 75 -182 43 -169 q 150 -192 107 -194 q 216 -179 182 -190 q 283 -150 251 -169 q 341 -105 315 -131 q 384 -48 368 -80 q 401 21 399 -16 q 386 100 403 58 m 547 981 q 528 955 540 971 q 503 922 516 939 q 476 887 489 904 q 454 858 463 869 q 443 854 451 854 q 435 858 435 854 q 433 887 434 870 q 431 923 432 905 q 429 957 430 941 q 429 982 429 973 q 433 991 429 987 q 440 996 437 994 q 448 996 444 997 q 452 990 451 995 q 454 974 453 985 q 456 949 455 963 q 457 921 456 935 q 457 893 457 906 q 476 921 466 906 q 497 948 487 935 q 516 973 507 962 q 530 990 525 984 q 538 995 534 994 q 544 994 541 996 q 548 989 547 993 q 547 981 549 986 z "},"":{"ha":205,"x_min":-82,"x_max":212,"o":"m 204 226 q 210 222 209 228 q 207 215 212 217 q 126 186 171 203 q 39 144 81 169 q 50 118 45 131 q 56 91 54 105 q 55 64 58 78 q 44 35 53 50 q 27 12 37 22 q 5 -5 17 2 q -19 -17 -7 -13 q -45 -20 -32 -21 q -71 -7 -61 -18 q -81 24 -82 3 q -52 93 -77 62 q 9 147 -27 123 q -9 181 -1 163 q -15 218 -16 198 q 6 281 -14 250 q 58 326 25 312 q 74 329 67 331 q 86 321 82 326 q 91 310 90 316 q 90 299 93 303 q 87 295 90 297 q 82 293 85 293 q 78 295 80 293 q 77 300 75 297 q 76 306 78 303 q 70 306 73 309 q 37 268 51 290 q 21 220 23 245 q 23 190 20 205 q 33 161 27 176 q 119 201 74 185 q 204 226 165 217 m 26 48 q 34 70 33 59 q 34 91 36 81 q 28 111 33 101 q 18 131 24 121 q -33 87 -11 111 q -63 33 -54 63 q -62 7 -69 17 q -42 -3 -56 -3 q -23 2 -33 -3 q -5 13 -14 6 q 12 29 4 20 q 26 48 20 38 m 154 518 q 136 492 148 508 q 110 458 124 476 q 83 423 97 441 q 61 394 70 406 q 50 391 58 391 q 42 395 42 391 q 40 424 41 407 q 38 459 39 441 q 37 493 37 477 q 36 519 36 509 q 40 527 37 524 q 48 533 44 531 q 55 533 52 534 q 59 527 58 532 q 62 511 61 522 q 63 486 63 500 q 64 457 64 472 q 65 430 65 443 q 84 457 73 443 q 105 485 95 472 q 124 510 115 499 q 137 526 133 521 q 145 532 141 531 q 152 531 149 533 q 155 526 154 530 q 154 518 156 522 z "},"":{"ha":186,"x_min":20,"x_max":146,"o":"m 57 490 q 66 471 67 482 q 58 452 65 460 q 42 440 52 444 q 26 443 33 437 q 20 459 20 448 q 24 481 20 471 q 38 495 29 490 q 57 490 46 499 m 136 490 q 145 471 146 482 q 137 452 144 460 q 121 440 131 444 q 105 443 112 437 q 99 459 99 448 q 103 481 99 471 q 117 495 108 490 q 136 490 125 499 z "},"":{"ha":288,"x_min":-39,"x_max":302,"o":"m 108 235 q 115 243 113 241 q 120 246 118 245 q 137 243 129 250 q 140 225 145 237 q 106 135 113 165 q 117 97 100 106 q 141 96 127 90 q 172 112 156 101 q 205 140 188 124 q 238 173 222 156 q 267 203 254 189 q 288 226 280 218 q 297 227 292 231 q 298 218 302 223 q 272 188 286 205 q 240 153 257 171 q 205 118 223 135 q 169 91 187 102 q 134 78 151 81 q 103 85 117 75 q 80 125 83 98 q 89 188 76 152 q 72 166 83 179 q 49 139 61 152 q 23 116 37 127 q -1 103 10 105 q -27 108 -15 99 q -39 139 -39 118 q -26 193 -39 167 q 8 234 -13 218 q 55 252 29 250 q 108 235 82 254 m -14 144 q -13 122 -16 129 q -3 116 -11 114 q 18 133 5 119 q 45 163 31 146 q 72 197 58 180 q 95 221 86 213 q 60 235 78 237 q 27 219 42 233 q 1 185 12 206 q -14 144 -10 165 m 63 388 q 71 369 73 380 q 64 350 70 358 q 48 338 57 342 q 31 341 38 335 q 25 357 25 346 q 30 379 25 369 q 43 393 35 388 q 63 388 52 397 m 141 388 q 150 369 152 380 q 142 350 149 358 q 127 338 136 342 q 110 341 117 335 q 104 357 104 346 q 109 379 104 369 q 122 393 114 388 q 141 388 131 397 z "},"":{"ha":674,"x_min":-163,"x_max":682,"o":"m -150 109 q -158 110 -155 106 q -162 121 -161 114 q -162 134 -163 128 q -155 144 -160 141 q -36 187 -107 165 q 118 231 35 209 q 220 402 167 318 q 325 559 273 486 q 428 691 378 633 q 519 786 477 750 q 568 820 545 809 q 609 832 591 832 q 639 821 627 832 q 655 786 651 809 q 641 686 662 741 q 612 606 626 650 q 582 515 597 563 q 553 416 567 467 q 526 311 539 364 q 651 319 599 319 q 656 314 655 318 q 656 306 657 310 q 650 300 654 303 q 639 299 645 298 q 587 296 618 299 q 521 286 557 292 q 497 170 507 228 q 480 57 486 112 q 471 -48 473 3 q 472 -142 469 -99 q 471 -156 474 -150 q 464 -165 468 -162 q 454 -166 459 -167 q 447 -158 449 -165 q 454 55 441 -57 q 493 281 467 167 q 319 244 405 265 q 143 199 233 223 q 78 70 109 134 q 23 -54 48 5 q -21 -166 -2 -113 q -51 -261 -40 -218 q -60 -277 -53 -271 q -75 -283 -67 -282 q -88 -279 -82 -283 q -93 -264 -94 -274 q -69 -173 -86 -224 q -29 -64 -53 -122 q 27 57 -4 -6 q 93 186 58 120 q -47 145 17 165 q -150 109 -110 124 m 524 756 q 440 668 485 722 q 349 547 395 614 q 256 401 303 479 q 166 243 209 323 q 337 281 251 264 q 499 307 423 297 q 551 494 522 403 q 614 668 581 586 q 632 727 625 699 q 636 771 639 755 q 625 794 633 786 q 605 802 618 803 q 572 791 592 802 q 524 756 552 780 m 593 943 q 602 923 603 934 q 594 905 601 913 q 578 893 588 896 q 562 895 569 889 q 556 911 556 900 q 560 933 556 923 q 574 947 565 943 q 593 943 582 952 m 672 943 q 681 923 682 934 q 673 905 679 913 q 657 893 667 896 q 641 895 648 889 q 635 911 635 900 q 639 933 635 923 q 653 947 644 943 q 672 943 661 952 z "},"":{"ha":703,"x_min":-27,"x_max":717,"o":"m 148 437 q 174 421 156 426 q 215 415 192 416 q 265 416 239 414 q 317 419 292 418 q 363 421 342 421 q 397 417 384 421 q 401 412 399 416 q 404 404 403 409 q 402 395 404 399 q 394 389 399 391 q 331 350 367 377 q 257 288 295 324 q 182 208 219 252 q 113 118 144 165 q 60 23 82 71 q 30 -69 37 -24 q 36 -151 22 -116 q 79 -205 49 -186 q 153 -225 109 -224 q 250 -205 197 -226 q 380 -131 316 -178 q 503 -24 444 -83 q 613 100 562 35 q 703 226 664 165 q 712 227 707 231 q 714 218 717 224 q 663 132 694 178 q 596 41 633 87 q 516 -47 558 -4 q 430 -127 473 -90 q 342 -191 386 -164 q 259 -233 299 -219 q 134 -253 190 -258 q 41 -222 78 -248 q -12 -151 3 -195 q -15 -52 -27 -107 q 21 43 -4 -6 q 79 138 46 91 q 150 228 112 185 q 227 304 189 270 q 300 363 265 339 q 360 394 335 386 q 323 386 346 390 q 273 380 300 382 q 220 380 247 378 q 170 387 192 381 q 132 407 148 394 q 113 441 116 420 q 118 497 110 467 q 146 559 127 527 q 192 625 165 592 q 252 688 219 658 q 320 746 284 719 q 394 793 356 773 q 460 821 424 809 q 531 837 496 833 q 598 835 566 841 q 650 808 629 828 q 678 753 671 788 q 673 663 686 718 q 630 538 657 600 q 564 413 603 475 q 553 402 560 405 q 542 400 547 399 q 535 406 537 401 q 537 419 533 411 q 599 537 571 473 q 642 667 626 601 q 647 742 652 711 q 626 789 642 772 q 587 813 611 807 q 534 817 562 819 q 476 804 506 814 q 418 777 446 793 q 339 725 377 755 q 266 663 300 696 q 206 597 233 631 q 163 533 179 563 q 141 478 146 503 q 148 437 137 453 m 546 957 q 555 938 556 948 q 547 919 554 927 q 531 907 541 911 q 515 909 522 903 q 509 926 509 914 q 514 947 509 937 q 527 961 518 957 q 546 957 535 966 m 625 957 q 634 938 635 948 q 626 919 633 927 q 610 907 620 911 q 594 909 601 903 q 588 926 588 914 q 592 947 588 937 q 606 961 597 957 q 625 957 614 966 z "},"":{"ha":273,"x_min":-45,"x_max":283,"o":"m -40 100 q -41 146 -45 120 q -28 196 -37 171 q -2 244 -18 221 q 34 282 14 267 q 78 304 54 298 q 127 302 101 310 q 144 300 137 307 q 153 282 150 293 q 156 257 156 270 q 154 235 156 243 q 182 222 165 226 q 216 218 199 218 q 248 220 233 217 q 273 226 263 222 q 281 223 278 229 q 277 214 283 218 q 249 205 265 207 q 215 203 233 202 q 180 207 197 203 q 149 218 163 211 q 129 171 141 195 q 100 127 116 148 q 64 89 84 105 q 23 63 44 72 q -18 63 -1 52 q -40 100 -35 73 m 116 290 q 64 271 88 290 q 20 225 39 252 q -10 168 1 199 q -21 112 -21 137 q -9 80 -21 88 q 25 83 4 72 q 53 105 39 90 q 81 139 68 120 q 106 180 95 158 q 125 225 118 203 l 128 232 q 112 257 117 241 q 116 290 107 273 m 88 412 q 97 393 99 403 q 89 374 96 382 q 73 362 83 366 q 57 365 64 358 q 51 381 51 369 q 56 402 51 392 q 69 417 61 412 q 88 412 78 421 m 167 412 q 176 393 178 403 q 168 374 175 382 q 152 362 162 366 q 136 365 143 358 q 130 381 130 369 q 135 402 130 392 q 148 417 139 412 q 167 412 156 421 z "},"":{"ha":170,"x_min":-44,"x_max":182,"o":"m -1 249 q 8 256 2 255 q 19 255 14 258 q 27 248 24 253 q 27 235 30 242 q 2 180 13 204 q -14 138 -8 156 q -18 109 -19 120 q -10 93 -18 97 q 15 92 0 87 q 48 108 30 97 q 84 135 65 119 q 119 167 103 151 q 149 199 136 184 q 170 224 163 214 q 174 226 172 226 q 179 225 177 226 q 182 221 181 223 q 180 216 182 218 q 134 161 161 190 q 79 109 107 131 q 23 78 50 87 q -24 82 -3 69 q -40 107 -37 91 q -40 146 -44 124 q -26 194 -36 167 q -1 249 -16 220 m 35 385 q 44 366 46 376 q 36 347 43 355 q 20 335 30 339 q 4 337 11 331 q -2 354 -2 342 q 3 375 -2 365 q 16 389 7 385 q 35 385 24 394 m 114 385 q 123 366 124 376 q 115 347 122 355 q 99 335 109 339 q 83 337 90 331 q 77 354 77 342 q 82 375 77 365 q 95 389 86 385 q 114 385 103 394 z "},"":{"ha":527,"x_min":55,"x_max":403,"o":"m 394 129 q 400 123 399 127 q 401 115 402 119 q 397 109 400 112 q 389 107 394 106 q 367 115 384 109 q 329 130 350 122 q 283 148 307 139 q 238 166 258 158 q 203 180 217 174 q 189 187 190 186 q 188 194 186 189 q 195 199 190 198 q 213 207 199 201 q 247 221 227 213 q 288 238 266 229 q 330 255 309 247 q 365 269 350 263 q 388 277 381 275 q 396 276 392 278 q 402 271 400 274 q 403 263 403 267 q 398 256 402 259 q 370 246 392 254 q 321 228 349 238 q 266 208 294 218 q 219 192 238 198 q 264 177 237 186 q 317 158 290 167 q 365 141 343 149 q 394 129 387 133 m 264 129 q 270 123 268 127 q 270 115 271 119 q 266 109 269 112 q 258 107 263 106 q 236 115 253 109 q 198 130 220 122 q 152 148 176 139 q 107 166 128 158 q 73 180 86 174 q 58 187 59 186 q 57 194 55 189 q 64 199 60 198 q 82 207 68 201 q 116 221 97 213 q 157 238 135 229 q 199 255 179 247 q 235 269 219 263 q 257 277 250 275 q 266 276 262 278 q 271 271 269 274 q 272 263 273 267 q 267 256 271 259 q 240 246 261 254 q 191 228 218 238 q 135 208 163 218 q 88 192 107 198 q 133 177 107 186 q 186 158 160 167 q 235 141 213 149 q 264 129 256 133 z "},"":{"ha":531,"x_min":61,"x_max":409,"o":"m 69 255 q 64 261 65 257 q 63 269 62 265 q 67 275 64 273 q 75 277 69 278 q 97 269 80 275 q 135 254 114 263 q 181 236 157 246 q 226 218 205 226 q 261 204 247 210 q 275 197 274 198 q 276 191 278 195 q 269 186 273 186 q 251 178 265 184 q 217 163 237 171 q 176 146 198 155 q 134 129 154 137 q 99 115 114 121 q 76 107 83 110 q 68 108 71 106 q 62 114 64 110 q 61 121 61 117 q 66 128 62 125 q 94 138 72 131 q 142 156 115 146 q 198 176 170 166 q 245 192 226 186 q 200 208 226 199 q 147 226 173 217 q 99 243 120 235 q 69 255 77 252 m 200 255 q 194 261 196 257 q 194 269 192 265 q 197 275 195 273 q 205 277 200 278 q 228 269 211 275 q 266 254 244 263 q 312 236 288 246 q 357 218 336 226 q 391 204 377 210 q 405 197 405 198 q 406 191 409 195 q 400 186 404 186 q 381 178 395 184 q 348 163 367 171 q 307 146 329 155 q 265 129 285 137 q 229 115 245 121 q 207 107 214 110 q 198 108 202 106 q 193 114 195 110 q 192 121 191 117 q 197 128 192 125 q 224 138 203 131 q 273 156 246 146 q 329 176 301 166 q 375 192 356 186 q 331 208 357 199 q 278 226 304 217 q 229 243 251 235 q 200 255 207 252 z "},"":{"ha":639,"x_min":7,"x_max":748,"o":"m 711 735 q 723 745 716 743 q 736 745 730 747 q 745 736 742 742 q 743 722 748 729 q 669 584 707 656 q 595 437 631 511 q 527 287 559 362 q 469 141 494 212 q 426 6 443 71 q 403 -112 409 -58 q 400 -129 403 -122 q 393 -137 397 -135 q 387 -136 390 -139 q 384 -122 384 -133 q 402 10 385 -64 q 449 169 420 84 q 390 78 420 122 q 326 -3 359 34 q 228 -94 274 -62 q 145 -135 182 -127 q 79 -132 107 -144 q 34 -89 51 -119 q 12 -14 17 -59 q 16 88 7 31 q 61 284 31 184 q 129 477 91 384 q 209 655 167 571 q 290 801 251 738 q 301 810 295 809 q 310 809 306 811 q 316 802 314 807 q 315 792 318 797 q 243 650 281 730 q 171 478 205 569 q 107 291 136 388 q 61 99 78 194 q 55 -37 46 16 q 97 -106 65 -90 q 182 -94 129 -121 q 307 11 235 -67 q 374 94 342 48 q 436 189 407 139 q 490 291 465 239 q 539 394 516 343 q 622 569 578 483 q 711 735 666 655 m 537 913 q 545 894 547 905 q 538 875 544 884 q 522 863 531 867 q 505 866 512 860 q 499 882 499 871 q 504 904 499 894 q 517 918 509 913 q 537 913 526 922 m 616 913 q 624 894 626 905 q 617 875 623 884 q 601 863 610 867 q 584 866 591 860 q 578 882 578 871 q 583 904 578 894 q 596 918 588 913 q 616 913 605 922 z "},"":{"ha":246,"x_min":84,"x_max":180,"o":"m 178 514 q 173 486 177 501 q 163 459 169 472 q 149 434 157 446 q 131 415 141 422 q 109 409 120 405 q 92 426 98 412 q 84 463 84 441 q 91 505 84 484 q 113 540 99 525 q 147 557 127 555 q 171 545 163 557 q 178 514 180 534 m 162 516 q 162 524 162 518 q 159 534 161 529 q 154 541 158 538 q 145 542 151 544 q 122 526 131 538 q 107 498 113 514 q 101 467 102 483 q 103 440 99 452 q 113 425 105 428 q 130 429 120 422 q 150 465 141 441 q 162 516 159 489 z "},"":{"ha":273,"x_min":19,"x_max":196,"o":"m 196 394 q 189 348 196 371 q 170 304 182 324 q 142 266 158 283 q 107 238 126 249 q 66 230 85 225 q 34 254 46 235 q 20 309 19 277 q 36 371 20 341 q 80 422 51 401 q 152 441 110 442 q 169 442 161 446 q 183 430 177 438 q 192 411 189 421 q 196 394 196 401 m 144 429 q 95 404 116 423 q 63 362 75 386 q 47 312 50 337 q 50 267 44 286 q 70 245 56 248 q 104 254 85 241 q 127 276 116 262 q 147 307 138 290 q 161 343 155 324 q 169 381 167 363 l 170 387 q 157 394 163 390 q 148 403 152 398 q 142 415 144 409 q 144 429 141 422 z "},"":{"ha":248,"x_min":42,"x_max":188,"o":"m 55 392 q 82 396 65 397 q 117 394 99 396 q 154 391 136 392 q 183 395 171 390 q 187 394 186 397 q 188 387 188 391 q 186 380 188 384 q 182 375 184 376 q 155 369 173 369 q 117 371 137 369 q 78 373 97 372 q 51 369 59 373 q 44 373 46 369 q 43 380 42 376 q 47 388 44 384 q 55 392 50 391 z "},"":{"ha":288,"x_min":-39,"x_max":302,"o":"m 108 235 q 115 243 113 241 q 120 246 118 245 q 137 243 129 250 q 140 225 145 237 q 106 135 113 165 q 117 97 100 106 q 141 96 127 90 q 172 112 156 101 q 205 140 188 124 q 238 173 222 156 q 267 203 254 189 q 288 226 280 218 q 297 227 292 231 q 298 218 302 223 q 272 188 286 205 q 240 153 257 171 q 205 118 223 135 q 169 91 187 102 q 134 78 151 81 q 103 85 117 75 q 80 125 83 98 q 89 188 76 152 q 72 166 83 179 q 49 139 61 152 q 23 116 37 127 q -1 103 10 105 q -27 108 -15 99 q -39 139 -39 118 q -26 193 -39 167 q 8 234 -13 218 q 55 252 29 250 q 108 235 82 254 m -14 144 q -13 122 -16 129 q -3 116 -11 114 q 18 133 5 119 q 45 163 31 146 q 72 197 58 180 q 95 221 86 213 q 60 235 78 237 q 27 219 42 233 q 1 185 12 206 q -14 144 -10 165 m 50 365 q 77 370 60 370 q 113 367 94 369 q 149 365 131 365 q 178 369 167 364 q 182 367 181 370 q 183 361 184 365 q 181 353 183 357 q 177 349 180 350 q 151 343 169 343 q 112 344 133 343 q 73 346 92 346 q 46 342 54 347 q 39 346 41 343 q 38 354 37 350 q 43 361 39 358 q 50 365 46 365 z "},"":{"ha":637,"x_min":8,"x_max":637,"o":"m 10 125 q 16 222 8 169 q 40 331 24 275 q 80 440 56 386 q 133 544 103 495 q 196 632 162 592 q 266 696 229 671 q 353 770 307 741 q 443 809 399 799 q 525 810 487 820 q 589 770 564 801 q 628 672 620 732 q 629 541 637 613 q 598 391 621 469 q 541 238 575 313 q 467 96 508 163 q 382 -19 426 29 q 300 -88 342 -63 q 217 -119 258 -113 q 140 -112 177 -124 q 76 -68 104 -99 q 31 12 48 -37 q 10 125 13 60 m 170 230 q 168 219 171 223 q 160 215 165 215 q 150 217 155 214 q 144 227 146 220 q 134 345 133 289 q 145 452 135 401 q 109 365 125 409 q 82 278 93 321 q 65 194 71 235 q 60 119 59 154 q 67 9 55 53 q 102 -59 79 -35 q 158 -90 126 -84 q 225 -86 190 -96 q 296 -53 260 -77 q 363 7 331 -29 q 440 116 402 53 q 510 248 478 178 q 565 391 541 318 q 598 531 588 465 q 602 653 607 597 q 571 743 597 708 q 519 786 549 775 q 454 790 488 796 q 385 761 420 783 q 316 704 349 739 q 318 692 319 699 q 309 680 316 686 q 284 659 296 671 q 259 634 271 648 q 211 547 233 594 q 177 448 190 500 q 162 341 165 397 q 170 230 160 286 m 463 898 q 489 902 472 903 q 525 900 506 902 q 561 897 543 898 q 590 901 579 896 q 594 900 593 903 q 595 893 596 897 q 593 886 595 890 q 589 881 592 882 q 563 875 581 875 q 524 877 545 875 q 485 879 504 878 q 458 875 467 879 q 451 879 453 875 q 451 886 450 882 q 455 894 452 890 q 463 898 458 897 z "},"":{"ha":253,"x_min":84,"x_max":182,"o":"m 177 535 q 182 511 182 524 q 179 484 182 498 q 169 457 175 470 q 155 433 163 443 q 141 419 150 425 q 124 409 133 412 q 106 410 115 407 q 92 426 98 414 q 85 455 86 438 q 87 490 84 472 q 99 523 90 507 q 120 548 107 538 q 153 555 137 560 q 177 535 169 551 m 103 440 q 111 426 105 429 q 123 424 116 422 q 136 431 130 426 q 146 443 142 437 q 156 465 152 453 q 163 489 161 477 q 165 513 166 501 q 160 532 165 524 q 148 541 155 539 q 130 533 140 542 q 114 514 120 526 q 105 489 108 502 q 101 463 101 475 q 103 440 100 450 z "},"":{"ha":288,"x_min":-39,"x_max":302,"o":"m 108 235 q 115 243 113 241 q 120 246 118 245 q 137 243 129 250 q 140 225 145 237 q 106 135 113 165 q 117 97 100 106 q 141 96 127 90 q 172 112 156 101 q 205 140 188 124 q 238 173 222 156 q 267 203 254 189 q 288 226 280 218 q 297 227 292 231 q 298 218 302 223 q 272 188 286 205 q 240 153 257 171 q 205 118 223 135 q 169 91 187 102 q 134 78 151 81 q 103 85 117 75 q 80 125 83 98 q 89 188 76 152 q 72 166 83 179 q 49 139 61 152 q 23 116 37 127 q -1 103 10 105 q -27 108 -15 99 q -39 139 -39 118 q -26 193 -39 167 q 8 234 -13 218 q 55 252 29 250 q 108 235 82 254 m -14 144 q -13 122 -16 129 q -3 116 -11 114 q 18 133 5 119 q 45 163 31 146 q 72 197 58 180 q 95 221 86 213 q 60 235 78 237 q 27 219 42 233 q 1 185 12 206 q -14 144 -10 165 m 146 433 q 151 409 151 422 q 148 382 152 396 q 139 355 145 368 q 124 331 133 341 q 111 317 119 323 q 94 307 103 310 q 76 308 84 305 q 61 324 67 312 q 54 353 55 336 q 56 388 53 370 q 68 421 60 405 q 90 446 77 436 q 122 453 106 458 q 146 433 139 449 m 72 338 q 80 324 75 327 q 93 322 86 320 q 105 329 99 324 q 116 341 112 335 q 125 363 121 351 q 133 387 130 375 q 135 410 135 399 q 129 430 134 422 q 117 439 124 437 q 99 431 110 440 q 84 412 90 424 q 74 387 78 400 q 70 360 71 373 q 72 338 69 348 z "},"":{"ha":677,"x_min":-163,"x_max":689,"o":"m 684 933 q 689 909 688 922 q 686 882 689 896 q 676 855 682 868 q 662 830 670 841 q 654 822 658 826 q 644 814 650 818 q 655 786 652 803 q 641 686 662 741 q 612 606 626 650 q 582 515 597 563 q 553 416 567 467 q 526 311 539 364 q 651 319 599 319 q 656 314 655 318 q 656 306 657 310 q 650 300 654 303 q 639 299 645 298 q 587 296 618 299 q 521 286 557 292 q 497 170 507 228 q 480 57 486 112 q 471 -48 473 3 q 472 -142 469 -99 q 471 -156 474 -150 q 464 -165 468 -162 q 454 -166 459 -167 q 447 -158 449 -165 q 454 55 441 -57 q 493 281 467 167 q 319 244 405 265 q 143 199 233 223 q 78 70 109 134 q 23 -54 48 5 q -21 -166 -2 -113 q -51 -261 -40 -218 q -60 -277 -53 -271 q -75 -283 -67 -282 q -88 -279 -82 -283 q -93 -264 -94 -274 q -69 -173 -86 -224 q -29 -64 -53 -122 q 27 57 -4 -6 q 93 186 58 120 q -47 145 17 165 q -150 109 -110 124 q -158 110 -155 106 q -162 121 -161 114 q -162 134 -163 128 q -155 144 -160 141 q -36 187 -107 165 q 118 231 35 209 q 220 402 167 318 q 325 559 273 486 q 428 691 378 633 q 519 786 477 750 q 595 830 562 823 q 591 860 591 843 q 594 892 590 876 q 607 922 599 908 q 627 945 615 937 q 660 953 643 958 q 684 933 676 949 m 524 756 q 440 668 485 722 q 349 547 395 614 q 256 401 303 479 q 166 243 209 323 q 337 281 251 264 q 499 307 423 297 q 551 494 522 403 q 614 668 581 586 q 632 727 625 699 q 636 771 639 755 q 625 794 633 786 q 605 802 618 803 q 572 791 592 802 q 524 756 552 780 m 611 832 q 635 824 625 830 q 653 841 646 829 q 663 863 658 851 q 670 887 667 875 q 672 910 673 899 q 667 930 671 922 q 654 939 662 937 q 637 931 647 940 q 621 912 627 924 q 611 887 615 900 q 607 860 608 873 q 609 838 607 847 l 611 832 z "},"":{"ha":639,"x_min":8,"x_max":637,"o":"m 10 125 q 16 222 8 169 q 40 331 24 275 q 80 440 56 386 q 133 544 103 495 q 196 632 162 592 q 266 696 229 671 q 353 770 307 741 q 443 809 399 799 q 525 810 487 820 q 589 770 564 801 q 628 672 620 732 q 629 541 637 613 q 598 391 621 469 q 541 238 575 313 q 467 96 508 163 q 382 -19 426 29 q 300 -88 342 -63 q 217 -119 258 -113 q 140 -112 177 -124 q 76 -68 104 -99 q 31 12 48 -37 q 10 125 13 60 m 170 230 q 168 219 171 223 q 160 215 165 215 q 150 217 155 214 q 144 227 146 220 q 134 345 133 289 q 145 452 135 401 q 109 365 125 409 q 82 278 93 321 q 65 194 71 235 q 60 119 59 154 q 67 9 55 53 q 102 -59 79 -35 q 158 -90 126 -84 q 225 -86 190 -96 q 296 -53 260 -77 q 363 7 331 -29 q 440 116 402 53 q 510 248 478 178 q 565 391 541 318 q 598 531 588 465 q 602 653 607 597 q 571 743 597 708 q 519 786 549 775 q 454 790 488 796 q 385 761 420 783 q 316 704 349 739 q 318 692 319 699 q 309 680 316 686 q 284 659 296 671 q 259 634 271 648 q 211 547 233 594 q 177 448 190 500 q 162 341 165 397 q 170 230 160 286 m 486 926 q 494 907 496 918 q 487 888 493 896 q 471 876 480 880 q 454 879 461 873 q 448 895 448 884 q 453 917 448 907 q 466 931 458 926 q 486 926 475 935 m 565 926 q 573 907 575 918 q 566 888 572 896 q 550 876 559 880 q 533 879 540 873 q 527 895 527 884 q 532 917 527 907 q 545 931 537 926 q 565 926 554 935 z "},"":{"ha":284,"x_min":20,"x_max":224,"o":"m 35 316 q 62 317 43 317 q 103 318 80 318 q 116 410 109 365 q 131 496 123 455 q 148 573 139 537 q 166 638 156 609 q 178 649 169 649 q 195 641 187 648 q 200 620 200 635 q 196 582 199 604 q 186 536 192 560 q 174 489 180 511 q 163 449 168 467 q 157 422 158 431 l 139 318 q 166 318 153 318 q 190 318 179 318 q 208 317 201 318 q 218 317 216 317 q 223 309 224 316 q 218 301 222 303 q 209 300 216 301 q 191 299 203 299 q 166 298 180 299 q 136 297 152 297 q 126 223 131 261 q 118 147 122 185 q 110 71 114 108 q 101 -1 106 33 q 94 -12 99 -7 q 84 -19 89 -17 q 75 -17 79 -20 q 73 -3 71 -14 q 83 140 76 64 q 100 295 90 217 q 54 294 74 294 q 28 295 34 294 q 21 299 22 295 q 22 305 20 302 q 27 312 23 309 q 35 316 31 316 z "},"":{"ha":313,"x_min":-66,"x_max":325,"o":"m -41 32 q -47 26 -43 28 q -55 26 -50 24 q -63 32 -59 27 q -66 44 -66 36 q -53 103 -62 71 q -33 170 -44 136 q -9 236 -21 203 q 16 297 4 269 q 26 309 19 306 q 37 309 32 312 q 45 300 43 306 q 44 284 48 293 q 30 252 37 271 q 14 210 22 233 q -3 163 5 188 q -18 112 -11 137 q 7 149 -7 131 q 36 185 22 168 q 66 216 51 202 q 93 239 80 231 q 110 247 101 245 q 127 247 118 249 q 141 239 135 245 q 150 222 148 233 q 155 189 154 207 q 157 154 156 171 q 161 123 158 137 q 170 102 164 109 q 187 96 176 95 q 217 113 199 98 q 244 138 230 124 q 270 169 258 153 q 294 199 283 184 q 313 224 305 214 q 317 226 315 226 q 322 225 320 226 q 324 221 324 223 q 323 216 325 218 q 297 182 309 199 q 271 148 284 164 q 245 118 258 131 q 218 95 231 104 q 179 77 195 78 q 154 85 164 76 q 138 110 144 94 q 129 145 132 127 q 125 180 126 163 q 122 209 124 197 q 116 222 121 220 q 105 221 111 224 q 68 188 88 210 q 26 139 47 166 q -13 83 5 112 q -41 32 -31 55 m 86 390 q 112 394 95 394 q 148 392 129 394 q 184 389 167 390 q 214 393 202 388 q 218 392 216 394 q 219 385 219 389 q 217 378 218 382 q 212 373 215 374 q 186 367 204 367 q 148 369 168 367 q 108 371 127 370 q 82 367 90 371 q 74 371 76 367 q 74 378 73 374 q 78 386 75 382 q 86 390 81 389 z "},"":{"ha":488,"x_min":39,"x_max":436,"o":"m 237 610 q 262 618 244 613 q 300 628 279 624 q 345 634 322 632 q 387 632 368 636 q 420 616 407 628 q 434 583 433 605 q 432 564 436 571 q 423 554 428 556 q 415 554 418 552 q 415 565 411 556 q 406 601 417 588 q 376 617 394 613 q 334 619 357 621 q 292 613 312 617 q 236 556 257 587 q 214 492 216 525 q 222 446 213 469 q 247 399 232 422 q 282 353 263 376 q 319 305 301 329 q 352 257 337 282 q 374 207 367 233 q 370 132 386 167 q 324 69 354 97 q 256 25 294 42 q 184 1 218 7 q 119 -37 154 -22 q 53 -56 84 -52 q 42 -55 45 -58 q 39 -48 39 -52 q 43 -39 40 -43 q 50 -35 46 -35 q 116 -16 82 -31 q 177 23 150 -1 q 217 79 203 47 q 219 150 230 111 q 197 200 212 175 q 163 248 182 224 q 126 295 145 271 q 92 342 107 318 q 68 388 77 365 q 60 435 58 411 q 75 485 61 460 q 113 532 89 509 q 168 575 137 555 q 237 610 200 595 m 248 150 q 246 80 258 113 q 207 22 233 48 q 266 48 237 31 q 316 89 295 65 q 346 143 337 113 q 346 207 356 173 q 323 257 338 233 q 290 305 308 282 q 253 353 272 329 q 219 399 235 376 q 195 446 204 422 q 187 492 186 469 q 206 548 188 520 q 252 601 223 576 q 188 570 218 588 q 136 531 158 552 q 101 485 114 509 q 88 435 88 460 q 96 388 86 411 q 120 342 105 365 q 154 295 135 318 q 192 248 173 271 q 225 200 210 224 q 248 150 240 175 z "},"":{"ha":489,"x_min":43,"x_max":373,"o":"m 343 115 q 356 124 349 123 q 367 120 363 124 q 372 106 372 115 q 365 86 373 97 q 277 -8 324 27 q 188 -56 231 -43 q 110 -57 145 -68 q 59 -15 76 -47 q 49 71 43 18 q 93 199 55 125 q 141 285 115 242 q 193 369 167 328 q 238 450 218 411 q 271 524 259 489 q 277 534 273 531 q 285 537 281 537 q 291 532 289 536 q 291 521 293 528 q 260 447 279 486 q 220 365 241 407 q 175 281 198 323 q 130 197 152 238 q 82 76 92 126 q 82 -3 71 26 q 119 -38 92 -31 q 182 -30 146 -44 q 261 21 218 -15 q 343 115 303 57 m 286 576 q 278 594 278 584 q 285 611 279 603 q 300 621 291 618 q 314 619 308 624 q 320 604 320 614 q 316 585 320 594 q 304 572 312 576 q 286 576 296 568 z "},"":{"ha":139,"x_min":62,"x_max":110,"o":"m 99 490 q 108 471 110 482 q 100 452 107 460 q 84 440 94 444 q 68 443 75 437 q 62 459 62 448 q 67 481 62 471 q 80 495 71 490 q 99 490 88 499 z "},"":{"ha":338,"x_min":85,"x_max":243,"o":"m 218 322 q 226 325 222 325 q 234 324 231 326 q 239 318 237 322 q 237 310 240 314 q 230 301 235 307 q 216 284 224 294 q 198 263 208 275 q 178 239 188 251 q 200 212 189 225 q 218 187 210 199 q 232 169 226 176 q 240 158 238 161 q 239 149 243 154 q 231 147 235 145 q 224 153 230 147 q 209 170 218 160 q 188 195 199 181 q 164 222 176 208 q 140 195 152 208 q 119 170 129 181 q 104 153 110 160 q 97 147 98 147 q 89 149 94 145 q 88 158 85 154 q 96 169 90 161 q 110 187 102 176 q 129 212 118 199 q 150 239 139 225 q 130 263 140 251 q 112 284 120 275 q 99 301 104 294 q 91 310 93 307 q 90 318 88 314 q 95 324 91 322 q 102 325 98 326 q 110 322 107 325 q 131 298 116 316 q 164 257 146 280 q 197 298 182 280 q 218 322 212 316 z "},"":{"ha":263,"x_min":-33,"x_max":278,"o":"m 122 301 q 127 274 130 290 q 115 242 124 258 q 89 209 105 225 q 56 181 73 194 q 22 161 39 169 q -8 154 5 154 q -9 133 -10 143 q -5 114 -8 122 q 15 86 2 94 q 45 79 29 78 q 78 85 61 79 q 112 101 95 91 q 153 127 132 112 q 194 158 174 142 q 231 192 214 175 q 263 224 249 209 q 272 225 267 229 q 273 216 278 221 q 236 173 260 197 q 184 128 212 150 q 127 88 156 105 q 76 64 99 71 q 47 58 61 60 q 19 60 32 57 q -6 72 5 63 q -24 96 -17 80 q -33 138 -33 114 q -26 187 -33 162 q -5 237 -19 212 q 28 282 8 261 q 56 304 42 296 q 84 314 71 312 q 106 312 97 316 q 122 301 116 309 m 50 271 q 17 228 32 255 q -5 171 1 200 q 23 178 7 170 q 54 197 39 186 q 83 223 69 209 q 104 252 96 238 q 112 276 112 265 q 103 292 113 287 q 80 291 95 296 q 50 271 65 286 m 91 439 q 99 423 97 431 q 102 407 101 414 q 106 394 103 400 q 119 388 110 389 q 122 385 122 387 q 120 382 122 384 q 115 378 118 380 q 109 376 112 376 q 95 381 102 376 q 81 393 87 386 q 71 410 75 401 q 67 429 67 419 q 70 435 67 432 q 76 441 73 439 q 84 443 80 443 q 91 439 88 443 z "},"":{"ha":52,"x_min":-24,"x_max":28,"o":"m -10 7 q -2 -7 -4 -1 q 3 -18 1 -13 q 9 -28 5 -24 q 22 -35 13 -32 q 27 -40 28 -36 q 21 -46 25 -44 q 5 -44 13 -48 q -8 -33 -2 -40 q -18 -17 -14 -26 q -24 1 -22 -7 q -23 5 -24 3 q -18 8 -21 7 q -13 9 -16 9 q -10 7 -11 8 z "},"":{"ha":225,"x_min":60,"x_max":145,"o":"m 127 332 q 142 309 139 322 q 141 285 145 297 q 129 263 137 273 q 111 247 121 253 q 90 241 101 241 q 71 247 80 240 q 62 265 64 253 q 62 289 60 276 q 69 315 63 303 q 84 334 75 327 q 103 342 93 341 q 127 332 114 343 z "},"":{"ha":172,"x_min":82,"x_max":130,"o":"m 120 459 q 129 440 130 450 q 121 421 127 429 q 105 409 114 413 q 88 411 95 405 q 82 428 82 416 q 87 449 82 439 q 100 464 92 459 q 120 459 109 468 z "},"":{"ha":263,"x_min":-33,"x_max":278,"o":"m 122 301 q 127 274 130 290 q 115 242 124 258 q 89 209 105 225 q 56 181 73 194 q 22 161 39 169 q -8 154 5 154 q -9 133 -10 143 q -5 114 -8 122 q 15 86 2 94 q 45 79 29 78 q 78 85 61 79 q 112 101 95 91 q 153 127 132 112 q 194 158 174 142 q 231 192 214 175 q 263 224 249 209 q 272 225 267 229 q 273 216 278 221 q 236 173 260 197 q 184 128 212 150 q 127 88 156 105 q 76 64 99 71 q 47 58 61 60 q 19 60 32 57 q -6 72 5 63 q -24 96 -17 80 q -33 138 -33 114 q -26 187 -33 162 q -5 237 -19 212 q 28 282 8 261 q 56 304 42 296 q 84 314 71 312 q 106 312 97 316 q 122 301 116 309 m 50 271 q 17 228 32 255 q -5 171 1 200 q 23 178 7 170 q 54 197 39 186 q 83 223 69 209 q 104 252 96 238 q 112 276 112 265 q 103 292 113 287 q 80 291 95 296 q 50 271 65 286 m 69 426 q 78 406 79 417 q 70 388 76 396 q 54 376 63 380 q 37 378 44 372 q 31 394 31 383 q 36 416 31 406 q 49 430 41 426 q 69 426 58 435 m 148 426 q 156 406 158 417 q 149 388 155 396 q 133 376 142 380 q 116 378 123 372 q 110 394 110 383 q 115 416 110 406 q 128 430 120 426 q 148 426 137 435 z "},"":{"ha":677,"x_min":-163,"x_max":707,"o":"m -150 109 q -158 110 -155 106 q -162 121 -161 114 q -162 134 -163 128 q -155 144 -160 141 q -36 187 -107 165 q 118 231 35 209 q 220 402 167 318 q 325 559 273 486 q 428 691 378 633 q 519 786 477 750 q 568 820 545 809 q 609 832 591 832 q 639 821 627 832 q 655 786 651 809 q 641 686 662 741 q 612 606 626 650 q 582 515 597 563 q 553 416 567 467 q 526 311 539 364 q 651 319 599 319 q 656 314 655 318 q 656 306 657 310 q 650 300 654 303 q 639 299 645 298 q 587 296 618 299 q 521 286 557 292 q 497 170 507 228 q 480 57 486 112 q 471 -48 473 3 q 472 -142 469 -99 q 471 -156 474 -150 q 464 -165 468 -162 q 454 -166 459 -167 q 447 -158 449 -165 q 454 55 441 -57 q 493 281 467 167 q 319 244 405 265 q 143 199 233 223 q 78 70 109 134 q 23 -54 48 5 q -21 -166 -2 -113 q -51 -261 -40 -218 q -60 -277 -53 -271 q -75 -283 -67 -282 q -88 -279 -82 -283 q -93 -264 -94 -274 q -69 -173 -86 -224 q -29 -64 -53 -122 q 27 57 -4 -6 q 93 186 58 120 q -47 145 17 165 q -150 109 -110 124 m 524 756 q 440 668 485 722 q 349 547 395 614 q 256 401 303 479 q 166 243 209 323 q 337 281 251 264 q 499 307 423 297 q 551 494 522 403 q 614 668 581 586 q 632 727 625 699 q 636 771 639 755 q 625 794 633 786 q 605 802 618 803 q 572 791 592 802 q 524 756 552 780 m 573 913 q 600 917 583 918 q 636 915 617 917 q 672 912 654 913 q 701 916 690 911 q 705 915 704 918 q 706 908 707 912 q 704 901 706 905 q 700 896 703 897 q 674 890 692 890 q 635 892 656 890 q 596 894 615 893 q 569 890 577 894 q 562 894 564 890 q 561 901 560 897 q 566 909 562 905 q 573 913 569 912 z "},"":{"ha":192,"x_min":78,"x_max":133,"o":"m 110 484 q 117 487 112 487 q 124 485 121 487 q 131 480 128 483 q 133 473 133 476 q 130 454 133 463 q 120 437 126 445 q 106 425 114 430 q 92 420 99 420 q 86 422 89 420 q 81 426 83 424 q 79 430 79 428 q 82 432 78 431 q 94 439 90 433 q 99 451 97 444 q 102 467 100 458 q 110 484 103 475 z "},"":{"ha":263,"x_min":-33,"x_max":278,"o":"m 122 301 q 127 274 130 290 q 115 242 124 258 q 89 209 105 225 q 56 181 73 194 q 22 161 39 169 q -8 154 5 154 q -9 133 -10 143 q -5 114 -8 122 q 15 86 2 94 q 45 79 29 78 q 78 85 61 79 q 112 101 95 91 q 153 127 132 112 q 194 158 174 142 q 231 192 214 175 q 263 224 249 209 q 272 225 267 229 q 273 216 278 221 q 236 173 260 197 q 184 128 212 150 q 127 88 156 105 q 76 64 99 71 q 47 58 61 60 q 19 60 32 57 q -6 72 5 63 q -24 96 -17 80 q -33 138 -33 114 q -26 187 -33 162 q -5 237 -19 212 q 28 282 8 261 q 56 304 42 296 q 84 314 71 312 q 106 312 97 316 q 122 301 116 309 m 50 271 q 17 228 32 255 q -5 171 1 200 q 23 178 7 170 q 54 197 39 186 q 83 223 69 209 q 104 252 96 238 q 112 276 112 265 q 103 292 113 287 q 80 291 95 296 q 50 271 65 286 m 110 432 q 117 435 112 435 q 124 433 121 435 q 131 428 128 431 q 133 421 133 424 q 130 402 133 411 q 120 386 126 393 q 106 373 114 378 q 92 369 99 369 q 86 370 89 369 q 81 374 83 372 q 79 378 79 376 q 82 380 78 380 q 94 387 90 382 q 99 400 97 392 q 102 415 100 407 q 110 432 103 424 z "},"":{"ha":170,"x_min":-44,"x_max":182,"o":"m -1 249 q 8 256 2 255 q 19 255 14 258 q 27 248 24 253 q 27 235 30 242 q 2 180 13 204 q -14 138 -8 156 q -18 109 -19 120 q -10 93 -18 97 q 15 92 0 87 q 48 108 30 97 q 84 135 65 119 q 119 167 103 151 q 149 199 136 184 q 170 224 163 214 q 174 226 172 226 q 179 225 177 226 q 182 221 181 223 q 180 216 182 218 q 134 161 161 190 q 79 109 107 131 q 23 78 50 87 q -24 82 -3 69 q -40 107 -37 91 q -40 146 -44 124 q -26 194 -36 167 q -1 249 -16 220 m 45 411 q 53 395 51 403 q 56 379 54 386 q 60 367 57 372 q 73 360 63 361 q 76 357 76 359 q 73 354 75 356 q 68 350 71 352 q 63 348 65 348 q 48 353 56 348 q 35 365 41 358 q 25 382 29 373 q 21 401 21 391 q 24 407 21 404 q 30 413 27 411 q 37 415 33 415 q 45 411 41 415 z "},"":{"ha":170,"x_min":-44,"x_max":182,"o":"m -1 249 q 8 256 2 255 q 19 255 14 258 q 27 248 24 253 q 27 235 30 242 q 2 180 13 204 q -14 138 -8 156 q -18 109 -19 120 q -10 93 -18 97 q 15 92 0 87 q 48 108 30 97 q 84 135 65 119 q 119 167 103 151 q 149 199 136 184 q 170 224 163 214 q 174 226 172 226 q 179 225 177 226 q 182 221 181 223 q 180 216 182 218 q 134 161 161 190 q 79 109 107 131 q 23 78 50 87 q -24 82 -3 69 q -40 107 -37 91 q -40 146 -44 124 q -26 194 -36 167 q -1 249 -16 220 m 59 417 q 66 420 62 420 q 74 418 71 420 q 80 413 78 416 q 83 406 83 409 q 79 387 83 397 q 69 371 75 378 q 56 358 63 363 q 41 354 48 354 q 36 355 39 354 q 31 359 33 357 q 28 363 29 361 q 31 365 28 365 q 44 372 40 367 q 48 385 47 377 q 51 400 50 392 q 59 417 53 409 z "},"":{"ha":363,"x_min":65,"x_max":263,"o":"m 67 148 q 85 182 74 165 q 103 212 95 200 q 96 242 98 223 q 96 273 95 257 q 102 305 97 290 q 114 336 107 321 q 132 361 122 350 q 121 381 127 370 q 110 403 115 392 q 101 422 105 414 q 98 432 98 430 q 99 436 97 434 q 103 439 101 438 q 108 440 105 441 q 112 438 111 440 q 130 411 118 429 q 150 375 141 393 q 181 385 163 384 q 210 380 199 386 q 230 415 219 397 q 248 441 241 432 q 252 444 249 443 q 257 443 254 444 q 261 439 259 441 q 262 435 263 437 q 258 425 262 433 q 249 406 254 417 q 238 384 244 396 q 227 364 232 373 q 232 357 230 360 q 235 349 233 353 q 234 291 243 322 q 209 229 225 261 q 198 213 203 219 q 217 183 206 201 q 236 147 229 164 q 237 138 238 142 q 233 131 235 133 q 226 129 230 129 q 220 133 222 129 q 212 146 216 137 q 202 164 207 154 q 192 183 197 173 q 185 199 188 192 q 149 183 168 185 q 115 195 129 181 q 107 179 112 187 q 99 162 103 170 q 90 146 95 153 q 84 134 86 139 q 77 130 80 130 q 71 132 73 130 q 67 139 68 135 q 67 148 65 144 m 196 243 q 212 292 205 265 q 212 344 218 319 q 209 354 212 348 q 207 358 208 354 q 178 365 198 370 q 152 348 163 360 q 133 320 141 336 q 122 287 126 305 q 118 254 118 270 q 126 218 118 231 q 147 204 135 206 q 172 213 158 203 q 196 243 186 222 z "},"":{"ha":426,"x_min":102,"x_max":283,"o":"m 273 420 q 281 392 280 407 q 282 360 283 377 q 276 328 280 344 q 267 297 273 312 q 251 264 261 280 q 227 236 241 248 q 195 220 213 224 q 156 223 178 216 q 116 256 129 233 q 103 308 103 280 q 113 367 102 337 q 143 420 123 397 q 178 446 158 437 q 215 456 197 456 q 250 448 234 457 q 273 420 265 439 m 158 238 q 192 234 178 231 q 218 246 207 237 q 239 270 230 256 q 254 301 248 285 q 269 359 265 329 q 263 415 273 390 q 244 437 256 430 q 217 445 232 445 q 187 438 203 445 q 156 417 171 431 q 128 372 138 399 q 116 320 117 346 q 126 272 116 295 q 158 238 136 249 m 136 267 q 141 295 137 280 q 149 326 144 310 l 146 328 q 146 330 145 329 q 149 330 148 331 q 150 329 150 330 q 167 374 157 352 q 186 411 177 395 q 190 411 188 413 q 190 409 192 410 q 178 385 184 399 q 167 356 172 371 q 178 380 169 367 q 197 402 186 393 q 219 413 207 411 q 242 405 231 415 q 248 390 248 399 q 247 374 249 382 q 240 358 245 366 q 231 346 235 351 q 199 325 218 332 q 160 322 180 318 q 192 304 174 313 q 224 292 209 296 q 225 288 227 291 q 220 285 222 285 q 187 300 203 290 q 157 320 172 309 q 147 289 150 301 q 143 269 144 278 q 139 264 143 265 q 136 267 136 263 m 226 353 q 239 376 236 363 q 233 400 243 390 q 219 405 226 407 q 203 398 211 404 q 188 381 195 391 q 175 360 181 371 q 165 340 169 350 q 160 326 161 331 q 197 330 179 322 q 226 353 214 339 z "},"":{"ha":527,"x_min":103,"x_max":420,"o":"m 403 507 q 417 456 414 484 q 418 401 420 429 q 408 343 416 372 q 391 288 401 314 q 363 231 380 259 q 322 182 346 202 q 267 153 298 161 q 197 159 236 146 q 146 192 166 170 q 115 245 125 215 q 103 309 104 275 q 111 379 103 343 q 134 446 118 414 q 174 505 150 479 q 235 553 201 536 q 301 570 269 569 q 361 556 333 571 q 403 507 388 540 m 201 186 q 261 178 235 173 q 307 200 287 183 q 343 242 328 216 q 369 296 358 267 q 386 346 379 320 q 396 398 393 372 q 397 450 399 424 q 386 497 395 475 q 352 537 374 524 q 304 549 331 550 q 250 536 278 549 q 197 499 222 524 q 146 422 165 467 q 127 330 128 376 q 144 245 126 284 q 201 186 161 205 m 318 285 q 323 288 320 288 q 328 286 326 288 q 330 281 330 284 q 326 274 330 278 q 282 237 305 252 q 236 222 258 222 q 194 239 211 223 q 174 283 178 254 q 177 344 170 311 q 199 409 184 377 q 236 470 214 441 q 282 518 257 499 q 297 522 289 522 q 310 518 305 522 q 319 508 316 515 q 320 492 322 501 q 313 475 318 484 q 301 457 307 466 q 289 441 295 448 q 279 429 283 433 q 270 424 273 424 q 264 429 266 425 q 261 436 262 432 q 261 439 261 439 q 274 453 267 445 q 287 469 281 461 q 299 485 294 477 q 305 496 304 492 q 303 506 308 503 q 292 505 298 509 q 255 462 273 488 q 224 406 237 436 q 203 347 211 377 q 195 293 195 318 q 198 263 194 275 q 211 244 203 250 q 230 236 219 237 q 252 239 240 235 q 285 256 268 243 q 318 285 303 269 z "},"":{"ha":727,"x_min":-20,"x_max":722,"o":"m 56 271 q 73 272 63 272 q 95 272 84 272 q 159 434 124 352 q 230 591 194 515 q 304 735 267 667 q 376 857 341 803 q 386 866 381 864 q 396 865 392 867 q 402 858 400 862 q 401 848 403 853 q 347 761 374 809 q 294 659 320 713 q 242 545 267 605 q 192 424 216 486 q 249 526 218 475 q 312 621 279 577 q 380 702 345 666 q 453 761 416 738 q 528 790 490 784 q 607 781 567 796 q 661 746 637 769 q 699 688 684 723 q 717 605 713 652 q 713 496 722 557 q 689 387 707 443 q 644 278 671 332 q 582 174 617 224 q 507 81 548 124 q 536 69 521 75 q 565 56 550 63 q 571 50 569 54 q 570 44 572 46 q 566 39 569 41 q 558 39 562 37 q 526 55 543 48 q 493 67 509 61 q 383 -26 440 13 q 271 -84 326 -65 q 201 -100 235 -97 q 142 -96 167 -103 q 101 -72 116 -89 q 84 -27 85 -54 q 96 12 83 -8 q 135 50 110 32 q 195 83 160 69 q 273 104 230 97 q 364 110 316 112 q 465 94 413 107 q 540 187 505 137 q 603 291 575 237 q 651 399 631 344 q 678 504 670 453 q 686 600 687 558 q 674 673 684 642 q 644 723 663 703 q 600 752 626 743 q 528 759 563 766 q 460 730 493 752 q 394 672 426 707 q 333 594 363 637 q 275 503 303 551 q 221 405 247 454 q 188 340 205 374 q 156 271 172 307 q 172 271 162 271 q 192 270 182 271 q 210 270 202 270 q 220 270 218 270 q 226 263 226 269 q 222 254 226 256 q 212 253 221 254 q 192 252 203 253 q 168 251 180 252 q 147 251 155 251 q 102 139 123 196 q 63 27 80 82 q 35 -79 46 -28 q 21 -173 24 -130 q 14 -189 20 -183 q 1 -197 8 -196 q -13 -195 -7 -199 q -20 -181 -19 -191 q -11 -96 -19 -144 q 11 8 -3 -48 q 44 124 24 63 q 86 249 63 185 q 66 249 75 249 q 52 250 56 249 q 45 254 46 250 q 45 261 44 257 q 49 267 46 264 q 56 271 52 271 m 263 -59 q 356 -6 308 -41 q 450 78 403 30 q 355 87 402 88 q 267 79 308 87 q 193 56 226 71 q 139 24 160 41 q 111 -13 118 6 q 116 -50 104 -33 q 169 -79 131 -76 q 263 -59 207 -82 z "},"":{"ha":288,"x_min":-39,"x_max":302,"o":"m 108 235 q 115 243 113 241 q 120 246 118 245 q 137 243 129 250 q 140 225 145 237 q 106 135 113 165 q 117 97 100 106 q 141 96 127 90 q 172 112 156 101 q 205 140 188 124 q 238 173 222 156 q 267 203 254 189 q 288 226 280 218 q 297 227 292 231 q 298 218 302 223 q 272 188 286 205 q 240 153 257 171 q 205 118 223 135 q 169 91 187 102 q 134 78 151 81 q 103 85 117 75 q 80 125 83 98 q 89 188 76 152 q 72 166 83 179 q 49 139 61 152 q 23 116 37 127 q -1 103 10 105 q -27 108 -15 99 q -39 139 -39 118 q -26 193 -39 167 q 8 234 -13 218 q 55 252 29 250 q 108 235 82 254 m -14 144 q -13 122 -16 129 q -3 116 -11 114 q 18 133 5 119 q 45 163 31 146 q 72 197 58 180 q 95 221 86 213 q 60 235 78 237 q 27 219 42 233 q 1 185 12 206 q -14 144 -10 165 m 101 407 q 108 390 107 399 q 112 374 110 382 q 116 362 113 367 q 129 355 119 356 q 132 353 132 354 q 129 349 131 351 q 124 345 127 347 q 118 343 121 343 q 104 348 112 343 q 90 360 97 353 q 81 377 84 368 q 77 396 77 386 q 80 403 77 399 q 86 408 82 406 q 93 410 89 410 q 101 407 97 410 z "},"":{"ha":288,"x_min":-39,"x_max":302,"o":"m 108 235 q 115 243 113 241 q 120 246 118 245 q 137 243 129 250 q 140 225 145 237 q 106 135 113 165 q 117 97 100 106 q 141 96 127 90 q 172 112 156 101 q 205 140 188 124 q 238 173 222 156 q 267 203 254 189 q 288 226 280 218 q 297 227 292 231 q 298 218 302 223 q 272 188 286 205 q 240 153 257 171 q 205 118 223 135 q 169 91 187 102 q 134 78 151 81 q 103 85 117 75 q 80 125 83 98 q 89 188 76 152 q 72 166 83 179 q 49 139 61 152 q 23 116 37 127 q -1 103 10 105 q -27 108 -15 99 q -39 139 -39 118 q -26 193 -39 167 q 8 234 -13 218 q 55 252 29 250 q 108 235 82 254 m -14 144 q -13 122 -16 129 q -3 116 -11 114 q 18 133 5 119 q 45 163 31 146 q 72 197 58 180 q 95 221 86 213 q 60 235 78 237 q 27 219 42 233 q 1 185 12 206 q -14 144 -10 165 m 110 401 q 117 404 113 404 q 125 402 122 404 q 131 397 129 400 q 134 390 134 393 q 130 371 134 380 q 120 354 127 362 q 107 342 114 347 q 93 337 99 337 q 87 339 90 337 q 82 343 84 341 q 79 347 80 345 q 82 349 79 348 q 95 356 91 350 q 99 368 98 361 q 102 384 101 375 q 110 401 104 392 z "},"":{"ha":311,"x_min":92,"x_max":248,"o":"m 99 486 q 105 494 100 491 q 114 498 110 498 q 122 495 119 499 q 123 482 125 491 q 121 439 116 454 q 138 417 127 423 q 165 414 150 411 q 194 426 180 416 q 218 453 207 437 q 229 491 228 470 q 232 497 229 495 q 238 498 235 499 q 245 496 242 498 q 248 490 248 494 q 234 441 247 462 q 202 408 220 420 q 162 394 183 397 q 124 402 141 392 q 100 431 108 411 q 99 486 92 452 z "},"":{"ha":299,"x_min":118,"x_max":228,"o":"m 149 484 q 156 487 152 487 q 164 485 161 487 q 170 480 167 483 q 173 473 173 476 q 169 454 173 463 q 159 437 165 445 q 146 425 153 430 q 131 420 138 420 q 125 422 129 420 q 120 426 122 424 q 118 430 118 428 q 121 432 118 431 q 133 439 130 433 q 138 451 137 444 q 141 467 139 458 q 149 484 143 475 m 204 484 q 211 487 207 487 q 219 485 216 487 q 225 480 222 483 q 228 473 228 476 q 224 454 228 463 q 214 437 220 445 q 201 425 208 430 q 186 420 193 420 q 181 422 184 420 q 175 426 178 424 q 173 430 173 428 q 176 432 173 431 q 188 439 185 433 q 193 451 192 444 q 196 467 195 458 q 204 484 198 475 z "},"":{"ha":298,"x_min":-229,"x_max":312,"o":"m 14 288 q 23 296 17 295 q 34 295 29 297 q 42 287 39 292 q 41 274 45 282 q 15 213 28 243 q -6 156 2 182 q -17 112 -15 130 q -10 88 -18 93 q 11 90 -1 83 q 38 114 24 98 q 67 151 52 129 q 95 197 82 173 q 120 244 109 220 q 139 286 132 267 q 144 297 142 292 q 151 305 146 302 q 168 305 158 310 q 177 287 177 301 q 168 214 175 254 q 152 140 161 174 q 221 184 185 163 q 298 226 257 205 q 305 228 302 229 q 310 224 308 226 q 312 219 312 222 q 309 214 312 216 q 229 168 269 193 q 146 114 189 143 q 115 19 133 69 q 73 -81 97 -31 q 23 -177 50 -131 q -35 -262 -4 -223 q -90 -317 -61 -294 q -152 -347 -119 -341 q -189 -345 -174 -351 q -213 -325 -204 -338 q -226 -293 -222 -312 q -226 -256 -229 -275 q -203 -180 -222 -216 q -156 -109 -184 -143 q -94 -44 -129 -75 q -22 16 -59 -12 q 50 69 14 44 q 116 116 86 94 q 130 179 124 148 q 140 243 137 209 q 102 169 124 205 q 58 109 81 133 q 14 74 36 84 q -25 76 -7 64 q -39 108 -38 85 q -33 163 -40 132 q -14 226 -27 193 q 14 288 -1 260 m 109 87 q 49 44 82 67 q -16 -4 17 21 q -81 -58 -49 -30 q -138 -118 -112 -86 q -182 -184 -164 -149 q -207 -257 -201 -219 q -209 -286 -210 -271 q -201 -312 -207 -301 q -181 -327 -194 -323 q -148 -324 -168 -331 q -99 -296 -122 -315 q -56 -254 -75 -278 q 39 -99 0 -187 q 109 87 78 -10 m 102 429 q 111 410 112 420 q 103 391 110 399 q 87 379 97 383 q 71 382 78 375 q 65 398 65 386 q 69 419 65 409 q 83 434 74 429 q 102 429 91 438 m 181 429 q 190 410 191 420 q 182 391 188 399 q 166 379 175 383 q 150 382 156 375 q 144 398 144 386 q 148 419 144 409 q 162 434 153 429 q 181 429 170 438 z "},"":{"ha":273,"x_min":-45,"x_max":283,"o":"m -40 100 q -41 146 -45 120 q -28 196 -37 171 q -2 244 -18 221 q 34 282 14 267 q 78 304 54 298 q 127 302 101 310 q 144 300 137 307 q 153 282 150 293 q 156 257 156 270 q 154 235 156 243 q 182 222 165 226 q 216 218 199 218 q 248 220 233 217 q 273 226 263 222 q 281 223 278 229 q 277 214 283 218 q 249 205 265 207 q 215 203 233 202 q 180 207 197 203 q 149 218 163 211 q 129 171 141 195 q 100 127 116 148 q 64 89 84 105 q 23 63 44 72 q -18 63 -1 52 q -40 100 -35 73 m 116 290 q 64 271 88 290 q 20 225 39 252 q -10 168 1 199 q -21 112 -21 137 q -9 80 -21 88 q 25 83 4 72 q 53 105 39 90 q 81 139 68 120 q 106 180 95 158 q 125 225 118 203 l 128 232 q 112 257 117 241 q 116 290 107 273 m 67 403 q 93 408 76 408 q 129 405 110 407 q 165 403 148 403 q 195 407 183 402 q 199 405 197 408 q 200 399 200 403 q 198 391 199 395 q 193 387 196 388 q 167 381 185 381 q 129 382 149 381 q 89 384 108 384 q 63 380 71 385 q 55 384 57 381 q 55 392 54 388 q 59 399 56 396 q 67 403 62 403 z "},"":{"ha":290,"x_min":-43,"x_max":301,"o":"m 120 233 q 130 241 124 239 q 141 240 136 242 q 149 232 146 237 q 148 219 152 226 q 112 121 121 158 q 120 75 103 85 q 144 74 130 70 q 173 90 157 79 q 205 118 189 101 q 238 153 222 135 q 267 191 254 172 q 290 226 281 210 q 294 229 292 229 q 298 227 297 229 q 301 223 300 226 q 299 218 301 220 q 256 152 281 185 q 205 95 231 118 q 152 61 178 71 q 106 65 127 51 q 87 100 90 76 q 91 156 84 124 q 63 115 77 133 q 35 86 49 97 q 6 74 20 75 q -23 82 -8 72 q -39 107 -36 91 q -39 146 -43 124 q -25 194 -35 167 q -1 249 -15 220 q 9 256 3 255 q 20 255 15 258 q 28 248 25 253 q 27 235 31 242 q 3 180 14 204 q -13 138 -7 156 q -18 109 -18 120 q -9 93 -17 97 q 22 97 5 84 q 57 133 39 110 q 90 184 74 156 q 120 233 107 212 m 96 417 q 104 400 102 409 q 107 385 105 392 q 111 372 108 377 q 124 365 114 367 q 127 363 127 365 q 124 359 127 361 q 119 355 122 357 q 114 354 116 354 q 99 358 107 354 q 86 371 92 363 q 76 387 80 378 q 72 406 72 397 q 75 413 72 409 q 81 418 78 416 q 88 420 84 420 q 96 417 93 420 z "},"":{"ha":290,"x_min":-43,"x_max":301,"o":"m 120 233 q 130 241 124 239 q 141 240 136 242 q 149 232 146 237 q 148 219 152 226 q 112 121 121 158 q 120 75 103 85 q 144 74 130 70 q 173 90 157 79 q 205 118 189 101 q 238 153 222 135 q 267 191 254 172 q 290 226 281 210 q 294 229 292 229 q 298 227 297 229 q 301 223 300 226 q 299 218 301 220 q 256 152 281 185 q 205 95 231 118 q 152 61 178 71 q 106 65 127 51 q 87 100 90 76 q 91 156 84 124 q 63 115 77 133 q 35 86 49 97 q 6 74 20 75 q -23 82 -8 72 q -39 107 -36 91 q -39 146 -43 124 q -25 194 -35 167 q -1 249 -15 220 q 9 256 3 255 q 20 255 15 258 q 28 248 25 253 q 27 235 31 242 q 3 180 14 204 q -13 138 -7 156 q -18 109 -18 120 q -9 93 -17 97 q 22 97 5 84 q 57 133 39 110 q 90 184 74 156 q 120 233 107 212 m 113 413 q 120 416 116 416 q 128 414 124 416 q 134 409 131 412 q 137 402 137 405 q 133 383 137 392 q 123 367 129 374 q 110 354 117 359 q 95 350 102 350 q 89 351 93 350 q 84 355 86 353 q 82 359 82 357 q 85 361 82 360 q 97 368 94 363 q 102 381 101 373 q 105 396 103 388 q 113 413 107 405 z "},"":{"ha":290,"x_min":-43,"x_max":301,"o":"m 120 233 q 130 241 124 239 q 141 240 136 242 q 149 232 146 237 q 148 219 152 226 q 112 121 121 158 q 120 75 103 85 q 144 74 130 70 q 173 90 157 79 q 205 118 189 101 q 238 153 222 135 q 267 191 254 172 q 290 226 281 210 q 294 229 292 229 q 298 227 297 229 q 301 223 300 226 q 299 218 301 220 q 256 152 281 185 q 205 95 231 118 q 152 61 178 71 q 106 65 127 51 q 87 100 90 76 q 91 156 84 124 q 63 115 77 133 q 35 86 49 97 q 6 74 20 75 q -23 82 -8 72 q -39 107 -36 91 q -39 146 -43 124 q -25 194 -35 167 q -1 249 -15 220 q 9 256 3 255 q 20 255 15 258 q 28 248 25 253 q 27 235 31 242 q 3 180 14 204 q -13 138 -7 156 q -18 109 -18 120 q -9 93 -17 97 q 22 97 5 84 q 57 133 39 110 q 90 184 74 156 q 120 233 107 212 m 75 391 q 84 372 85 382 q 76 353 82 361 q 60 341 69 345 q 44 343 50 337 q 37 360 37 348 q 42 381 37 371 q 55 396 47 391 q 75 391 64 400 m 154 391 q 163 372 164 382 q 155 353 161 361 q 139 341 148 345 q 122 343 129 337 q 116 360 116 348 q 121 381 116 371 q 134 396 126 391 q 154 391 143 400 z "},"":{"ha":298,"x_min":-229,"x_max":312,"o":"m 14 288 q 23 296 17 295 q 34 295 29 297 q 42 287 39 292 q 41 274 45 282 q 15 213 28 243 q -6 156 2 182 q -17 112 -15 130 q -10 88 -18 93 q 11 90 -1 83 q 38 114 24 98 q 67 151 52 129 q 95 197 82 173 q 120 244 109 220 q 139 286 132 267 q 144 297 142 292 q 151 305 146 302 q 168 305 158 310 q 177 287 177 301 q 168 214 175 254 q 152 140 161 174 q 221 184 185 163 q 298 226 257 205 q 305 228 302 229 q 310 224 308 226 q 312 219 312 222 q 309 214 312 216 q 229 168 269 193 q 146 114 189 143 q 115 19 133 69 q 73 -81 97 -31 q 23 -177 50 -131 q -35 -262 -4 -223 q -90 -317 -61 -294 q -152 -347 -119 -341 q -189 -345 -174 -351 q -213 -325 -204 -338 q -226 -293 -222 -312 q -226 -256 -229 -275 q -203 -180 -222 -216 q -156 -109 -184 -143 q -94 -44 -129 -75 q -22 16 -59 -12 q 50 69 14 44 q 116 116 86 94 q 130 179 124 148 q 140 243 137 209 q 102 169 124 205 q 58 109 81 133 q 14 74 36 84 q -25 76 -7 64 q -39 108 -38 85 q -33 163 -40 132 q -14 226 -27 193 q 14 288 -1 260 m 109 87 q 49 44 82 67 q -16 -4 17 21 q -81 -58 -49 -30 q -138 -118 -112 -86 q -182 -184 -164 -149 q -207 -257 -201 -219 q -209 -286 -210 -271 q -201 -312 -207 -301 q -181 -327 -194 -323 q -148 -324 -168 -331 q -99 -296 -122 -315 q -56 -254 -75 -278 q 39 -99 0 -187 q 109 87 78 -10 m 120 420 q 127 424 122 424 q 135 422 131 424 q 141 416 138 420 q 144 409 144 413 q 140 391 144 400 q 130 374 136 382 q 116 362 124 367 q 102 357 109 357 q 96 359 99 357 q 91 363 93 360 q 89 366 89 365 q 92 369 88 368 q 104 375 101 370 q 109 388 107 381 q 112 404 110 395 q 120 420 114 412 z "},"":{"ha":703,"x_min":-27,"x_max":717,"o":"m 148 437 q 174 421 156 426 q 215 415 192 416 q 265 416 239 414 q 317 419 292 418 q 363 421 342 421 q 397 417 384 421 q 401 412 399 416 q 404 404 403 409 q 402 395 404 399 q 394 389 399 391 q 331 350 367 377 q 257 288 295 324 q 182 208 219 252 q 113 118 144 165 q 60 23 82 71 q 30 -69 37 -24 q 36 -151 22 -116 q 79 -205 49 -186 q 153 -225 109 -224 q 250 -205 197 -226 q 380 -131 316 -178 q 503 -24 444 -83 q 613 100 562 35 q 703 226 664 165 q 712 227 707 231 q 714 218 717 224 q 663 132 694 178 q 596 41 633 87 q 516 -47 558 -4 q 430 -127 473 -90 q 342 -191 386 -164 q 259 -233 299 -219 q 134 -253 190 -258 q 41 -222 78 -248 q -12 -151 3 -195 q -15 -52 -27 -107 q 21 43 -4 -6 q 79 138 46 91 q 150 228 112 185 q 227 304 189 270 q 300 363 265 339 q 360 394 335 386 q 323 386 346 390 q 273 380 300 382 q 220 380 247 378 q 170 387 192 381 q 132 407 148 394 q 113 441 116 420 q 118 497 110 467 q 146 559 127 527 q 192 625 165 592 q 252 688 219 658 q 320 746 284 719 q 394 793 356 773 q 460 821 424 809 q 531 837 496 833 q 598 835 566 841 q 650 808 629 828 q 678 753 671 788 q 673 663 686 718 q 630 538 657 600 q 564 413 603 475 q 553 402 560 405 q 542 400 547 399 q 535 406 537 401 q 537 419 533 411 q 599 537 571 473 q 642 667 626 601 q 647 742 652 711 q 626 789 642 772 q 587 813 611 807 q 534 817 562 819 q 476 804 506 814 q 418 777 446 793 q 339 725 377 755 q 266 663 300 696 q 206 597 233 631 q 163 533 179 563 q 141 478 146 503 q 148 437 137 453 m 523 944 q 531 927 529 936 q 534 912 533 919 q 538 899 535 905 q 551 892 541 894 q 554 890 554 892 q 552 886 554 888 q 547 883 550 884 q 541 881 543 881 q 526 886 534 881 q 513 898 519 890 q 503 914 507 905 q 499 933 499 924 q 502 940 499 937 q 508 945 505 943 q 516 947 511 947 q 523 944 520 947 z "},"":{"ha":703,"x_min":-27,"x_max":717,"o":"m 148 437 q 174 421 156 426 q 215 415 192 416 q 265 416 239 414 q 317 419 292 418 q 363 421 342 421 q 397 417 384 421 q 401 412 399 416 q 404 404 403 409 q 402 395 404 399 q 394 389 399 391 q 331 350 367 377 q 257 288 295 324 q 182 208 219 252 q 113 118 144 165 q 60 23 82 71 q 30 -69 37 -24 q 36 -151 22 -116 q 79 -205 49 -186 q 153 -225 109 -224 q 250 -205 197 -226 q 380 -131 316 -178 q 503 -24 444 -83 q 613 100 562 35 q 703 226 664 165 q 712 227 707 231 q 714 218 717 224 q 663 132 694 178 q 596 41 633 87 q 516 -47 558 -4 q 430 -127 473 -90 q 342 -191 386 -164 q 259 -233 299 -219 q 134 -253 190 -258 q 41 -222 78 -248 q -12 -151 3 -195 q -15 -52 -27 -107 q 21 43 -4 -6 q 79 138 46 91 q 150 228 112 185 q 227 304 189 270 q 300 363 265 339 q 360 394 335 386 q 323 386 346 390 q 273 380 300 382 q 220 380 247 378 q 170 387 192 381 q 132 407 148 394 q 113 441 116 420 q 118 497 110 467 q 146 559 127 527 q 192 625 165 592 q 252 688 219 658 q 320 746 284 719 q 394 793 356 773 q 460 821 424 809 q 531 837 496 833 q 598 835 566 841 q 650 808 629 828 q 678 753 671 788 q 673 663 686 718 q 630 538 657 600 q 564 413 603 475 q 553 402 560 405 q 542 400 547 399 q 535 406 537 401 q 537 419 533 411 q 599 537 571 473 q 642 667 626 601 q 647 742 652 711 q 626 789 642 772 q 587 813 611 807 q 534 817 562 819 q 476 804 506 814 q 418 777 446 793 q 339 725 377 755 q 266 663 300 696 q 206 597 233 631 q 163 533 179 563 q 141 478 146 503 q 148 437 137 453 m 574 948 q 581 952 577 952 q 589 950 586 952 q 595 944 592 947 q 598 937 598 941 q 594 919 598 928 q 584 902 590 909 q 571 890 578 894 q 556 885 563 885 q 551 887 554 885 q 545 890 548 888 q 543 894 543 892 q 546 896 543 896 q 558 903 555 898 q 563 916 562 909 q 566 931 565 923 q 574 948 568 940 z "},"":{"ha":465,"x_min":-32,"x_max":696,"o":"m -20 -152 q -28 -150 -25 -154 q -31 -139 -31 -146 q -30 -125 -32 -132 q -23 -117 -28 -119 q 53 -101 17 -107 q 123 -92 88 -95 q 140 -1 129 -50 q 166 100 151 47 q 198 208 180 152 q 237 321 216 264 q 279 471 265 410 q 293 571 292 532 q 284 632 295 611 q 256 663 274 653 q 212 674 237 673 q 157 677 186 676 q 95 680 127 677 q 31 694 63 683 q 10 700 15 696 q 6 710 5 705 q 13 721 7 716 q 27 729 19 726 q 125 752 71 743 q 237 768 178 762 q 356 777 295 774 q 475 783 416 781 q 587 785 533 785 q 687 786 641 786 q 695 779 696 786 q 685 772 694 772 q 585 769 643 771 q 460 762 526 767 q 394 592 420 658 q 351 486 368 525 q 326 429 335 446 q 314 407 318 412 q 308 403 309 401 q 305 403 307 405 q 299 392 303 402 q 284 354 295 382 q 203 116 238 231 q 150 -90 167 1 q 233 -89 191 -87 q 322 -100 274 -92 q 327 -105 326 -102 q 326 -110 328 -107 q 320 -114 324 -113 q 309 -114 316 -115 q 222 -107 261 -107 q 147 -111 184 -106 q 146 -120 146 -116 q 140 -133 144 -128 q 131 -139 136 -137 q 123 -137 127 -140 q 119 -124 119 -133 q 119 -119 119 -121 q 120 -115 120 -117 q 54 -130 88 -120 q -20 -152 20 -139 m 429 760 q 338 752 384 756 q 249 741 292 747 q 164 727 205 735 q 88 711 123 720 q 151 703 120 705 q 211 693 183 700 q 261 674 239 687 q 295 637 283 662 q 308 573 307 613 q 295 473 309 533 q 360 624 326 552 q 429 760 394 696 m 434 922 q 442 905 440 913 q 445 889 443 896 q 449 877 446 882 q 462 870 452 871 q 465 868 465 869 q 463 864 465 866 q 457 860 460 862 q 452 858 454 858 q 437 863 445 858 q 424 875 430 868 q 414 892 418 883 q 410 911 410 901 q 413 918 410 914 q 419 923 416 921 q 426 925 422 925 q 434 922 431 925 z "},"":{"ha":465,"x_min":-32,"x_max":696,"o":"m -20 -152 q -28 -150 -25 -154 q -31 -139 -31 -146 q -30 -125 -32 -132 q -23 -117 -28 -119 q 53 -101 17 -107 q 123 -92 88 -95 q 140 -1 129 -50 q 166 100 151 47 q 198 208 180 152 q 237 321 216 264 q 279 471 265 410 q 293 571 292 532 q 284 632 295 611 q 256 663 274 653 q 212 674 237 673 q 157 677 186 676 q 95 680 127 677 q 31 694 63 683 q 10 700 15 696 q 6 710 5 705 q 13 721 7 716 q 27 729 19 726 q 125 752 71 743 q 237 768 178 762 q 356 777 295 774 q 475 783 416 781 q 587 785 533 785 q 687 786 641 786 q 695 779 696 786 q 685 772 694 772 q 585 769 643 771 q 460 762 526 767 q 394 592 420 658 q 351 486 368 525 q 326 429 335 446 q 314 407 318 412 q 308 403 309 401 q 305 403 307 405 q 299 392 303 402 q 284 354 295 382 q 203 116 238 231 q 150 -90 167 1 q 233 -89 191 -87 q 322 -100 274 -92 q 327 -105 326 -102 q 326 -110 328 -107 q 320 -114 324 -113 q 309 -114 316 -115 q 222 -107 261 -107 q 147 -111 184 -106 q 146 -120 146 -116 q 140 -133 144 -128 q 131 -139 136 -137 q 123 -137 127 -140 q 119 -124 119 -133 q 119 -119 119 -121 q 120 -115 120 -117 q 54 -130 88 -120 q -20 -152 20 -139 m 429 760 q 338 752 384 756 q 249 741 292 747 q 164 727 205 735 q 88 711 123 720 q 151 703 120 705 q 211 693 183 700 q 261 674 239 687 q 295 637 283 662 q 308 573 307 613 q 295 473 309 533 q 360 624 326 552 q 429 760 394 696 m 437 919 q 444 922 440 922 q 452 920 449 922 q 458 915 456 918 q 461 908 461 911 q 457 889 461 898 q 448 873 454 880 q 434 860 441 865 q 420 856 426 856 q 414 857 417 856 q 409 861 411 859 q 406 865 407 863 q 409 867 406 867 q 422 874 418 869 q 426 887 425 879 q 430 902 428 894 q 437 919 431 911 z "},"":{"ha":465,"x_min":-32,"x_max":696,"o":"m -20 -152 q -28 -150 -25 -154 q -31 -139 -31 -146 q -30 -125 -32 -132 q -23 -117 -28 -119 q 53 -101 17 -107 q 123 -92 88 -95 q 140 -1 129 -50 q 166 100 151 47 q 198 208 180 152 q 237 321 216 264 q 279 471 265 410 q 293 571 292 532 q 284 632 295 611 q 256 663 274 653 q 212 674 237 673 q 157 677 186 676 q 95 680 127 677 q 31 694 63 683 q 10 700 15 696 q 6 710 5 705 q 13 721 7 716 q 27 729 19 726 q 125 752 71 743 q 237 768 178 762 q 356 777 295 774 q 475 783 416 781 q 587 785 533 785 q 687 786 641 786 q 695 779 696 786 q 685 772 694 772 q 585 769 643 771 q 460 762 526 767 q 394 592 420 658 q 351 486 368 525 q 326 429 335 446 q 314 407 318 412 q 308 403 309 401 q 305 403 307 405 q 299 392 303 402 q 284 354 295 382 q 203 116 238 231 q 150 -90 167 1 q 233 -89 191 -87 q 322 -100 274 -92 q 327 -105 326 -102 q 326 -110 328 -107 q 320 -114 324 -113 q 309 -114 316 -115 q 222 -107 261 -107 q 147 -111 184 -106 q 146 -120 146 -116 q 140 -133 144 -128 q 131 -139 136 -137 q 123 -137 127 -140 q 119 -124 119 -133 q 119 -119 119 -121 q 120 -115 120 -117 q 54 -130 88 -120 q -20 -152 20 -139 m 429 760 q 338 752 384 756 q 249 741 292 747 q 164 727 205 735 q 88 711 123 720 q 151 703 120 705 q 211 693 183 700 q 261 674 239 687 q 295 637 283 662 q 308 573 307 613 q 295 473 309 533 q 360 624 326 552 q 429 760 394 696 m 378 928 q 387 909 388 920 q 379 890 386 898 q 363 878 373 882 q 347 881 354 875 q 341 897 341 886 q 346 919 341 909 q 359 933 350 928 q 378 928 367 937 m 457 928 q 466 909 467 920 q 458 890 465 898 q 442 878 452 882 q 426 881 433 875 q 420 897 420 886 q 424 919 420 909 q 438 933 429 928 q 457 928 446 937 z "},"":{"ha":648,"x_min":8,"x_max":637,"o":"m 10 125 q 16 222 8 169 q 40 331 24 275 q 80 440 56 386 q 133 544 103 495 q 196 632 162 592 q 266 696 229 671 q 353 770 307 741 q 443 809 399 799 q 525 810 487 820 q 589 770 564 801 q 628 672 620 732 q 629 541 637 613 q 598 391 621 469 q 541 238 575 313 q 467 96 508 163 q 382 -19 426 29 q 300 -88 342 -63 q 217 -119 258 -113 q 140 -112 177 -124 q 76 -68 104 -99 q 31 12 48 -37 q 10 125 13 60 m 170 230 q 168 219 171 223 q 160 215 165 215 q 150 217 155 214 q 144 227 146 220 q 134 345 133 289 q 145 452 135 401 q 109 365 125 409 q 82 278 93 321 q 65 194 71 235 q 60 119 59 154 q 67 9 55 53 q 102 -59 79 -35 q 158 -90 126 -84 q 225 -86 190 -96 q 296 -53 260 -77 q 363 7 331 -29 q 440 116 402 53 q 510 248 478 178 q 565 391 541 318 q 598 531 588 465 q 602 653 607 597 q 571 743 597 708 q 519 786 549 775 q 454 790 488 796 q 385 761 420 783 q 316 704 349 739 q 318 692 319 699 q 309 680 316 686 q 284 659 296 671 q 259 634 271 648 q 211 547 233 594 q 177 448 190 500 q 162 341 165 397 q 170 230 160 286 m 507 957 q 515 940 513 949 q 518 925 516 932 q 522 912 519 918 q 535 905 525 907 q 538 903 538 905 q 535 899 537 901 q 530 895 533 897 q 524 894 527 894 q 510 898 518 894 q 497 911 503 903 q 487 927 490 918 q 483 946 483 937 q 486 953 483 950 q 492 958 488 956 q 499 960 495 960 q 507 957 503 960 z "},"":{"ha":648,"x_min":8,"x_max":637,"o":"m 10 125 q 16 222 8 169 q 40 331 24 275 q 80 440 56 386 q 133 544 103 495 q 196 632 162 592 q 266 696 229 671 q 353 770 307 741 q 443 809 399 799 q 525 810 487 820 q 589 770 564 801 q 628 672 620 732 q 629 541 637 613 q 598 391 621 469 q 541 238 575 313 q 467 96 508 163 q 382 -19 426 29 q 300 -88 342 -63 q 217 -119 258 -113 q 140 -112 177 -124 q 76 -68 104 -99 q 31 12 48 -37 q 10 125 13 60 m 170 230 q 168 219 171 223 q 160 215 165 215 q 150 217 155 214 q 144 227 146 220 q 134 345 133 289 q 145 452 135 401 q 109 365 125 409 q 82 278 93 321 q 65 194 71 235 q 60 119 59 154 q 67 9 55 53 q 102 -59 79 -35 q 158 -90 126 -84 q 225 -86 190 -96 q 296 -53 260 -77 q 363 7 331 -29 q 440 116 402 53 q 510 248 478 178 q 565 391 541 318 q 598 531 588 465 q 602 653 607 597 q 571 743 597 708 q 519 786 549 775 q 454 790 488 796 q 385 761 420 783 q 316 704 349 739 q 318 692 319 699 q 309 680 316 686 q 284 659 296 671 q 259 634 271 648 q 211 547 233 594 q 177 448 190 500 q 162 341 165 397 q 170 230 160 286 m 524 932 q 532 935 527 935 q 539 933 536 935 q 545 928 543 931 q 548 921 548 924 q 544 902 548 911 q 535 886 541 893 q 521 873 528 878 q 507 869 514 869 q 501 870 504 869 q 496 874 498 872 q 493 878 494 876 q 497 880 493 879 q 509 887 505 881 q 514 900 512 892 q 517 915 515 907 q 524 932 518 924 z "},"":{"ha":648,"x_min":7,"x_max":748,"o":"m 711 735 q 723 745 716 743 q 736 745 730 747 q 745 736 742 742 q 743 722 748 729 q 669 584 707 656 q 595 437 631 511 q 527 287 559 362 q 469 141 494 212 q 426 6 443 71 q 403 -112 409 -58 q 400 -129 403 -122 q 393 -137 397 -135 q 387 -136 390 -139 q 384 -122 384 -133 q 402 10 385 -64 q 449 169 420 84 q 390 78 420 122 q 326 -3 359 34 q 228 -94 274 -62 q 145 -135 182 -127 q 79 -132 107 -144 q 34 -89 51 -119 q 12 -14 17 -59 q 16 88 7 31 q 61 284 31 184 q 129 477 91 384 q 209 655 167 571 q 290 801 251 738 q 301 810 295 809 q 310 809 306 811 q 316 802 314 807 q 315 792 318 797 q 243 650 281 730 q 171 478 205 569 q 107 291 136 388 q 61 99 78 194 q 55 -37 46 16 q 97 -106 65 -90 q 182 -94 129 -121 q 307 11 235 -67 q 374 94 342 48 q 436 189 407 139 q 490 291 465 239 q 539 394 516 343 q 622 569 578 483 q 711 735 666 655 m 516 932 q 523 915 522 924 q 526 900 525 907 q 531 887 528 892 q 543 880 534 881 q 547 878 547 879 q 544 874 546 876 q 539 870 542 872 q 533 869 536 869 q 519 873 526 869 q 505 886 511 878 q 495 902 499 893 q 492 921 492 911 q 494 928 492 924 q 501 933 497 931 q 508 935 504 935 q 516 932 512 935 z "},"":{"ha":641,"x_min":7,"x_max":748,"o":"m 711 735 q 723 745 716 743 q 736 745 730 747 q 745 736 742 742 q 743 722 748 729 q 669 584 707 656 q 595 437 631 511 q 527 287 559 362 q 469 141 494 212 q 426 6 443 71 q 403 -112 409 -58 q 400 -129 403 -122 q 393 -137 397 -135 q 387 -136 390 -139 q 384 -122 384 -133 q 402 10 385 -64 q 449 169 420 84 q 390 78 420 122 q 326 -3 359 34 q 228 -94 274 -62 q 145 -135 182 -127 q 79 -132 107 -144 q 34 -89 51 -119 q 12 -14 17 -59 q 16 88 7 31 q 61 284 31 184 q 129 477 91 384 q 209 655 167 571 q 290 801 251 738 q 301 810 295 809 q 310 809 306 811 q 316 802 314 807 q 315 792 318 797 q 243 650 281 730 q 171 478 205 569 q 107 291 136 388 q 61 99 78 194 q 55 -37 46 16 q 97 -106 65 -90 q 182 -94 129 -121 q 307 11 235 -67 q 374 94 342 48 q 436 189 407 139 q 490 291 465 239 q 539 394 516 343 q 622 569 578 483 q 711 735 666 655 m 550 922 q 557 926 553 926 q 565 924 562 926 q 571 918 569 922 q 574 911 574 915 q 570 893 574 902 q 560 876 567 884 q 547 864 554 869 q 533 859 539 859 q 527 861 530 859 q 522 864 524 862 q 519 868 520 867 q 522 871 519 870 q 535 877 531 872 q 539 890 538 883 q 542 906 541 897 q 550 922 544 914 z "},"":{"ha":556,"x_min":1,"x_max":545,"o":"m 150 -29 q 162 -21 156 -22 q 172 -23 168 -20 q 177 -30 175 -25 q 175 -37 178 -34 q 138 -97 151 -65 q 120 -160 124 -129 q 120 -219 116 -191 q 136 -266 124 -247 q 164 -291 147 -284 q 202 -287 181 -298 q 248 -246 223 -277 q 299 -158 273 -215 q 365 18 337 -78 q 415 216 393 115 q 456 419 437 318 q 492 610 474 520 q 451 521 472 566 q 407 432 429 475 q 364 346 386 388 q 321 269 342 305 q 280 201 301 235 q 235 137 258 166 q 184 87 211 107 q 126 64 156 67 q 89 68 107 62 q 55 87 71 73 q 27 124 39 101 q 8 180 14 147 q 2 279 1 227 q 12 384 3 331 q 33 491 20 437 q 64 594 47 544 q 101 691 81 645 q 140 776 120 737 q 151 788 144 784 q 165 790 158 791 q 173 782 171 788 q 170 765 176 775 q 135 685 153 729 q 100 593 117 641 q 70 492 84 544 q 48 387 56 439 q 39 283 40 335 q 47 186 38 232 q 66 127 54 146 q 95 102 79 107 q 129 104 110 97 q 167 127 148 112 q 205 163 186 142 q 241 206 224 184 q 272 250 258 229 q 295 286 286 271 q 346 378 320 329 q 399 477 373 426 q 450 581 425 528 q 496 683 475 633 q 510 703 501 695 q 527 712 519 711 q 540 704 535 712 q 543 677 545 696 q 518 550 531 620 q 490 405 505 480 q 457 251 475 329 q 420 98 440 173 q 378 -46 401 23 q 331 -170 356 -114 q 273 -267 302 -233 q 217 -314 244 -302 q 166 -319 190 -326 q 126 -291 143 -312 q 100 -240 110 -271 q 93 -173 91 -209 q 108 -100 94 -137 q 150 -29 122 -62 m 376 929 q 383 933 379 933 q 391 930 388 933 q 397 925 394 928 q 400 918 400 922 q 396 900 400 909 q 386 883 392 890 q 373 871 380 875 q 358 866 365 866 q 353 868 356 866 q 348 871 350 869 q 345 875 346 873 q 348 877 345 877 q 360 884 357 879 q 365 897 364 890 q 368 912 367 904 q 376 929 370 921 z "},"":{"ha":243,"x_min":12,"x_max":260,"o":"m 228 575 q 242 582 233 585 q 256 569 250 579 q 256 547 260 562 q 246 511 253 531 q 228 469 238 491 q 207 426 217 446 q 189 389 197 405 q 178 365 181 373 q 145 277 163 326 q 108 175 127 228 q 69 68 88 122 q 32 -34 50 15 q 26 -43 30 -39 q 18 -47 22 -47 q 14 -44 15 -48 q 16 -30 12 -40 q 111 271 58 119 q 228 575 164 424 z "},"":{"ha":444,"x_min":12,"x_max":354,"o":"m 254 122 q 249 95 252 109 q 239 67 245 80 q 224 42 233 54 q 207 23 216 31 q 184 17 195 14 q 167 34 173 20 q 160 73 160 50 q 169 117 161 96 q 192 152 177 138 q 231 165 208 167 q 241 167 236 169 q 249 157 246 164 q 254 141 252 150 q 254 122 256 131 m 224 152 q 201 136 211 148 q 184 108 190 124 q 177 77 178 93 q 178 48 175 61 q 188 33 181 36 q 205 37 196 30 q 226 73 217 49 q 237 120 235 97 l 237 124 q 226 135 231 128 q 224 152 222 142 m 139 448 q 134 420 137 434 q 124 392 130 405 q 110 367 118 379 q 92 348 101 356 q 69 342 80 339 q 52 359 58 346 q 45 398 45 375 q 54 442 46 421 q 78 477 62 463 q 116 490 93 492 q 126 492 121 494 q 134 482 131 489 q 139 466 137 475 q 139 448 141 456 m 110 477 q 86 461 96 473 q 69 433 75 449 q 62 402 63 418 q 63 373 60 386 q 73 358 66 361 q 90 363 81 355 q 111 398 102 374 q 122 446 120 422 l 122 449 q 111 460 116 453 q 110 477 107 467 m 352 122 q 347 95 351 109 q 337 67 343 80 q 323 42 331 54 q 305 23 315 31 q 283 17 294 14 q 266 34 272 20 q 259 73 258 50 q 267 117 259 96 q 291 152 275 138 q 330 165 307 167 q 339 167 335 169 q 348 157 344 164 q 353 141 351 150 q 352 122 354 131 m 323 152 q 299 136 309 148 q 283 108 289 124 q 275 77 277 93 q 277 48 273 61 q 287 33 280 36 q 304 37 295 30 q 324 73 316 49 q 335 120 333 97 l 336 124 q 325 135 329 128 q 323 152 320 142 m 228 575 q 242 582 233 585 q 256 569 250 579 q 256 547 260 562 q 246 511 253 531 q 228 469 238 491 q 207 426 217 446 q 189 389 197 405 q 178 365 181 373 q 145 277 163 326 q 108 175 127 228 q 69 68 88 122 q 32 -34 50 15 q 26 -43 30 -39 q 18 -47 22 -47 q 14 -44 15 -48 q 16 -30 12 -40 q 111 271 58 119 q 228 575 164 424 z "},"":{"ha":273,"x_min":-45,"x_max":283,"o":"m -40 100 q -41 146 -45 120 q -28 196 -37 171 q -2 244 -18 221 q 34 282 14 267 q 78 304 54 298 q 127 302 101 310 q 144 300 137 307 q 153 282 150 293 q 156 257 156 270 q 154 235 156 243 q 182 222 165 226 q 216 218 199 218 q 248 220 233 217 q 273 226 263 222 q 281 223 278 229 q 277 214 283 218 q 249 205 265 207 q 215 203 233 202 q 180 207 197 203 q 149 218 163 211 q 129 171 141 195 q 100 127 116 148 q 64 89 84 105 q 23 63 44 72 q -18 63 -1 52 q -40 100 -35 73 m 116 290 q 64 271 88 290 q 20 225 39 252 q -10 168 1 199 q -21 112 -21 137 q -9 80 -21 88 q 25 83 4 72 q 53 105 39 90 q 81 139 68 120 q 106 180 95 158 q 125 225 118 203 l 128 232 q 112 257 117 241 q 116 290 107 273 m 106 429 q 114 412 112 420 q 117 396 116 403 q 121 384 118 389 q 134 377 124 378 q 137 374 137 376 q 135 371 137 373 q 130 367 133 369 q 124 365 127 365 q 110 370 117 365 q 96 382 102 375 q 86 399 90 390 q 82 418 82 408 q 85 424 82 421 q 91 430 88 428 q 99 432 95 432 q 106 429 103 432 z "}}}
